<svg width="500" height="121" viewBox="0 0 500 121" fill="none" xmlns="http://www.w3.org/2000/svg">
<g clip-path="url(#clip0_1519_1269)">
<mask id="mask0_1519_1269" style="mask-type:luminance" maskUnits="userSpaceOnUse" x="0" y="0" width="500" height="121">
<path d="M500 0H0V120.526H500V0Z" fill="white"/>
</mask>
<g mask="url(#mask0_1519_1269)">
<path d="M37.7161 71.3998C28.4525 71.3998 20.7713 68.3216 14.6722 62.1651C8.57317 56.0085 5.52368 48.3703 5.52368 39.2506C5.52368 30.102 8.57317 22.4495 14.6722 16.2929C20.7713 10.1364 28.4525 7.05814 37.7161 7.05814C43.2686 7.05814 48.3895 8.3383 53.0788 10.8987C57.7969 13.4592 61.5081 16.9546 64.2124 21.385L52.0431 28.4191C50.6909 26.0025 48.7347 24.1325 46.1743 22.8091C43.6425 21.4858 40.8232 20.824 37.7161 20.824C32.25 20.824 27.8772 22.507 24.5975 25.873C21.3179 29.239 19.678 33.6981 19.678 39.2506C19.678 44.7742 21.3035 49.219 24.5544 52.585C27.834 55.9221 32.2213 57.5907 37.7161 57.5907C40.852 57.5907 43.7001 56.9147 46.2605 55.5626C48.821 54.2105 50.7485 52.3549 52.0431 49.9957L64.2124 57.0729C61.5657 61.5033 57.8832 64.9988 53.1651 67.5592C48.4757 70.1197 43.3262 71.3998 37.7161 71.3998ZM70.4057 70.1484V5.63403H83.6538V70.1484H70.4057ZM106.418 55.5626C108.374 57.5188 110.791 58.497 113.668 58.497C116.573 58.497 118.99 57.5188 120.918 55.5626C122.875 53.6063 123.852 51.1034 123.852 48.0538C123.852 45.0043 122.875 42.5015 120.918 40.5452C118.99 38.5889 116.573 37.6107 113.668 37.6107C110.791 37.6107 108.374 38.5889 106.418 40.5452C104.491 42.5015 103.527 45.0043 103.527 48.0538C103.527 51.1034 104.491 53.6063 106.418 55.5626ZM130.282 64.6248C125.737 69.1415 120.199 71.3998 113.668 71.3998C107.137 71.3998 101.599 69.1415 97.0538 64.6248C92.5083 60.1081 90.2356 54.5844 90.2356 48.0538C90.2356 41.5233 92.5083 35.9997 97.0538 31.4829C101.599 26.9662 107.137 24.7078 113.668 24.7078C120.199 24.7078 125.737 26.9662 130.282 31.4829C134.828 35.9997 137.1 41.5233 137.1 48.0538C137.1 54.5844 134.828 60.1081 130.282 64.6248ZM172.249 25.9593H185.497V70.1484H172.249V66.0057C169.602 69.6018 165.388 71.3998 159.606 71.3998C154.887 71.3998 150.946 69.7744 147.782 66.5236C144.645 63.2727 143.078 58.7991 143.078 53.1029V25.9593H156.369V51.1609C156.369 53.7501 157.088 55.7352 158.526 57.1161C159.966 58.497 161.878 59.1875 164.266 59.1875C166.654 59.1875 168.582 58.4251 170.049 56.9003C171.516 55.3755 172.249 53.1029 172.249 50.0821V25.9593ZM215.9 58.8423C219.007 58.8423 221.539 57.864 223.495 55.9078C225.452 53.9515 226.43 51.3335 226.43 48.0538C226.43 44.7742 225.452 42.1562 223.495 40.2C221.539 38.2436 219.007 37.2655 215.9 37.2655C212.793 37.2655 210.262 38.2436 208.305 40.2C206.349 42.1562 205.371 44.7742 205.371 48.0538C205.371 51.3335 206.349 53.9515 208.305 55.9078C210.233 57.864 212.764 58.8423 215.9 58.8423ZM226.43 8.26638H239.677V70.1484H226.43V66.0057C223.323 69.6018 218.892 71.3998 213.139 71.3998C207.384 71.3998 202.45 69.1415 198.336 64.6248C194.222 60.1081 192.151 54.5844 192.122 48.0538C192.093 41.5233 194.15 35.9997 198.293 31.4829C202.436 26.9662 207.384 24.7078 213.139 24.7078C218.892 24.7078 223.323 26.5059 226.43 30.102V8.26638ZM266.455 47.1908H280.955L273.705 24.4489L266.455 47.1908ZM288.291 70.1484L285.228 60.4389H262.226L259.12 70.1484H243.67L264.686 8.26638H282.724L303.783 70.1484H288.291ZM370.003 8.26638V66.5028C370.003 66.5028 367.01 65.5085 362.947 65.5085C358.884 65.5085 355.892 66.5028 355.892 66.5028V34.1584L339.882 60.4389H338.285L322.318 34.1584V70.1484H308.164V8.26638H322.318L339.105 35.7551L355.892 8.26638H370.003ZM409.295 57.5907C410.59 57.5907 412.028 57.4469 413.61 57.1592L404.677 47.7086L414.862 38.6896L424.744 49.219C426.442 46.1695 427.304 42.8323 427.333 39.2074C427.333 33.7989 425.607 29.3828 422.154 25.9593C418.702 22.5358 414.416 20.824 409.295 20.824C404.174 20.824 399.887 22.5358 396.435 25.9593C392.983 29.3828 391.257 33.7989 391.257 39.2074C391.257 44.616 392.983 49.0321 396.435 52.4555C399.887 55.8791 404.174 57.5907 409.295 57.5907ZM441.444 39.2074C441.444 46.86 439.1 53.6063 434.41 59.4463L440.581 66.0057L430.397 75.0248L423.795 68.0339C419.191 70.2779 414.358 71.3998 409.295 71.3998C400.348 71.3998 392.753 68.3073 386.51 62.1219C380.267 55.9653 377.145 48.3416 377.145 39.2506C377.145 30.1596 380.253 22.5215 386.467 16.3361C392.739 10.1507 400.348 7.05814 409.295 7.05814C418.242 7.05814 425.837 10.1507 432.08 16.3361C438.323 22.5215 441.444 30.1452 441.444 39.2074ZM472.407 37.4382C474.595 37.4382 476.392 36.6758 477.802 35.151C479.211 33.6262 479.916 31.7419 479.916 29.4979C479.916 27.2539 479.211 25.3696 477.802 23.8448C476.392 22.3201 474.595 21.5577 472.407 21.5577H463.13V37.4382H472.407ZM472.407 8.26638C478.478 8.26638 483.599 10.3377 487.771 14.4805C491.942 18.6232 494.028 23.6291 494.028 29.4979C494.028 35.3955 491.942 40.4014 487.771 44.5153C483.599 48.6293 478.478 50.6862 472.407 50.6862H463.13V70.1484H461.353C461.353 70.1484 462.292 59.5982 457.266 57.8859C452.239 56.1736 448.975 61.642 448.975 61.642V8.26638H472.407ZM310.064 97.8275C310.61 98.3655 311.303 98.6345 312.141 98.6345C312.979 98.6345 313.672 98.3655 314.218 97.8275C314.764 97.2895 315.036 96.5695 315.036 95.6676C315.036 94.7657 314.759 94.0458 314.206 93.5079C313.668 92.9699 312.979 92.7009 312.141 92.7009C311.303 92.7009 310.607 92.9699 310.052 93.5079C309.498 94.0458 309.23 94.7657 309.246 95.6676C309.246 96.5695 309.518 97.2895 310.064 97.8275ZM309.246 90.7309C310.099 89.742 311.318 89.2475 312.901 89.2475C314.483 89.2475 315.84 89.8686 316.971 91.1106C318.102 92.3528 318.668 93.8718 318.668 95.6676C318.668 97.4636 318.102 98.9826 316.971 100.225C315.84 101.467 314.483 102.088 312.901 102.088C311.318 102.088 310.099 101.593 309.246 100.604V101.744H305.602V84.7261H309.246V90.7309ZM320.466 103.203C321.305 103.203 321.95 103.053 322.401 102.752C322.859 102.452 323.227 101.93 323.504 101.186L318.662 89.5916H322.673L325.367 97.0324L327.658 89.5916H331.538L327.385 101.376C326.705 103.29 325.81 104.659 324.703 105.482C323.595 106.313 322.183 106.688 320.466 106.609V103.203Z" fill="white"/>
<path d="M468.907 89.1195C469.256 89.5149 469.431 90.0392 469.431 90.6903C469.431 91.9596 468.865 93.0767 467.735 94.0379C466.604 94.9991 465.057 95.7212 463.094 96.2018V96.0978C463.094 94.0027 463.519 92.2174 464.367 90.7424C465.215 89.2651 466.255 88.5265 467.486 88.5265C468.084 88.5265 468.558 88.7243 468.907 89.1195ZM455.332 65.1368C455.549 65.8608 455.657 66.8762 455.657 68.1848C455.657 73.2842 453.795 80.0378 450.068 88.4454C450.268 84.3467 450.592 80.4165 451.042 76.6611C451.491 72.9055 452.032 69.8659 452.663 67.5399C453.295 65.2138 453.927 64.0507 454.559 64.0507C454.859 64.0507 455.117 64.4127 455.332 65.1368ZM437.692 98.8025C437.692 96.4286 438.301 94.2668 439.517 92.3236C440.736 90.3783 442.261 89.1132 444.1 88.5265C444.044 89.8685 444.01 91.2114 443.998 92.5546C443.998 94.8619 444.164 96.9445 444.498 98.8025C443.532 100.249 442.732 101.239 442.096 101.774C441.462 102.306 440.827 102.573 440.195 102.573C438.525 102.573 437.692 101.316 437.692 98.8025ZM416.152 100.817C415.44 99.8178 415.084 98.3738 415.084 96.4806C415.084 94.0692 415.522 92.2029 416.402 90.8776C417.281 89.5523 418.385 88.8885 419.712 88.8885H419.961C419.862 89.4336 419.812 89.9865 419.812 90.5405C419.812 91.8513 420.086 93.0893 420.633 94.2585C421.156 95.3987 421.972 96.3789 422.999 97.0984C422.733 98.7858 422.208 100.078 421.429 100.972C420.65 101.867 419.728 102.315 418.668 102.315C417.705 102.315 416.868 101.815 416.152 100.817ZM431.455 99.3185C431.455 101.834 432.11 103.873 433.424 105.44C434.737 107.006 436.411 107.788 438.44 107.788C439.838 107.788 441.06 107.479 442.108 106.858C443.156 106.239 444.378 105.017 445.775 103.192C447.106 106.257 449.038 107.788 451.565 107.788C453.163 107.788 454.776 107.177 456.405 105.955C457.308 105.279 458.168 104.526 458.988 103.698C459.277 104.104 459.597 104.489 459.948 104.844C461.88 106.806 464.591 107.788 468.084 107.788C470.621 107.796 473.113 107.118 475.296 105.826C475.824 105.519 476.326 105.202 476.8 104.882C477.271 104.757 477.726 104.472 478.165 104.019C478.448 103.734 478.727 103.444 479.001 103.151C479.569 102.631 480.072 102.092 480.51 101.541C480.667 101.353 480.802 101.149 480.92 100.925C481.111 100.685 481.299 100.442 481.484 100.196C482.499 98.8545 483.521 97.1692 484.553 95.1365C485.019 95.6878 485.517 96.3329 486.049 97.0736C486.582 97.8143 487.023 98.5799 487.372 99.3705C487.721 100.163 487.912 101.006 487.947 101.903C487.505 101.849 487.064 101.788 486.623 101.722C486.119 101.642 485.611 101.599 485.102 101.593C483.871 101.593 482.939 101.919 482.307 102.573C482.002 102.877 481.761 103.239 481.599 103.638C481.435 104.038 481.354 104.465 481.359 104.897C481.359 105.931 481.816 106.858 482.731 107.684C483.646 108.51 484.968 108.924 486.698 108.924C488.195 108.924 489.526 108.529 490.69 107.739C491.853 106.95 492.79 105.873 493.411 104.613C494.06 103.324 494.385 101.952 494.385 100.509C494.396 99.3467 494.112 98.2008 493.562 97.1775C493.013 96.1623 492.206 94.9305 491.141 93.4845C490.545 92.7506 490.002 91.9738 489.519 91.1605C489.17 90.5405 488.996 89.9746 488.996 89.4566C488.996 88.5973 489.295 87.5466 489.894 86.3067C490.127 85.8594 490.309 85.412 490.443 84.9646C490.576 84.5173 490.642 84.1907 490.642 83.9827C490.642 83.604 490.46 83.3293 490.093 83.1565C489.727 82.986 489.079 82.8987 488.147 82.8987C486.151 82.8987 484.835 83.656 484.203 85.1706C483.417 87.0559 482.61 88.9327 481.783 90.8006C481.247 92.0228 480.639 93.2121 479.962 94.3625C479.247 95.5276 478.266 96.9322 477.021 98.5841C476.031 99.5175 474.931 100.328 473.747 100.997C471.835 102.082 470.13 102.624 468.633 102.624C466.305 102.624 464.724 101.834 463.893 100.249C467.818 99.2499 470.604 97.8996 472.25 96.1955C473.049 95.3923 473.679 94.4373 474.103 93.3869C474.527 92.3363 474.737 91.2116 474.72 90.0787C474.72 88.046 474.138 86.4377 472.974 85.2476C471.809 84.0616 470.263 83.4665 468.333 83.4665C466.171 83.4665 464.233 84.0699 462.52 85.2746C460.805 86.4792 459.466 88.1043 458.502 90.1537C457.531 92.2303 457.036 94.4981 457.055 96.7907C457.055 97.5583 457.104 98.2886 457.199 98.9834C456.622 99.6458 456.006 100.275 455.358 100.869C454.427 101.694 453.512 102.108 452.614 102.108C451.914 102.108 451.341 101.678 450.891 100.819C450.443 99.9572 450.152 98.5299 450.019 96.5326C453.079 91.0919 455.525 85.7905 457.354 80.6266C459.184 75.4627 460.098 70.9519 460.098 67.0987C460.098 64.3773 459.624 62.3467 458.676 61.0027C457.728 59.6627 456.539 58.9907 455.108 58.9907C452.214 58.9907 449.877 61.3585 448.095 66.0918C446.316 70.8251 445.11 76.5301 444.477 83.2087C442.056 83.4683 439.751 84.3881 437.817 85.8677C435.835 87.3657 434.282 89.2943 433.15 91.6516C433.071 91.8134 432.997 91.9764 432.924 92.1405C431.557 92.477 430.162 92.7018 428.758 92.8125C428.492 90.1618 427.585 87.9336 426.038 86.1256C424.492 84.3196 422.452 83.4146 419.926 83.4146C417.861 83.4146 415.982 83.9929 414.285 85.1456C412.588 86.2983 411.258 87.9004 410.294 89.9476C409.327 91.9949 408.844 94.3272 408.844 96.9445C408.844 97.5958 408.886 98.2324 408.969 98.8524C408.14 99.6698 407.218 100.389 406.225 100.997C404.644 101.944 403.173 102.418 401.808 102.418C398.449 102.418 396.766 100.421 396.766 96.4264C396.766 94.9825 396.969 93.6573 397.367 92.4526C397.767 91.2459 398.3 90.2909 398.965 89.5856C399.63 88.8802 400.345 88.5265 401.11 88.5265C401.509 88.5265 401.817 88.6473 402.034 88.8885C402.249 89.1299 402.357 89.4733 402.357 89.9227C402.357 90.37 402.275 90.8505 402.108 91.3686C402.075 91.506 402.025 91.7285 401.959 92.0386C401.897 92.3095 401.863 92.5865 401.859 92.8646C401.859 93.4159 402.05 93.8466 402.433 94.1546C402.815 94.4666 403.322 94.6205 403.955 94.6205C404.952 94.6205 405.759 94.1213 406.374 93.1226C406.99 92.1239 407.298 90.9026 407.298 89.4566C407.298 87.7006 406.791 86.2649 405.775 85.1456C404.761 84.0263 403.338 83.4665 401.509 83.4665C399.646 83.4665 397.867 84.0346 396.169 85.1727C394.472 86.3066 393.091 87.9253 392.027 90.0246C390.962 92.1259 390.43 94.5685 390.43 97.3585C390.43 100.49 391.337 103.012 393.15 104.924C394.962 106.834 397.501 107.788 400.759 107.788C402.79 107.788 404.983 106.942 407.074 106.162C408.354 105.683 409.589 104.805 410.709 103.738C411.362 104.747 412.18 105.598 413.163 106.291C414.577 107.289 416.281 107.788 418.278 107.788C420.64 107.788 422.752 106.919 424.617 105.182C426.479 103.442 427.726 101.126 428.358 98.2345C429.413 98.1914 430.464 98.0803 431.505 97.9017C431.469 98.3738 431.453 98.847 431.453 99.3205L431.455 99.3185Z" fill="white"/>
<path fill-rule="evenodd" clip-rule="evenodd" d="M363.409 115.11C376.611 115.11 387.312 104.409 387.312 91.2078C387.312 78.0065 376.611 67.3047 363.409 67.3047C350.208 67.3047 339.506 78.0065 339.506 91.2078C339.506 104.409 350.208 115.11 363.409 115.11ZM362.083 98.3182C362.499 97.5414 362.707 96.6937 362.707 95.7749C362.707 95.2444 362.636 94.7281 362.494 94.2261C362.354 93.7275 362.149 93.2497 361.883 92.8052C361.615 92.3574 361.292 91.9466 360.917 91.5833C360.538 91.2135 360.113 90.8937 359.652 90.6314C359.947 90.3648 360.21 90.0643 360.434 89.7362C360.67 89.4074 360.87 89.055 361.031 88.6847C361.19 88.3134 361.314 87.9281 361.4 87.5338C361.495 87.136 361.542 86.7428 361.542 86.3545C361.542 85.5588 361.362 84.8152 361.002 84.1237C360.652 83.4228 360.164 82.8118 359.538 82.2909C358.923 81.7604 358.203 81.3436 357.379 81.0404C356.555 80.7373 355.674 80.5857 354.736 80.5857C353.808 80.5857 352.932 80.7373 352.108 81.0404C351.284 81.3436 350.564 81.7604 349.948 82.2909C349.332 82.8118 348.845 83.4228 348.484 84.1237C348.134 84.8152 347.959 85.5588 347.959 86.3545C347.959 86.7428 348.002 87.136 348.087 87.5338C348.172 87.9239 348.296 88.3047 348.456 88.6706C348.625 89.0371 348.825 89.3888 349.052 89.7219C349.29 90.0535 349.555 90.3471 349.849 90.6029C349.38 90.8643 348.95 91.1895 348.57 91.569C348.194 91.9344 347.865 92.3448 347.59 92.791C347.323 93.2362 347.12 93.7147 346.979 94.2261C346.836 94.73 346.764 95.2512 346.766 95.7749C346.766 96.6937 346.973 97.5414 347.391 98.3182C347.807 99.0949 348.375 99.7675 349.095 100.336C349.825 100.895 350.673 101.33 351.638 101.643C352.605 101.965 353.637 102.126 354.736 102.126C355.835 102.126 356.867 101.965 357.834 101.643C358.799 101.33 359.643 100.895 360.363 100.336C361.092 99.7675 361.665 99.0949 362.083 98.3182ZM357.322 85.8714C357.474 86.1556 357.55 86.4634 357.55 86.795C357.55 87.1265 357.474 87.4344 357.322 87.7185C357.18 88.0028 356.981 88.249 356.726 88.4574C356.479 88.6658 356.186 88.8315 355.844 88.9547C355.504 89.0779 355.144 89.1394 354.765 89.1394C354.376 89.1394 354.011 89.0779 353.67 88.9547C353.33 88.8315 353.032 88.6658 352.775 88.4574C352.531 88.2515 352.329 88.0007 352.179 87.7185C352.036 87.4344 351.965 87.1265 351.965 86.795C351.965 86.4634 352.036 86.1556 352.179 85.8714C352.328 85.5807 352.53 85.3204 352.775 85.1042C353.032 84.8863 353.33 84.7158 353.67 84.5926C354.011 84.4695 354.376 84.4079 354.765 84.4079C355.144 84.4079 355.504 84.4695 355.844 84.5926C356.186 84.7158 356.479 84.8863 356.726 85.1042C356.981 85.322 357.18 85.5778 357.322 85.8714ZM358.345 94.3966C358.554 94.785 358.658 95.2065 358.658 95.6612C358.658 96.1159 358.554 96.5327 358.345 96.9115C358.146 97.2904 357.867 97.6172 357.507 97.892C357.157 98.1666 356.74 98.3846 356.256 98.5455C355.782 98.6971 355.276 98.7729 354.736 98.7729C354.196 98.7729 353.69 98.6971 353.216 98.5455C352.742 98.3846 352.326 98.1666 351.965 97.892C351.615 97.6172 351.336 97.2904 351.127 96.9115C350.928 96.5327 350.829 96.1159 350.829 95.6612C350.829 95.2065 350.928 94.785 351.127 94.3966C351.336 93.9988 351.615 93.653 351.965 93.3594C352.326 93.0657 352.742 92.8336 353.216 92.6632C353.69 92.4926 354.196 92.4074 354.736 92.4074C355.276 92.4074 355.782 92.4926 356.256 92.6632C356.74 92.8336 357.157 93.0657 357.507 93.3594C357.867 93.653 358.146 93.9988 358.345 94.3966ZM378.252 97.5225H380.284V93.4588H378.252V83.2712H374.174V93.4588H368.562L370.338 81.2251H366.26L363.986 97.5225H374.174V101.6H378.252V97.5225Z" fill="white"/>
</g>
</g>
<defs>
<clipPath id="clip0_1519_1269">
<rect width="500" height="120.526" fill="white"/>
</clipPath>
</defs>
</svg>
