<svg width="411" height="114" viewBox="0 0 411 114" fill="none" xmlns="http://www.w3.org/2000/svg">
<path d="M0 85.4812L29.0295 59.7059L0 33.9504V85.4812Z" fill="#FBD30D"/>
<path d="M38.653 27.8389C30.339 27.8389 23.6521 30.4978 19.1281 35.9148V28.7517H3.43271L5.43679 30.5772L24.2474 47.225C27.2039 44.1891 31.3113 42.5223 35.5378 42.6215C44.5264 42.6215 51.372 49.0902 51.372 59.8249C51.372 70.5597 44.5661 77.0482 35.5378 77.0482C31.2319 77.1474 27.065 75.4211 24.1085 72.286L5.47648 88.8544L1.92468 91.9895V102.982L19.9218 113.261V84.2708C24.545 89.3505 30.9145 91.7712 38.6332 91.7712C56.0747 91.7712 69.627 79.2903 69.627 59.7852C69.627 40.2801 56.1144 27.8389 38.653 27.8389Z" fill="#0A0E12"/>
<path d="M95.6008 36.9863V28.7914H78.3975V90.918H96.3945V61.5711C96.3945 49.6656 102.982 44.2288 112.923 44.2288C114.312 44.2288 115.463 44.3478 116.931 44.4669V27.8389C107.407 27.8389 100.006 30.9939 95.6207 36.9863" fill="#0A0E12"/>
<path d="M154.91 27.8389C135.96 27.8389 121.753 41.2326 121.753 59.8249C121.753 78.4173 135.762 91.8308 157.212 91.8308C168.423 91.8308 177.094 88.3583 182.868 81.8302L173.284 71.4327C169.018 75.4211 164.295 77.4252 157.688 77.4252C148.223 77.4252 141.635 72.6828 139.909 64.9443H186.896C187.015 63.4362 187.233 61.4718 187.233 60.0829C187.293 40.0619 173.205 27.8191 154.91 27.8191M139.691 54.3881C140.961 46.3916 146.854 41.4508 155.049 41.4508C163.244 41.4508 169.058 46.5305 170.308 54.3881H139.691Z" fill="#0A0E12"/>
<path d="M223.961 71.0557L206.758 28.7715H188.146L214.259 90.918H232.871L259.102 28.7715H241.76L223.961 71.0557Z" fill="#0A0E12"/>
<path d="M288.727 27.8389C278.786 27.8389 268.726 30.478 261.92 35.3394L268.389 47.979C272.893 44.3875 279.719 42.2048 286.286 42.2048C295.989 42.2048 300.613 46.7091 300.613 54.4476H286.286C267.297 54.4476 259.598 62.087 259.598 73.04C259.598 83.993 268.27 91.8704 282.834 91.8704C291.961 91.8704 298.43 88.8742 301.783 83.1993V90.9379H318.649V55.4596C318.649 36.6291 307.677 27.8588 288.727 27.8588M300.633 71.2938C298.549 76.9489 293.35 79.7269 287.338 79.7269C280.989 79.7269 277.179 76.7307 277.179 72.2264C277.179 68.0595 279.838 64.9443 288.271 64.9443H300.633V71.2938Z" fill="#0A0E12"/>
<path d="M352.203 28.7715H334.186V90.918H352.203V28.7715Z" fill="#0A0E12"/>
<path d="M343.195 0C336.488 0 332.003 4.38518 332.003 10.0403C332.003 15.6954 336.508 20.0805 343.195 20.0805C349.881 20.0805 354.406 15.6954 354.406 9.6831C354.406 4.16691 349.881 0 343.195 0Z" fill="#0A0E12"/>
<path d="M386.233 5.19872H368.216V90.918H386.233V5.19872Z" fill="#0A0E12"/>
<path d="M396.432 84.1319H393.773V82.862H400.619V84.1319H397.94V90.918H396.432V84.1319Z" fill="#0A0E12"/>
<path d="M409.151 90.918L409.131 85.5804L406.492 90.0053H405.817L403.178 85.6598V90.918H401.75V82.862H402.98L406.174 88.1996L409.329 82.862H410.56V90.918H409.151Z" fill="#0A0E12"/>
</svg>
