<svg width="511" height="168" viewBox="0 0 511 168" fill="none" xmlns="http://www.w3.org/2000/svg">
<path d="M176.235 77.5562H189.91V20.2354H176.235V43.2456H156.798V20.2354H143.204V77.5562H156.798V53.6452H176.235V77.5562Z" fill="#810202"/>
<path d="M218.837 78.2113C231.447 78.2113 239.063 72.5611 240.127 63.7173H227.189C226.452 66.9928 223.832 69.1218 219.082 69.1218C213.432 69.1218 210.239 65.6826 209.829 59.6229H240.209V56.4294C240.209 42.8362 232.266 34.8112 218.755 34.8112C204.998 34.8112 196.236 43.2456 196.236 56.5112C196.236 69.8588 204.916 78.2113 218.837 78.2113ZM209.829 52.9901C210.321 47.0943 213.514 43.9007 219.001 43.9007C223.996 43.9007 226.944 47.1761 227.271 52.9901H209.829Z" fill="#810202"/>
<path d="M259.259 77.5562H266.038V68.3848H263.435C260.815 68.3848 259.341 66.9928 259.341 64.3724V18.5977H246.075V64.2905C246.075 72.8886 250.743 77.5562 259.259 77.5562Z" fill="#810202"/>
<path d="M281.217 77.5562H296.857L312.743 35.4663H299.314L289.487 68.1392H289.16L279.333 35.4663H265.33L281.217 77.5562Z" fill="#810202"/>
<path d="M336.234 78.2113C348.844 78.2113 356.46 72.5611 357.524 63.7173H344.586C343.849 66.9928 341.229 69.1218 336.479 69.1218C330.829 69.1218 327.635 65.6826 327.226 59.6229H357.606V56.4294C357.606 42.8362 349.663 34.8112 336.152 34.8112C322.395 34.8112 313.633 43.2456 313.633 56.5112C313.633 69.8588 322.313 78.2113 336.234 78.2113ZM327.226 52.9901C327.717 47.0943 330.911 43.9007 336.397 43.9007C341.392 43.9007 344.34 47.1761 344.668 52.9901H327.226Z" fill="#810202"/>
<path d="M380.914 77.5562H391.477V68.3848H385.09C382.47 68.3848 380.996 66.9928 380.996 64.3724V44.6377H391.559V35.4663H380.996V23.0195H368.385V32.3546C368.385 34.3199 367.239 35.4663 365.273 35.4663H360.196V44.6377H367.73V64.2905C367.73 72.8886 372.397 77.5562 380.914 77.5562Z" fill="#810202"/>
<path d="M397.819 77.5562H411.085V35.4663H397.819V77.5562ZM396.919 22.7739C396.919 27.1139 400.03 29.9799 404.534 29.9799C409.038 29.9799 412.15 27.1139 412.15 22.7739C412.15 18.4339 409.038 15.486 404.534 15.486C400.03 15.486 396.919 18.4339 396.919 22.7739Z" fill="#810202"/>
<path d="M439.678 78.2113C452.125 78.2113 459.904 71.8241 460.887 61.4245H447.949C447.048 66.5014 444.428 68.7943 439.678 68.7943C433.864 68.7943 430.507 64.5362 430.507 56.5112C430.507 48.6501 433.782 44.2282 439.678 44.2282C444.346 44.2282 446.802 46.4392 447.458 51.598H460.396C459.577 41.1984 451.879 34.8112 439.678 34.8112C426.003 34.8112 416.996 43.4094 416.996 56.5112C416.996 69.8588 425.676 78.2113 439.678 78.2113Z" fill="#810202"/>
<path d="M143.204 151.996H156.798V131.361H165.969C171.455 131.361 172.765 132.753 173.748 139.549L173.912 141.023C174.813 146.264 175.386 149.457 176.041 151.996H189.716C188.897 149.212 187.751 144.381 187.096 139.795L186.85 138.321C185.704 130.624 183.902 128.085 178.907 126.529V126.12C185.294 124.073 188.897 118.75 188.897 111.462C188.897 100.489 181.773 94.6752 168.344 94.6752H143.204V151.996ZM156.798 121.288V105.157H165.805C172.11 105.157 175.14 107.695 175.14 113.182C175.14 118.668 172.11 121.288 165.805 121.288H156.798Z" fill="#810202"/>
<path d="M215.344 152.651C229.347 152.651 235.734 146.428 235.734 133.162V109.906H222.468V135.537C222.468 140.614 220.012 143.234 215.344 143.234C210.84 143.234 208.302 140.532 208.302 135.537V109.906H195.036V133.162C195.036 146.51 201.423 152.651 215.344 152.651Z" fill="#810202"/>
<path d="M269.769 152.651C280.66 152.651 287.374 144.381 287.374 130.951C287.374 117.358 280.823 109.333 269.769 109.333C264.446 109.333 259.615 111.79 256.912 115.884H256.503V93.0375H243.237V151.996H255.93V146.1H256.257C258.796 150.113 263.955 152.651 269.769 152.651ZM256.012 130.951C256.012 123.336 259.205 118.996 264.774 118.996C270.506 118.996 273.781 123.336 273.781 130.951C273.781 138.648 270.506 142.907 264.774 142.907C259.205 142.907 256.012 138.648 256.012 130.951Z" fill="#810202"/>
<path d="M299.094 167.554H312.359L335.615 109.906H322.186L312.359 139.795H312.032L302.124 109.906H288.203L305.317 151.996L299.094 167.554Z" fill="#810202"/>
<path d="M44.7596 0L2.98397 59.5374L0 138.684L31.8291 167.529L78.8622 159.856L106.855 131.011V52.5748L68.4893 14.2094L44.7596 0Z" fill="#FF1D1D"/>
<path fill-rule="evenodd" clip-rule="evenodd" d="M44.3333 143.373L45.8964 123.764L78.8622 159.856L31.8291 167.529L44.3333 143.373Z" fill="#B90000"/>
<path fill-rule="evenodd" clip-rule="evenodd" d="M0 138.684L2.98397 59.5374L47.7436 86.8194L45.8964 123.764L44.3333 143.373L31.8291 167.529L0 138.684Z" fill="#FF1D1D"/>
<path fill-rule="evenodd" clip-rule="evenodd" d="M66.1132 52.5748L47.7436 86.8194L45.8964 123.764L78.8622 159.856L106.855 131.011L66.1132 52.5748Z" fill="#CF0000"/>
<path fill-rule="evenodd" clip-rule="evenodd" d="M68.4893 14.2094L70.7628 43.9071L66.1132 52.5748L106.855 131.011V52.5748L68.4893 14.2094Z" fill="#FF3232"/>
<path fill-rule="evenodd" clip-rule="evenodd" d="M2.98397 59.5374L44.7596 0L68.4893 14.2094L70.7628 43.9071L66.1132 52.5748L47.7436 86.8194L2.98397 59.5374Z" fill="#FF6363"/>
<path d="M62.203 66.216H44.6272V84.426H26.4172V102.002H44.6272V120.212H62.203V102.002H80.413V84.426H62.203V66.216Z" fill="#F5F5F5"/>
</svg>
