<?xml version="1.0" standalone="no"?>
<!DOCTYPE svg PUBLIC "-//W3C//DTD SVG 20010904//EN"
 "http://www.w3.org/TR/2001/REC-SVG-20010904/DTD/svg10.dtd">
<svg version="1.0" xmlns="http://www.w3.org/2000/svg"
 width="1686.000000pt" height="1686.000000pt" viewBox="0 0 1686.000000 1686.000000"
 preserveAspectRatio="xMidYMid meet">

<g transform="translate(0.000000,1686.000000) scale(0.100000,-0.100000)"
fill="#CC3822" stroke="none">
<path d="M8155 16794 c-333 -14 -626 -40 -905 -80 -2227 -315 -4225 -1519
-5560 -3349 -860 -1181 -1401 -2595 -1544 -4045 -55 -554 -55 -1136 0 -1690
139 -1406 654 -2787 1470 -3940 1394 -1972 3532 -3233 5914 -3489 320 -34 524
-45 895 -45 665 0 1232 63 1855 205 2425 552 4493 2181 5600 4414 497 1002
765 2000 852 3170 26 351 14 960 -28 1375 -226 2279 -1407 4384 -3244 5782
-1299 988 -2851 1568 -4488 1678 -164 11 -684 20 -817 14z m2755 -1385 c155
-46 182 -61 244 -130 77 -85 110 -216 86 -334 -9 -43 -104 -242 -337 -708
-346 -694 -366 -727 -458 -768 l-40 -18 -129 -341 c-113 -300 -132 -343 -156
-355 -18 -9 -78 -17 -161 -21 -132 -6 -134 -6 -155 17 -12 13 -24 33 -27 44
-4 12 47 165 132 400 l138 379 -20 45 c-37 83 -27 132 177 886 102 380 197
713 211 742 29 61 82 124 132 154 101 62 178 64 363 8z m-1835 -2060 c330 -14
595 -37 622 -55 35 -22 39 -60 15 -130 -68 -195 -61 -191 -311 -170 -352 30
-671 39 -1141 33 -250 -4 -520 -11 -600 -17 -652 -46 -1084 -123 -1250 -222
-68 -41 -84 -75 -53 -116 24 -33 60 -43 281 -77 1061 -166 2655 -161 3667 11
157 27 189 39 207 80 15 32 -3 65 -52 98 -39 26 -70 78 -70 118 0 36 73 179
108 212 45 42 100 45 209 11 183 -57 322 -142 338 -208 11 -44 -1 -69 -75
-153 -147 -166 -226 -298 -358 -595 -167 -374 -291 -781 -357 -1172 -101 -599
-95 -1175 15 -1602 68 -260 157 -479 361 -887 209 -418 256 -573 266 -890 6
-202 -5 -316 -47 -485 -76 -300 -230 -571 -455 -799 l-110 -111 60 35 c222
131 395 260 588 440 37 35 93 76 125 90 l57 27 430 -3 c780 -4 1656 -29 1863
-52 140 -16 218 -65 272 -172 53 -107 37 -222 -41 -294 -38 -36 -523 -273
-779 -382 -1030 -438 -2056 -738 -2905 -850 -66 -9 -67 -9 -20 -10 28 0 285
12 573 26 287 15 529 24 537 19 30 -16 15 -47 -49 -99 -264 -218 -769 -388
-1411 -475 -117 -16 -229 -18 -1155 -18 -926 0 -1038 2 -1155 18 -642 87
-1147 257 -1411 475 -64 52 -79 83 -49 99 8 5 250 -4 537 -19 288 -14 555 -26
593 -26 l70 0 -118 19 c-710 112 -1840 450 -2987 892 -245 94 -652 293 -697
339 -72 74 -84 183 -33 286 54 107 132 156 272 172 207 23 1083 48 1863 52
l430 3 57 -27 c32 -14 88 -55 125 -90 195 -181 371 -313 592 -442 l65 -38 -77
72 c-237 222 -414 517 -496 832 -41 157 -52 241 -52 403 0 324 74 571 318
1058 232 465 341 834 384 1300 15 166 6 656 -15 837 -70 586 -224 1106 -486
1635 -91 183 -158 283 -279 419 -34 38 -64 80 -67 93 -32 125 207 247 661 338
667 134 1618 187 2600 144z m1870 -9914 c44 -43 31 -112 -25 -135 -35 -15 -84
0 -100 31 -30 55 10 129 70 129 19 0 40 -9 55 -25z m-2201 -15 c41 -40 15
-110 -46 -125 -22 -6 -33 -1 -58 23 -34 34 -37 57 -14 90 31 44 79 49 118 12z
m179 -2 c36 -42 16 -105 -39 -122 -56 -17 -111 52 -83 103 29 52 86 61 122 19z
m-4147 -187 c57 -26 101 -83 114 -148 20 -93 -4 -174 -66 -229 l-35 -30 70
-131 c39 -71 71 -133 71 -137 0 -4 -37 -6 -82 -4 l-82 3 -65 122 -66 122 -57
1 -58 0 0 -125 0 -125 -75 0 -75 0 0 350 0 350 183 0 c155 0 188 -3 223 -19z
m484 -186 c0 -244 8 -292 56 -335 30 -26 42 -30 92 -30 69 0 99 14 129 59 22
33 23 41 23 272 l0 239 76 0 75 0 -3 -257 -3 -258 -29 -53 c-52 -92 -130 -134
-256 -135 -41 0 -94 5 -117 12 -61 17 -123 69 -152 126 -26 49 -26 53 -29 307
l-3 258 71 0 70 0 0 -205z m1086 180 c57 -29 79 -56 95 -117 15 -54 6 -105
-26 -152 l-24 -35 34 -34 c71 -71 68 -205 -7 -273 -59 -54 -79 -59 -288 -59
l-195 0 -3 335 c-1 184 0 341 3 347 3 10 49 13 183 13 170 0 180 -1 228 -25z
m510 -116 l82 -140 82 141 82 140 84 0 c46 0 84 -2 84 -5 0 -3 -58 -100 -130
-216 l-130 -211 0 -135 0 -134 -72 3 -73 3 -3 138 -3 138 -91 147 c-50 81
-108 175 -129 210 l-39 62 88 0 87 -1 81 -140z m1454 76 l0 -65 -115 0 -115 0
-2 -282 -3 -283 -72 -3 -73 -3 0 286 0 285 -120 0 -120 0 0 65 0 65 310 0 310
0 0 -65z m320 -165 c0 -245 5 -275 49 -315 31 -27 136 -33 179 -11 62 32 67
55 70 319 l4 237 75 0 75 0 -4 -247 c-3 -224 -6 -252 -24 -293 -31 -67 -68
-106 -131 -136 -96 -47 -244 -37 -332 22 -41 28 -87 93 -101 143 -5 20 -10
143 -10 274 l0 237 75 0 75 0 0 -230z m1102 195 c60 -42 88 -101 88 -187 0
-83 -15 -121 -65 -170 l-38 -36 72 -132 c39 -72 71 -133 71 -136 0 -3 -37 -4
-82 -2 l-83 3 -66 120 -66 120 -56 3 -56 3 -3 -123 -3 -123 -72 -3 -73 -3 0
351 0 352 194 -4 194 -3 44 -30z m470 -101 l3 -135 110 135 110 135 93 1 c50
0 92 -2 92 -5 0 -3 -52 -67 -115 -142 l-115 -136 22 -36 c12 -20 69 -107 126
-194 56 -87 105 -164 109 -172 4 -13 -9 -15 -79 -15 l-84 0 -95 145 c-52 80
-97 145 -100 145 -3 0 -21 -19 -40 -42 -32 -41 -34 -47 -39 -143 l-5 -100 -72
-3 -73 -3 0 351 0 350 75 0 74 0 3 -136z m758 -214 l0 -350 -75 0 -75 0 0 350
0 350 75 0 75 0 0 -350z m423 210 l83 -139 83 139 82 140 84 0 c47 0 85 -2 85
-4 0 -2 -58 -99 -130 -214 l-130 -210 0 -136 0 -137 -72 3 -73 3 -5 140 -5
140 -114 185 c-63 102 -121 195 -129 208 l-14 22 85 0 86 0 84 -140z m1037 75
l0 -65 -150 0 -150 0 0 -70 0 -70 130 0 130 0 0 -65 0 -65 -130 0 -130 0 0
-80 0 -80 150 0 150 0 0 -70 0 -70 -222 2 -223 3 -3 348 -2 347 225 0 225 0 0
-65z"/>
<path d="M7463 9562 c-17 -9 -40 -28 -51 -42 -56 -73 -436 -677 -444 -706 -22
-80 -39 -60 693 -823 426 -444 693 -714 712 -722 44 -18 100 -15 137 7 17 11
332 342 701 738 717 770 702 752 680 831 -11 40 -408 660 -443 692 -13 11 -33
26 -45 32 -16 8 -285 11 -965 11 -870 -1 -945 -2 -975 -18z m727 -177 c6 -8
10 -19 8 -25 -1 -5 -77 -87 -167 -181 -124 -129 -169 -169 -185 -167 -29 4
-180 342 -165 370 9 17 29 18 253 18 202 0 246 -3 256 -15z m994 9 c9 -3 16
-15 16 -25 0 -32 -141 -337 -158 -344 -13 -5 -58 36 -179 161 -90 92 -163 173
-163 179 0 31 25 35 246 35 122 0 229 -3 238 -6z m-554 -241 c122 -127 170
-184 168 -198 -3 -20 -10 -20 -348 -20 -398 0 -387 -3 -304 88 86 95 297 307
305 307 4 0 84 -80 179 -177z m883 -48 c52 -77 86 -138 85 -150 -3 -19 -12
-20 -166 -23 -141 -2 -163 0 -169 13 -5 15 12 58 91 238 39 86 52 80 159 -78z
m-1951 -12 c33 -74 55 -138 52 -147 -5 -14 -29 -16 -164 -16 -202 0 -200 -3
-94 152 98 143 104 150 128 146 15 -2 34 -36 78 -135z m166 -385 c21 -27 383
-831 380 -847 -2 -10 -13 -16 -29 -16 -21 0 -98 75 -415 408 -214 225 -390
415 -392 423 -9 40 12 44 233 44 158 0 215 -3 223 -12z m1162 -3 c7 -8 10 -23
8 -32 -15 -54 -434 -986 -446 -991 -8 -3 -22 -1 -30 4 -19 12 -442 970 -442
1000 0 12 6 25 13 27 6 3 208 6 448 6 376 1 438 -1 449 -14z m664 9 c42 -16
12 -54 -355 -452 -294 -320 -375 -403 -392 -400 -12 2 -23 11 -25 21 -4 19
340 789 366 820 13 15 36 17 203 17 103 0 194 -3 203 -6z"/>
<path d="M7043 5043 c9 -2 23 -2 30 0 6 3 -1 5 -18 5 -16 0 -22 -2 -12 -5z"/>
<path d="M4520 3030 l0 -90 88 0 c96 1 118 10 131 57 12 43 3 80 -27 103 -20
16 -40 20 -108 20 l-84 0 0 -90z"/>
<path d="M6082 3048 l3 -73 87 0 c102 1 122 12 122 71 0 58 -28 74 -131 74
l-84 0 3 -72z"/>
<path d="M6080 2771 l0 -81 98 0 c121 0 142 11 142 74 0 68 -21 80 -141 84
l-99 4 0 -81z"/>
<path d="M9450 3030 l0 -90 89 0 c85 0 91 1 110 26 30 38 28 98 -4 129 -22 23
-32 25 -110 25 l-85 0 0 -90z"/>
</g>
</svg>
