<svg width="64" height="64" viewBox="0 0 64 64" fill="none" xmlns="http://www.w3.org/2000/svg">
<g id="fi_1400829" clip-path="url(#clip0_499_301)">
<path id="Vector" d="M37.5783 31.8419C37.5783 34.933 35.0722 37.4391 31.981 37.4391C28.8899 37.4391 26.3838 34.933 26.3838 31.8419C26.3838 28.7508 28.8899 26.2446 31.981 26.2446C35.0722 26.2446 37.5783 28.7508 37.5783 31.8419Z" fill="#B71B1C"/>
<path id="Vector_2" d="M41.4347 14.926H22.5284C18.4131 14.926 15.0654 18.2737 15.0654 22.389V41.2953C15.0654 45.4106 18.4131 48.7583 22.5284 48.7583H41.4347C45.55 48.7583 48.8977 45.4106 48.8977 41.2953V22.389C48.8977 18.2737 45.55 14.926 41.4347 14.926ZM31.9815 41.1709C26.8376 41.1709 22.6528 36.9861 22.6528 31.8421C22.6528 26.6982 26.8376 22.5134 31.9815 22.5134C37.1255 22.5134 41.3103 26.6982 41.3103 31.8421C41.3103 36.9861 37.1255 41.1709 31.9815 41.1709ZM42.6785 23.0109C41.648 23.0109 40.8128 22.1757 40.8128 21.1452C40.8128 20.1147 41.648 19.2794 42.6785 19.2794C43.709 19.2794 44.5443 20.1147 44.5443 21.1452C44.5443 22.1757 43.709 23.0109 42.6785 23.0109Z" fill="#B71B1C"/>
<path id="Vector_3" d="M47.0311 0H16.9304C7.67163 0 0.138672 7.53296 0.138672 16.7917V46.8925C0.138672 56.1512 7.67163 63.6842 16.9304 63.6842H47.0311C56.2899 63.6842 63.8229 56.1512 63.8229 46.8925V16.7917C63.8229 7.53296 56.2899 0 47.0311 0ZM52.6284 41.2952C52.6284 47.4677 47.6064 52.4897 41.4339 52.4897H22.5277C16.3551 52.4897 11.3332 47.4677 11.3332 41.2952V22.389C11.3332 16.2165 16.3551 11.1945 22.5277 11.1945H41.4339C47.6064 11.1945 52.6284 16.2165 52.6284 22.389V41.2952Z" fill="#B71B1C"/>
</g>
<defs>
<clipPath id="clip0_499_301">
<rect width="63.6842" height="63.6842" fill="white" transform="translate(0.138672)"/>
</clipPath>
</defs>
</svg>
