<svg width="64" height="64" viewBox="0 0 64 64" fill="none" xmlns="http://www.w3.org/2000/svg">
<g id="fi_3536569" clip-path="url(#clip0_499_305)">
<g id="Layer 2">
<g id="linkedin">
<path id="icon" d="M55.2773 0H8.96155C6.65836 0 4.4495 0.914941 2.82089 2.54355C1.19228 4.17215 0.277344 6.38101 0.277344 8.68421L0.277344 55C0.277344 57.3032 1.19228 59.5121 2.82089 61.1407C4.4495 62.7693 6.65836 63.6842 8.96155 63.6842H55.2773C57.5805 63.6842 59.7894 62.7693 61.418 61.1407C63.0466 59.5121 63.9616 57.3032 63.9616 55V8.68421C63.9616 6.38101 63.0466 4.17215 61.418 2.54355C59.7894 0.914941 57.5805 0 55.2773 0ZM21.9879 50.3974C21.9883 50.574 21.954 50.7489 21.8867 50.9122C21.8195 51.0755 21.7207 51.2239 21.596 51.349C21.4713 51.474 21.3231 51.5732 21.16 51.6409C20.9969 51.7086 20.822 51.7434 20.6454 51.7434H14.9247C14.7478 51.7439 14.5726 51.7094 14.409 51.6419C14.2455 51.5745 14.0969 51.4753 13.9718 51.3502C13.8468 51.2251 13.7476 51.0766 13.6801 50.913C13.6127 50.7495 13.5782 50.5743 13.5787 50.3974V26.4145C13.5787 26.0575 13.7205 25.7151 13.9729 25.4627C14.2253 25.2102 14.5677 25.0684 14.9247 25.0684H20.6454C21.0018 25.0694 21.3432 25.2116 21.5949 25.4639C21.8466 25.7163 21.9879 26.0581 21.9879 26.4145V50.3974ZM17.7833 22.7961C16.7098 22.7961 15.6604 22.4777 14.7678 21.8813C13.8753 21.2849 13.1796 20.4373 12.7688 19.4455C12.358 18.4537 12.2505 17.3624 12.4599 16.3095C12.6693 15.2567 13.1863 14.2896 13.9453 13.5305C14.7044 12.7714 15.6715 12.2545 16.7244 12.0451C17.7772 11.8357 18.8686 11.9431 19.8603 12.3539C20.8521 12.7647 21.6998 13.4604 22.2962 14.353C22.8926 15.2456 23.2109 16.2949 23.2109 17.3684C23.2109 18.8079 22.6391 20.1885 21.6212 21.2063C20.6033 22.2242 19.2228 22.7961 17.7833 22.7961ZM51.8905 50.4914C51.891 50.6541 51.8593 50.8152 51.7973 50.9656C51.7353 51.1159 51.6441 51.2525 51.5291 51.3676C51.4141 51.4826 51.2775 51.5737 51.1271 51.6357C50.9768 51.6977 50.8156 51.7294 50.653 51.7289H44.5017C44.339 51.7294 44.1779 51.6977 44.0275 51.6357C43.8772 51.5737 43.7406 51.4826 43.6256 51.3676C43.5106 51.2525 43.4194 51.1159 43.3574 50.9656C43.2954 50.8152 43.2637 50.6541 43.2642 50.4914V39.2562C43.2642 37.5773 43.7563 31.9036 38.875 31.9036C35.0938 31.9036 34.3231 35.7862 34.1711 37.5303V50.5059C34.1711 50.831 34.0432 51.1431 33.8151 51.3746C33.5869 51.6062 33.2767 51.7387 32.9517 51.7434H27.0102C26.8479 51.7434 26.6872 51.7114 26.5372 51.6492C26.3873 51.5869 26.2511 51.4957 26.1365 51.3807C26.0218 51.2658 25.931 51.1293 25.8692 50.9792C25.8074 50.8291 25.7759 50.6683 25.7764 50.5059V26.3095C25.7759 26.1472 25.8074 25.9864 25.8692 25.8362C25.931 25.6861 26.0218 25.5497 26.1365 25.4347C26.2511 25.3198 26.3873 25.2285 26.5372 25.1663C26.6872 25.1041 26.8479 25.072 27.0102 25.072H32.9517C33.2799 25.072 33.5947 25.2024 33.8267 25.4345C34.0588 25.6666 34.1892 25.9813 34.1892 26.3095V28.401C35.5931 26.2914 37.6737 24.6704 42.1135 24.6704C51.9484 24.6704 51.8833 33.8539 51.8833 38.898L51.8905 50.4914Z" fill="#B71B1C"/>
</g>
</g>
</g>
<defs>
<clipPath id="clip0_499_305">
<rect width="63.6842" height="63.6842" fill="white" transform="translate(0.277344)"/>
</clipPath>
</defs>
</svg>
