<svg width="60" height="61" viewBox="0 0 60 61" fill="none" xmlns="http://www.w3.org/2000/svg">
<path d="M37.5768 59.8852C32.9121 60.143 28.2475 59.9149 23.5829 60.0091C22.6242 60.029 22.4652 59.5628 22.4851 58.7644C22.5198 57.1428 22.5099 55.5212 22.49 53.9046C22.4751 52.3425 22.4602 52.3127 20.9401 52.3078C17.3535 52.2879 13.7669 52.3028 10.1802 52.3028C9.77287 52.3028 9.37049 52.3127 8.96314 52.3028C7.50762 52.2681 7.49272 52.2681 7.47285 50.8746C7.45298 49.3919 7.47285 47.9042 7.47285 46.4164C7.47285 43.9171 7.48279 41.4178 7.47285 38.9234C7.46292 37.5398 7.44305 37.5249 5.99746 37.51C4.44259 37.4952 2.88275 37.4654 1.32788 37.52C0.413831 37.5547 -0.00841864 37.3514 0.00648429 36.31C0.0561607 32.0551 0.0511931 27.8003 0.00648429 23.5504C-0.003451 22.5536 0.37409 22.2561 1.31794 22.2908C2.87281 22.3454 4.42769 22.3255 5.98753 22.3007C7.42814 22.2759 7.45795 22.2561 7.46788 20.8378C7.48775 17.3268 7.47285 13.8158 7.47285 10.3048C7.47285 9.89821 7.47285 9.49653 7.47285 9.08989C7.49272 7.55259 7.49769 7.53275 8.98301 7.5278C12.5001 7.51788 16.0172 7.5278 19.5393 7.5278C20.0112 7.5278 20.4881 7.5278 20.96 7.5278C22.4453 7.54267 22.5248 7.62698 22.5049 5.9657C22.4851 4.3441 22.5248 2.7225 22.49 1.10586C22.4751 0.327295 22.7285 0 23.5332 0C27.9296 0.0247951 32.3309 0.0148771 36.7273 0.00495902C37.4228 0.00495902 37.6761 0.307459 37.6662 0.981886C37.6413 2.66795 37.6463 4.35898 37.6662 6.04505C37.6811 7.46829 37.696 7.49804 39.0969 7.503C42.6835 7.51788 46.2701 7.50796 49.8568 7.50796C50.2641 7.50796 50.6665 7.503 51.0738 7.50796C52.5145 7.53771 52.5393 7.53771 52.5492 8.92624C52.5641 11.6934 52.5492 14.4655 52.5492 17.2326C52.5492 18.517 52.6138 19.8014 52.5294 21.0808C52.4598 22.1172 52.9168 22.3354 53.8359 22.3057C55.4603 22.2511 57.0847 22.3354 58.7041 22.2759C59.653 22.2412 60.0206 22.5288 60.0057 23.5256C59.9411 28.1821 59.9361 32.8386 59.9113 37.4952C57.959 37.4952 56.0018 37.4902 54.0495 37.5051C52.4449 37.52 52.4201 37.5299 52.4151 39.211C52.4002 42.9104 52.4201 46.6099 52.4052 50.3043C52.4002 52.1788 52.3754 52.1987 50.4877 52.2036C46.7818 52.2185 43.0759 52.1987 39.3701 52.2135C37.6364 52.2185 37.6314 52.2433 37.6165 54.0285C37.5966 55.9774 37.5917 57.9263 37.5768 59.8752V59.8852ZM37.6562 29.7988C37.6562 27.711 37.6413 25.6233 37.6662 23.5355C37.6761 22.757 37.5718 22.2858 36.5832 22.2958C32.2614 22.3404 27.9445 22.3354 23.6227 22.2958C22.7235 22.2908 22.4801 22.6379 22.4851 23.476C22.5149 27.7854 22.5049 32.0998 22.49 36.4091C22.49 37.1084 22.5894 37.52 23.4687 37.51C27.8551 37.4704 32.2465 37.4753 36.6329 37.51C37.4426 37.515 37.6811 37.2373 37.6662 36.4587C37.6314 34.2371 37.6513 32.0105 37.6513 29.7888L37.6562 29.7988Z" fill="#DB2026"/>
<rect x="17.885" y="17.8525" width="23.8447" height="25.291" fill="#DB2026"/>
<g clip-path="url(#clip0_1416_72)">
<path d="M19.1799 15.7783C17.2866 15.7783 15.7542 17.3943 15.7539 19.3827C15.7539 21.373 17.2863 22.9886 19.1802 22.9886C21.0688 22.9886 22.6034 21.373 22.6034 19.3827C22.6034 17.394 21.0685 15.7783 19.1799 15.7783Z" fill="white"/>
<path d="M16.2251 25.7236H22.1327V45.7312H16.2251V25.7236Z" fill="white"/>
<path d="M37.1721 25.2263C34.2983 25.2263 32.3714 26.8849 31.5827 28.4576H31.5037V25.7238H25.8377H25.8374V45.731H31.7398V35.8333C31.7398 33.224 32.2118 30.6965 35.2852 30.6965C38.3146 30.6965 38.355 33.6809 38.355 36.0007V45.7307H44.2583V34.7568C44.2583 29.3701 43.1541 25.2263 37.1721 25.2263Z" fill="white"/>
</g>
<defs>
<clipPath id="clip0_1416_72">
<rect width="28.5043" height="30.0046" fill="white" transform="translate(15.7539 15.7524)"/>
</clipPath>
</defs>
</svg>
