<svg width="480" height="456" viewBox="0 0 480 456" fill="none" xmlns="http://www.w3.org/2000/svg">
<path d="M156.163 372.554L323.507 372.554L361.479 433.678L119.087 435.18L156.163 372.554Z" fill="url(#paint0_linear_875_1122)"/>
<path d="M72.7109 228.078L156.157 372.554L119.086 435.18L0.22037 227.778L72.7109 228.078Z" fill="url(#paint1_linear_875_1122)"/>
<path d="M156.006 83.4548L72.7106 228.082L0.220777 227.782L118.938 22.027L156.006 83.4548Z" fill="url(#paint2_linear_875_1122)"/>
<path d="M323.502 83.4521L156.159 83.4521L119.088 22.0512L360.423 21.727L323.502 83.4521Z" fill="url(#paint3_linear_875_1122)"/>
<path d="M406.349 228.078L322.902 83.4517L360.423 21.7265L479.44 229.429L406.349 228.078Z" fill="url(#paint4_linear_875_1122)"/>
<path d="M323.051 372.406L406.348 228.078L479.405 229.362L361.474 433.679L323.051 372.406Z" fill="url(#paint5_linear_875_1122)"/>
<path d="M322.97 83.4538L406.369 228L322.97 372.546L156.172 372.546L72.773 228L156.172 83.4538L322.97 83.4538Z" fill="url(#paint6_linear_875_1122)"/>
<path d="M360.463 208.146L261.426 139.854C259.929 138.691 258.456 137.489 257.036 136.333C253.232 133.23 238.254 116.069 234.321 113.892C220.101 106.035 203.2 106.919 191.36 117.47C187.05 121.309 184.098 126.844 181.781 131.749L170.471 126.389C173.329 120.345 177.059 113.445 183.041 108.114C190.749 101.241 201.089 96.8462 212.158 95.7317C223.081 94.6312 234.081 96.7799 243.126 101.779C248.043 104.498 252.244 107.925 256.306 111.237C257.734 112.404 259.084 113.504 260.466 114.577L368.14 198.252L360.466 208.15L360.463 208.146Z" fill="white"/>
<path d="M369.647 199.327C369.762 202.13 369.622 207.819 366.642 214.105C363.578 220.566 359.097 224.323 356.828 225.986C348.11 221.129 337.923 220.007 330.807 224.421C319.964 231.151 316.052 250.877 327.942 267.36C324.41 266.392 311.627 262.426 302.682 249.49C294.471 237.612 294.544 225.473 294.725 221.604C287.404 222.115 277.143 224.281 269.232 231.846C254.309 246.121 252.874 274.709 268.74 300.532C245.378 296.86 188.845 284.587 164.238 239.527C162.266 235.917 160.458 232.025 158.885 227.817C167.864 212.208 176.844 196.598 185.823 180.989C181.342 180.293 172.055 178.225 162.94 171.093C155.094 164.953 150.969 157.877 149.019 153.893C165.843 154.707 188.779 154.096 215.138 148.187C240.503 142.498 260.856 133.738 275.465 126.116C291.162 138.319 306.86 150.521 322.554 162.724C338.251 174.926 353.949 187.129 369.643 199.331L369.647 199.327Z" fill="white"/>
<path d="M344.581 328.232C340.528 327.933 345.462 328.447 341.707 328.232C339.202 328.09 338.919 328.347 336.536 328.232C315.704 327.243 323.41 327.922 308.715 326.96C307.876 326.906 307.044 326.845 306.213 326.783C299.153 326.254 292.434 325.465 285.734 324.161C267.66 320.654 252.099 316.406 238.722 311.806C236.81 311.151 234.945 310.484 233.121 309.813C230.838 308.974 228.632 308.123 226.483 307.268C225.203 306.758 223.939 306.244 222.705 305.731C221.882 305.386 221.066 305.041 220.261 304.692C217.848 303.653 215.526 302.607 213.297 301.556C186.995 289.178 173.208 276.367 166.772 269.452C166.339 268.988 165.941 268.551 165.577 268.145C165.481 268.041 165.393 267.938 165.301 267.838C165.056 267.562 164.822 267.298 164.607 267.052C164.435 266.857 164.27 266.665 164.102 266.47C163.519 265.795 162.96 265.136 162.431 264.488C161.976 263.932 161.539 263.388 161.118 262.851C155.425 255.606 152.717 249.825 149.464 241.883C142.159 252.731 122.501 280.607 127.566 324.161C137.717 341.549 143.08 348.066 151.891 365.124C152.385 365.783 155.783 371.752 156.297 372.407C166.065 372.407 157.637 372.407 174.876 372.407C185.151 372.407 189.625 372.407 200.734 372.407C207.438 372.407 211.843 372.662 242.107 372.407C245.937 372.375 224.483 372.407 257.621 372.407C262.793 372.407 266.429 372.407 271.604 372.407C275.052 372.407 276.967 372.407 281.947 372.407C288.076 372.407 286.735 372.407 293.248 372.407C308.954 372.407 278.308 372.791 310.295 372.407H323.128C323.128 372.407 344.197 334.578 348.22 328.232H344.581Z" fill="white"/>
<defs>
<linearGradient id="paint0_linear_875_1122" x1="122.768" y1="437.321" x2="336.332" y2="367.974" gradientUnits="userSpaceOnUse">
<stop stop-color="#E71421"/>
<stop offset="1" stop-color="#820C02"/>
</linearGradient>
<linearGradient id="paint1_linear_875_1122" x1="-0.0798019" y1="232.133" x2="163.16" y2="382.509" gradientUnits="userSpaceOnUse">
<stop stop-color="#E71421"/>
<stop offset="1" stop-color="#820C02"/>
</linearGradient>
<linearGradient id="paint2_linear_875_1122" x1="114.51" y1="23.6424" x2="66.6433" y2="239.198" gradientUnits="userSpaceOnUse">
<stop stop-color="#E71421"/>
<stop offset="1" stop-color="#820C02"/>
</linearGradient>
<linearGradient id="paint3_linear_875_1122" x1="356.763" y1="19.6073" x2="144.359" y2="88.7376" gradientUnits="userSpaceOnUse">
<stop stop-color="#E71421"/>
<stop offset="1" stop-color="#820C02"/>
</linearGradient>
<linearGradient id="paint4_linear_875_1122" x1="480.074" y1="224.881" x2="316.609" y2="74.0407" gradientUnits="userSpaceOnUse">
<stop stop-color="#E71421"/>
<stop offset="1" stop-color="#820C02"/>
</linearGradient>
<linearGradient id="paint5_linear_875_1122" x1="365.631" y1="431.932" x2="414.12" y2="217.888" gradientUnits="userSpaceOnUse">
<stop stop-color="#E71421"/>
<stop offset="1" stop-color="#820C02"/>
</linearGradient>
<linearGradient id="paint6_linear_875_1122" x1="10.3744" y1="301.551" x2="303.134" y2="439.482" gradientUnits="userSpaceOnUse">
<stop stop-color="#E71421"/>
<stop offset="1" stop-color="#820C02"/>
</linearGradient>
</defs>
</svg>
