<svg width="166" height="41" viewBox="0 0 166 41" fill="none" xmlns="http://www.w3.org/2000/svg">
<path d="M12.3552 26.0391L23.1001 31.6245L23.3028 36.4602L7.64904 28.4222L12.3552 26.0391Z" fill="#941518"/>
<path d="M12.3379 14.877L12.3561 26.0389L7.64904 28.4222L7.68415 12.4298L12.3379 14.877Z" fill="#941518"/>
<path d="M23.0661 9.30072L12.3379 14.877L7.68415 12.4298L22.9555 4.50316L23.0661 9.30072Z" fill="#941518"/>
<path d="M33.7963 14.89L23.0661 9.30072L22.9555 4.50316L38.4977 12.5739L33.7963 14.89Z" fill="#941518"/>
<path d="M33.8077 26.0605L33.7963 14.89L38.4977 12.5739L38.4614 28.5837L33.8077 26.0605Z" fill="#941518"/>
<path d="M23.1001 31.6245L33.8077 26.0605L38.4614 28.5837L23.3025 36.46L23.1001 31.6245Z" fill="#941518"/>
<path d="M33.8005 14.8923L33.8077 26.0605L23.1001 31.6245L12.3561 26.0389L12.3447 14.8746L23.067 9.30128L33.8005 14.8923Z" fill="#C62828"/>
<path d="M31.5934 23.3684L27.7505 16.0948C27.6973 15.9772 27.7371 15.9739 27.6885 15.8593C27.5587 15.5522 27.1407 13.941 26.9682 13.6831C26.3442 12.7515 25.2239 12.2362 24.0711 12.4502C23.6515 12.528 23.2564 12.7495 22.9256 12.9558L22.3964 12.2664C22.8042 12.0123 23.2999 11.7378 23.8824 11.6296C24.633 11.4901 25.4613 11.5823 26.2149 11.8888C26.9585 12.1912 27.5867 12.6843 27.9836 13.2769C28.1993 13.5991 28.3427 13.9384 28.4814 14.2663C28.53 14.3817 28.5761 14.4907 28.6253 14.5991L32.454 23.0529L31.5935 23.3687L31.5934 23.3684Z" fill="white"/>
<path d="M32.5111 23.1657C32.4147 23.3318 32.1949 23.6565 31.7702 23.9206C31.3336 24.1919 30.9061 24.2592 30.6985 24.2795C30.3175 23.7061 29.7035 23.2996 29.082 23.3166C28.1349 23.3428 27.1523 24.3538 27.3068 25.7067C27.1153 25.5322 26.4397 24.8741 26.3434 23.8253C26.255 22.8624 26.7095 22.162 26.8645 21.9441C26.3744 21.7282 25.6339 21.5097 24.8445 21.6826C23.3553 22.0088 22.2038 23.6159 22.268 25.6428C20.9007 24.6471 17.7175 22.0416 17.8035 18.6079C17.8103 18.3328 17.8382 18.0468 17.8928 17.7505C19.049 17.1477 20.2052 16.545 21.3613 15.9422C21.0987 15.7517 20.5778 15.3207 20.2554 14.6022C19.978 13.9838 19.9748 13.4358 19.9968 13.1398C21.0493 13.7509 22.5479 14.4843 24.4631 15.0257C26.3061 15.5465 27.9404 15.7216 29.1629 15.77C29.7209 17.0027 30.279 18.2353 30.8368 19.4679C31.3949 20.7006 31.9529 21.9332 32.5107 23.1658L32.5111 23.1657Z" fill="#FDFDFD"/>
<path d="M26.1222 29.7887C25.8724 29.6356 26.1709 29.8307 25.9373 29.6924C25.7813 29.6002 25.7536 29.6056 25.6045 29.5191C24.3006 28.7635 24.7713 29.0611 23.8613 28.5128C23.8093 28.4816 23.7581 28.4502 23.7069 28.4188C23.2721 28.1515 22.869 27.8805 22.4861 27.5805C21.453 26.7716 20.6091 26.0041 19.9187 25.2893C19.8199 25.1873 19.7246 25.0862 19.6321 24.9862C19.5163 24.8611 19.4058 24.7378 19.2992 24.6163C19.2357 24.5439 19.1734 24.4718 19.1131 24.4007C19.0729 24.3531 19.0331 24.3058 18.9943 24.2586C18.8775 24.1176 18.7669 23.9792 18.6623 23.8436C17.4283 22.2453 17.0158 21.0415 16.8578 20.4254C16.8472 20.384 16.8377 20.3454 16.8294 20.3096C16.827 20.3004 16.8252 20.2915 16.823 20.2826C16.8174 20.2584 16.8122 20.2353 16.8075 20.2139C16.8036 20.1968 16.8001 20.1802 16.7965 20.1632C16.784 20.1046 16.7725 20.0477 16.7625 19.9925C16.7537 19.945 16.7458 19.8989 16.7385 19.8537C16.6406 19.2434 16.6805 18.8179 16.7655 18.2491C15.8935 18.6323 13.5957 19.5873 12.3079 22.2787C12.3169 23.6257 12.4206 24.1828 12.3556 25.4657C12.363 25.5205 12.3473 25.9838 12.3561 26.0389C12.9847 26.3664 12.4555 26.08 13.5648 26.6579C14.2261 27.0023 14.5139 27.1522 15.2288 27.5246C15.6602 27.7493 15.9343 27.9117 17.8912 28.9114C18.1389 29.038 16.7571 28.3207 18.8896 29.4315C19.2224 29.6048 19.4563 29.7267 19.7894 29.9002C20.0112 30.0157 20.1345 30.0799 20.4549 30.2469C20.8494 30.4523 20.7631 30.4074 21.1822 30.6257C22.1929 31.1522 20.2066 30.1471 22.2792 31.1971L23.105 31.6273C23.105 31.6273 25.8624 30.1433 26.3564 29.9107L26.1222 29.7887Z" fill="white"/>
<g filter="url(#filter0_d_938_1322)">
<path d="M157.275 31.7198C154.641 31.7198 152.669 31.031 151.36 29.6532C150.051 28.2583 149.396 26.1055 149.396 23.195C149.396 20.164 150.051 17.9682 151.36 16.6077C152.669 15.2472 154.641 14.5669 157.275 14.5669C159.928 14.5669 161.9 15.2472 163.191 16.6077C164.5 17.9682 165.154 20.164 165.154 23.195C165.154 26.1055 164.5 28.2583 163.191 29.6532C161.9 31.031 159.928 31.7198 157.275 31.7198ZM157.275 29.3432C159.015 29.3432 160.289 28.8696 161.099 27.9224C161.925 26.958 162.339 25.3822 162.339 23.195C162.339 20.8873 161.925 19.2771 161.099 18.3643C160.289 17.4343 159.015 16.9693 157.275 16.9693C155.553 16.9693 154.279 17.4343 153.452 18.3643C152.643 19.2771 152.238 20.8873 152.238 23.195C152.238 25.3822 152.643 26.958 153.452 27.9224C154.279 28.8696 155.553 29.3432 157.275 29.3432Z" fill="white"/>
</g>
<g filter="url(#filter1_d_938_1322)">
<path d="M128.928 31.4615V9.27979H132.683V19.4751L142.12 9.27979H146.46L138.297 18.2351L146.804 31.4615H142.809L135.955 20.6118L132.683 24.125V31.4615H128.928Z" fill="white"/>
</g>
<g filter="url(#filter2_d_938_1322)">
<path d="M118.083 31.7203C115.792 31.7203 114.01 31.1692 112.735 30.067C111.478 28.9648 110.85 27.3718 110.85 25.288V14.8257H113.665V25.1846C113.665 26.5796 114.044 27.6215 114.802 28.3104C115.577 28.9993 116.671 29.3437 118.083 29.3437C119.478 29.3437 120.554 28.9993 121.312 28.3104C122.087 27.6215 122.474 26.5796 122.474 25.1846V14.8257H125.264V25.288C125.264 27.3718 124.636 28.9648 123.378 30.067C122.121 31.1692 120.356 31.7203 118.083 31.7203Z" fill="white"/>
</g>
<g filter="url(#filter3_d_938_1322)">
<path d="M90.498 31.4615V9.27979H100.693C103.173 9.27979 104.976 9.92273 106.101 11.2086C107.249 12.4716 107.823 14.1938 107.823 16.3752C107.823 17.9366 107.433 19.2685 106.652 20.3707C105.871 21.4728 104.746 22.2421 103.277 22.6784C103.69 22.9769 104.011 23.2984 104.241 23.6428C104.471 23.9872 104.7 24.4465 104.93 25.0205L107.72 31.4615H103.862L101.141 25.2617C100.889 24.6646 100.579 24.2398 100.211 23.9872C99.8667 23.7347 99.2697 23.6084 98.4201 23.6084H94.2524V31.4615H90.498ZM94.2524 20.5773H99.6945C101.049 20.5773 102.117 20.2444 102.898 19.5784C103.678 18.9125 104.069 17.8448 104.069 16.3752C104.069 13.5967 102.726 12.2075 100.039 12.2075H94.2524V20.5773Z" fill="white"/>
</g>
<g filter="url(#filter4_d_938_1322)">
<path d="M79.6531 31.7203C77.3626 31.7203 75.5801 31.1692 74.3057 30.067C73.0485 28.9648 72.4199 27.3718 72.4199 25.288V14.8257H75.2357V25.1846C75.2357 26.5796 75.6146 27.6215 76.3723 28.3104C77.1473 28.9993 78.2409 29.3437 79.6531 29.3437C81.0481 29.3437 82.1244 28.9993 82.8822 28.3104C83.6572 27.6215 84.0447 26.5796 84.0447 25.1846V14.8257H86.8346V25.288C86.8346 27.3718 86.206 28.9648 84.9488 30.067C83.6916 31.1692 81.9264 31.7203 79.6531 31.7203Z" fill="white"/>
</g>
<g filter="url(#filter5_d_938_1322)">
<path d="M54.1543 31.4615V9.27979H69.6195V12.2075H57.9087V18.924H68.3451V21.8173H57.9087V28.5682H69.6195V31.4615H54.1543Z" fill="white"/>
</g>
<defs>
<filter id="filter0_d_938_1322" x="148.708" y="14.5669" width="17.1356" height="18.5306" filterUnits="userSpaceOnUse" color-interpolation-filters="sRGB">
<feFlood flood-opacity="0" result="BackgroundImageFix"/>
<feColorMatrix in="SourceAlpha" type="matrix" values="0 0 0 0 0 0 0 0 0 0 0 0 0 0 0 0 0 0 127 0" result="hardAlpha"/>
<feOffset dy="0.688874"/>
<feGaussianBlur stdDeviation="0.344437"/>
<feComposite in2="hardAlpha" operator="out"/>
<feColorMatrix type="matrix" values="0 0 0 0 0 0 0 0 0 0 0 0 0 0 0 0 0 0 0.25 0"/>
<feBlend mode="normal" in2="BackgroundImageFix" result="effect1_dropShadow_938_1322"/>
<feBlend mode="normal" in="SourceGraphic" in2="effect1_dropShadow_938_1322" result="shape"/>
</filter>
<filter id="filter1_d_938_1322" x="128.239" y="9.27979" width="19.2542" height="23.5594" filterUnits="userSpaceOnUse" color-interpolation-filters="sRGB">
<feFlood flood-opacity="0" result="BackgroundImageFix"/>
<feColorMatrix in="SourceAlpha" type="matrix" values="0 0 0 0 0 0 0 0 0 0 0 0 0 0 0 0 0 0 127 0" result="hardAlpha"/>
<feOffset dy="0.688874"/>
<feGaussianBlur stdDeviation="0.344437"/>
<feComposite in2="hardAlpha" operator="out"/>
<feColorMatrix type="matrix" values="0 0 0 0 0 0 0 0 0 0 0 0 0 0 0 0 0 0 0.25 0"/>
<feBlend mode="normal" in2="BackgroundImageFix" result="effect1_dropShadow_938_1322"/>
<feBlend mode="normal" in="SourceGraphic" in2="effect1_dropShadow_938_1322" result="shape"/>
</filter>
<filter id="filter2_d_938_1322" x="110.161" y="14.8257" width="15.7923" height="18.2723" filterUnits="userSpaceOnUse" color-interpolation-filters="sRGB">
<feFlood flood-opacity="0" result="BackgroundImageFix"/>
<feColorMatrix in="SourceAlpha" type="matrix" values="0 0 0 0 0 0 0 0 0 0 0 0 0 0 0 0 0 0 127 0" result="hardAlpha"/>
<feOffset dy="0.688874"/>
<feGaussianBlur stdDeviation="0.344437"/>
<feComposite in2="hardAlpha" operator="out"/>
<feColorMatrix type="matrix" values="0 0 0 0 0 0 0 0 0 0 0 0 0 0 0 0 0 0 0.25 0"/>
<feBlend mode="normal" in2="BackgroundImageFix" result="effect1_dropShadow_938_1322"/>
<feBlend mode="normal" in="SourceGraphic" in2="effect1_dropShadow_938_1322" result="shape"/>
</filter>
<filter id="filter3_d_938_1322" x="89.8092" y="9.27979" width="18.7029" height="23.5594" filterUnits="userSpaceOnUse" color-interpolation-filters="sRGB">
<feFlood flood-opacity="0" result="BackgroundImageFix"/>
<feColorMatrix in="SourceAlpha" type="matrix" values="0 0 0 0 0 0 0 0 0 0 0 0 0 0 0 0 0 0 127 0" result="hardAlpha"/>
<feOffset dy="0.688874"/>
<feGaussianBlur stdDeviation="0.344437"/>
<feComposite in2="hardAlpha" operator="out"/>
<feColorMatrix type="matrix" values="0 0 0 0 0 0 0 0 0 0 0 0 0 0 0 0 0 0 0.25 0"/>
<feBlend mode="normal" in2="BackgroundImageFix" result="effect1_dropShadow_938_1322"/>
<feBlend mode="normal" in="SourceGraphic" in2="effect1_dropShadow_938_1322" result="shape"/>
</filter>
<filter id="filter4_d_938_1322" x="71.731" y="14.8257" width="15.7923" height="18.2723" filterUnits="userSpaceOnUse" color-interpolation-filters="sRGB">
<feFlood flood-opacity="0" result="BackgroundImageFix"/>
<feColorMatrix in="SourceAlpha" type="matrix" values="0 0 0 0 0 0 0 0 0 0 0 0 0 0 0 0 0 0 127 0" result="hardAlpha"/>
<feOffset dy="0.688874"/>
<feGaussianBlur stdDeviation="0.344437"/>
<feComposite in2="hardAlpha" operator="out"/>
<feColorMatrix type="matrix" values="0 0 0 0 0 0 0 0 0 0 0 0 0 0 0 0 0 0 0.25 0"/>
<feBlend mode="normal" in2="BackgroundImageFix" result="effect1_dropShadow_938_1322"/>
<feBlend mode="normal" in="SourceGraphic" in2="effect1_dropShadow_938_1322" result="shape"/>
</filter>
<filter id="filter5_d_938_1322" x="53.4654" y="9.27979" width="16.8431" height="23.5594" filterUnits="userSpaceOnUse" color-interpolation-filters="sRGB">
<feFlood flood-opacity="0" result="BackgroundImageFix"/>
<feColorMatrix in="SourceAlpha" type="matrix" values="0 0 0 0 0 0 0 0 0 0 0 0 0 0 0 0 0 0 127 0" result="hardAlpha"/>
<feOffset dy="0.688874"/>
<feGaussianBlur stdDeviation="0.344437"/>
<feComposite in2="hardAlpha" operator="out"/>
<feColorMatrix type="matrix" values="0 0 0 0 0 0 0 0 0 0 0 0 0 0 0 0 0 0 0.25 0"/>
<feBlend mode="normal" in2="BackgroundImageFix" result="effect1_dropShadow_938_1322"/>
<feBlend mode="normal" in="SourceGraphic" in2="effect1_dropShadow_938_1322" result="shape"/>
</filter>
</defs>
</svg>
