<svg xmlns="http://www.w3.org/2000/svg" version="1.1" xmlns:xlink="http://www.w3.org/1999/xlink" xmlns:svgjs="http://svgjs.dev/svgjs" width="1500" height="496" viewBox="0 0 1500 496"><g transform="matrix(1,0,0,1,0.15999999999996817,0.9625455999999417)"><svg viewBox="0 0 375 124" data-background-color="#ffffff" preserveAspectRatio="xMidYMid meet" height="496" width="1500" xmlns="http://www.w3.org/2000/svg" xmlns:xlink="http://www.w3.org/1999/xlink"><g id="tight-bounds" transform="matrix(1,0,0,1,-0.03976000000000113,-0.2406163999999933)"><svg viewBox="0 0 375.07953 124.48125279999998" height="124.48125279999998" width="375.07953"><g><svg></svg></g><g><svg viewBox="0 0 375.07953 124.48125279999998" height="124.48125279999998" width="375.07953"><g transform="matrix(1,0,0,1,-10.22024,-63.068020000000004)"><path d="M10.22 184.132v-121.064h375.08v121.064l-20.987 0 0-2.782h18.205v-115.5h-369.516v115.5h46.124l0 2.782z" fill="#1e55b3" fill-rule="nonzero" stroke="none" stroke-width="1" stroke-linecap="butt" stroke-linejoin="miter" stroke-miterlimit="10" stroke-dasharray="" stroke-dashoffset="0" font-family="none" font-weight="none" font-size="none" text-anchor="none" style="mix-blend-mode: normal" data-fill-palette-color="tertiary"></path><g><path transform="translate(67.52152,185.25948) scale(0.20666,0.20666)" d="M23.29-41.06v0c1.56 0 3.017 0.153 4.37 0.46 1.353 0.307 2.517 0.827 3.49 1.56 0.98 0.733 1.753 1.693 2.32 2.88 0.573 1.187 0.86 2.643 0.86 4.37v0c0 0.78-0.05 1.563-0.15 2.35-0.1 0.78-0.23 1.56-0.39 2.34v0c-0.067 0.36-0.15 0.727-0.25 1.1-0.093 0.373-0.14 0.74-0.14 1.1v0 0.14l-7.72-1.46c0.2-0.293 0.363-0.65 0.49-1.07 0.133-0.427 0.24-0.877 0.32-1.35 0.08-0.473 0.143-0.937 0.19-1.39 0.053-0.453 0.08-0.86 0.08-1.22v0c0-1.76-0.417-3.167-1.25-4.22-0.827-1.06-2.17-1.59-4.03-1.59v0c-1.427 0-2.693 0.34-3.8 1.02-1.107 0.687-2.043 1.567-2.81 2.64-0.767 1.073-1.353 2.277-1.76 3.61-0.407 1.34-0.61 2.643-0.61 3.91v0c0 0.747-0.007 1.487-0.02 2.22-0.02 0.733-0.03 1.473-0.03 2.22v0c1.04-0.027 2.1-0.05 3.18-0.07 1.073-0.013 2.147-0.053 3.22-0.12v0c0.553-0.033 1.153-0.067 1.8-0.1 0.653-0.033 1.257-0.13 1.81-0.29v0l-0.15 4.93c-0.26-0.1-0.843-0.18-1.75-0.24-0.913-0.067-1.907-0.117-2.98-0.15-1.073-0.033-2.1-0.05-3.08-0.05-0.973 0-1.673 0-2.1 0v0 4.88c0 0.26 0 0.727 0 1.4 0 0.667 0.01 1.43 0.03 2.29 0.013 0.86 0.03 1.763 0.05 2.71 0.013 0.947 0.037 1.827 0.07 2.64 0.033 0.813 0.083 1.503 0.15 2.07 0.06 0.573 0.14 0.923 0.24 1.05v0h-7.86c0.127-0.127 0.223-0.51 0.29-1.15 0.067-0.633 0.117-1.333 0.15-2.1 0.033-0.76 0.05-1.49 0.05-2.19 0-0.7 0-1.18 0-1.44v0c0-3.353-0.05-6.723-0.15-10.11v0c-0.913 0-1.84-0.007-2.78-0.02-0.947-0.02-1.86 0.067-2.74 0.26v0l-0.14-4.44c0.32 0.1 0.727 0.173 1.22 0.22 0.487 0.047 0.997 0.08 1.53 0.1 0.54 0.013 1.063 0.02 1.57 0.02 0.5 0 0.93 0 1.29 0v0c-0.033-0.487-0.067-0.967-0.1-1.44-0.033-0.473-0.05-0.937-0.05-1.39v0c0-2.507 0.473-4.9 1.42-7.18v0c0.747-1.753 1.69-3.25 2.83-4.49 1.14-1.24 2.427-2.25 3.86-3.03 1.433-0.78 2.987-1.34 4.66-1.68 1.68-0.34 3.447-0.51 5.3-0.51zM27.59-22.85v0l8.59 0.05c-0.16 0.033-0.28 0.17-0.36 0.41-0.087 0.247-0.16 0.433-0.22 0.56v0c-0.233 0.813-0.407 1.8-0.52 2.96-0.113 1.153-0.193 2.357-0.24 3.61-0.047 1.253-0.08 2.467-0.1 3.64-0.013 1.173-0.02 2.2-0.02 3.08v0c0 0.287 0 0.88 0 1.78 0 0.893 0.023 1.843 0.07 2.85 0.047 1.013 0.12 1.933 0.22 2.76 0.1 0.833 0.247 1.347 0.44 1.54v0h-8.64c0.16-0.227 0.32-0.763 0.48-1.61 0.167-0.847 0.307-1.857 0.42-3.03 0.113-1.173 0.22-2.433 0.32-3.78 0.093-1.353 0.183-2.64 0.27-3.86 0.08-1.22 0.137-2.31 0.17-3.27 0.033-0.96 0.05-1.62 0.05-1.98v0c0-0.193 0-0.583 0-1.17 0-0.587-0.033-1.197-0.1-1.83-0.067-0.633-0.163-1.22-0.29-1.76-0.133-0.54-0.313-0.857-0.54-0.95zM31.84-34.67v0c0.42 0 0.89 0.067 1.41 0.2 0.52 0.127 1 0.313 1.44 0.56 0.44 0.247 0.807 0.573 1.1 0.98 0.293 0.407 0.44 0.87 0.44 1.39v0c0 0.52-0.147 0.973-0.44 1.36-0.293 0.393-0.66 0.713-1.1 0.96-0.44 0.24-0.92 0.427-1.44 0.56-0.52 0.127-0.99 0.19-1.41 0.19v0c-0.46 0-0.94-0.063-1.44-0.19-0.507-0.133-0.98-0.32-1.42-0.56-0.44-0.247-0.807-0.567-1.1-0.96-0.293-0.387-0.44-0.84-0.44-1.36v0c0-0.52 0.147-0.983 0.44-1.39 0.293-0.407 0.66-0.733 1.1-0.98 0.44-0.247 0.913-0.433 1.42-0.56 0.5-0.133 0.98-0.2 1.44-0.2zM47.95-18.55v0c0.78-0.653 1.683-1.273 2.71-1.86 1.027-0.587 2.1-1.1 3.22-1.54 1.127-0.44 2.267-0.79 3.42-1.05 1.153-0.26 2.237-0.39 3.25-0.39v0 4.2c-1.047 0-2.203 0.227-3.47 0.68-1.267 0.46-2.513 1.047-3.74 1.76-1.22 0.72-2.317 1.533-3.29 2.44-0.98 0.913-1.697 1.843-2.15 2.79v0c0 0.227 0.007 0.65 0.02 1.27 0.02 0.613 0.037 1.327 0.05 2.14 0.02 0.82 0.047 1.677 0.08 2.57 0.033 0.893 0.08 1.73 0.14 2.51 0.067 0.78 0.133 1.447 0.2 2 0.067 0.553 0.147 0.897 0.24 1.03v0h-7.91c0.133-0.067 0.247-0.417 0.34-1.05 0.1-0.633 0.173-1.407 0.22-2.32 0.053-0.913 0.103-1.897 0.15-2.95 0.047-1.06 0.08-2.08 0.1-3.06 0.013-0.973 0.02-1.817 0.02-2.53 0-0.72 0-1.193 0-1.42v0c0-0.293 0-0.913 0-1.86 0-0.94-0.017-1.93-0.05-2.97-0.027-1.047-0.073-2.017-0.14-2.91-0.067-0.893-0.167-1.44-0.3-1.64v0h7.23c-0.067 0.2-0.117 0.487-0.15 0.86-0.027 0.373-0.057 0.773-0.09 1.2-0.033 0.42-0.06 0.827-0.08 1.22-0.013 0.387-0.02 0.68-0.02 0.88zM81.88-14.4c0.2-0.553 0.363-1.133 0.49-1.74 0.133-0.6 0.2-1.21 0.2-1.83v0c0-1.367-0.367-2.383-1.1-3.05-0.733-0.667-1.783-1-3.15-1v0c-0.78 0-1.7 0.09-2.76 0.27-1.06 0.18-2.06 0.48-3 0.9-0.947 0.427-1.753 0.98-2.42 1.66-0.667 0.687-1 1.533-1 2.54v0c0 0.747 0.367 1.373 1.1 1.88 0.733 0.507 1.587 0.913 2.56 1.22 0.98 0.307 1.967 0.543 2.96 0.71 0.993 0.16 1.75 0.29 2.27 0.39v0c0.813 0.16 1.847 0.363 3.1 0.61 1.253 0.247 2.467 0.603 3.64 1.07 1.167 0.473 2.173 1.06 3.02 1.76 0.847 0.7 1.27 1.587 1.27 2.66v0c0 1.207-0.47 2.217-1.41 3.03-0.947 0.813-2.08 1.463-3.4 1.95-1.313 0.493-2.687 0.843-4.12 1.05-1.433 0.213-2.623 0.32-3.57 0.32v0c-1.953 0-3.89-0.14-5.81-0.42-1.92-0.273-3.807-0.737-5.66-1.39v0c-0.227-0.093-0.603-0.247-1.13-0.46-0.52-0.213-1.063-0.44-1.63-0.68-0.573-0.247-1.103-0.467-1.59-0.66-0.487-0.2-0.797-0.3-0.93-0.3v0c0.067-0.033 0.297-0.227 0.69-0.58 0.387-0.36 0.8-0.76 1.24-1.2 0.44-0.44 0.84-0.853 1.2-1.24 0.36-0.393 0.557-0.64 0.59-0.74v0c1.66 1.24 3.507 2.153 5.54 2.74 2.033 0.587 4.077 0.88 6.13 0.88v0c0.227 0 0.663-0.027 1.31-0.08 0.653-0.047 1.33-0.133 2.03-0.26 0.7-0.133 1.327-0.313 1.88-0.54 0.553-0.227 0.83-0.52 0.83-0.88v0c0-0.52-0.457-0.943-1.37-1.27-0.907-0.327-2.053-0.637-3.44-0.93-1.38-0.293-2.87-0.617-4.47-0.97-1.593-0.36-3.083-0.827-4.47-1.4-1.38-0.567-2.527-1.273-3.44-2.12-0.907-0.847-1.36-1.937-1.36-3.27v0c0-1.953 0.527-3.623 1.58-5.01 1.06-1.38 2.387-2.503 3.98-3.37 1.593-0.86 3.32-1.487 5.18-1.88 1.853-0.387 3.593-0.58 5.22-0.58v0c1.333 0 2.62 0.107 3.86 0.32 1.24 0.207 2.33 0.587 3.27 1.14 0.947 0.553 1.703 1.32 2.27 2.3 0.573 0.973 0.86 2.243 0.86 3.81v0c0 0.78-0.057 1.56-0.17 2.34-0.12 0.78-0.26 1.547-0.42 2.3v0zM105.03-17.63c-0.067 1.66-0.133 3.33-0.2 5.01-0.06 1.673-0.09 3.34-0.09 5v0c0 0.553 0.113 1.027 0.34 1.42 0.227 0.387 0.527 0.703 0.9 0.95 0.373 0.247 0.797 0.417 1.27 0.51 0.473 0.1 0.953 0.15 1.44 0.15v0c0.62 0 1.23-0.05 1.83-0.15 0.607-0.093 1.2-0.223 1.78-0.39v0l-0.78 5.23c-1.887 0-3.66-0.057-5.32-0.17-1.66-0.113-3.107-0.463-4.34-1.05-1.24-0.587-2.217-1.523-2.93-2.81-0.72-1.287-1.08-3.103-1.08-5.45v0c0-1.367 0.04-2.74 0.12-4.12 0.087-1.387 0.193-2.763 0.32-4.13v0l-7.23 0.05 0.35-4.78c1.167 0.093 2.353 0.15 3.56 0.17 1.207 0.013 2.41 0.02 3.61 0.02v0c0.067-0.94 0.117-1.86 0.15-2.76 0.033-0.893 0.05-1.813 0.05-2.76v0c0-0.193 0-0.583 0-1.17 0-0.587-0.033-1.197-0.1-1.83-0.067-0.633-0.163-1.21-0.29-1.73-0.133-0.52-0.313-0.83-0.54-0.93v0l8.99 0.15c-0.133 0-0.233 0.097-0.3 0.29-0.06 0.193-0.123 0.34-0.19 0.44v0c-0.2 0.62-0.357 1.37-0.47 2.25-0.113 0.873-0.21 1.79-0.29 2.75-0.08 0.96-0.143 1.89-0.19 2.79-0.053 0.893-0.097 1.683-0.13 2.37v0c1.107-0.067 2.23-0.127 3.37-0.18 1.14-0.047 2.263-0.2 3.37-0.46v0 5.27zM115.19-12.6l-0.15-5.42c0.227 0.1 0.64 0.173 1.24 0.22 0.607 0.053 1.25 0.087 1.93 0.1 0.687 0.013 1.33 0.02 1.93 0.02 0.6 0 1.047 0 1.34 0v0c0.36 0 0.987-0.007 1.88-0.02 0.9-0.013 1.92-0.03 3.06-0.05 1.14-0.013 2.333-0.047 3.58-0.1 1.253-0.047 2.433-0.093 3.54-0.14 1.113-0.053 2.067-0.12 2.86-0.2 0.8-0.08 1.313-0.17 1.54-0.27v0l-0.15 6.01c-0.127-0.1-0.483-0.183-1.07-0.25-0.587-0.06-1.28-0.107-2.08-0.14-0.793-0.033-1.663-0.06-2.61-0.08-0.94-0.013-1.827-0.027-2.66-0.04-0.827-0.02-1.567-0.03-2.22-0.03-0.653 0-1.093 0-1.32 0v0c-0.42 0-1.153 0-2.2 0-1.04 0-2.13 0.01-3.27 0.03-1.14 0.013-2.207 0.053-3.2 0.12-0.993 0.067-1.65 0.147-1.97 0.24zM155.52 0.73v0c-1.593 0-3.287-0.21-5.08-0.63-1.793-0.427-3.447-1.087-4.96-1.98-1.513-0.893-2.767-2.023-3.76-3.39-0.993-1.367-1.49-2.997-1.49-4.89v0c0-2.307 0.457-4.373 1.37-6.2 0.913-1.82 2.133-3.357 3.66-4.61 1.533-1.253 3.31-2.213 5.33-2.88 2.013-0.667 4.127-1 6.34-1v0c1.76 0 3.323 0.283 4.69 0.85 1.367 0.573 2.507 1.37 3.42 2.39 0.913 1.027 1.603 2.24 2.07 3.64 0.473 1.4 0.71 2.947 0.71 4.64v0c0 1.627-0.243 3.19-0.73 4.69v0h-20.36c0.327 0.973 0.84 1.77 1.54 2.39 0.7 0.62 1.497 1.1 2.39 1.44 0.893 0.34 1.837 0.577 2.83 0.71 0.993 0.127 1.93 0.19 2.81 0.19v0c0.553 0 1.293-0.04 2.22-0.12 0.927-0.08 1.88-0.21 2.86-0.39 0.973-0.18 1.893-0.4 2.76-0.66 0.86-0.26 1.5-0.583 1.92-0.97v0l2.4 4.19c-2.153 0.82-4.27 1.457-6.35 1.91-2.087 0.453-4.283 0.68-6.59 0.68zM155.52-20.26v0c-0.98 0-1.95 0.193-2.91 0.58-0.96 0.393-1.83 0.907-2.61 1.54-0.78 0.633-1.463 1.383-2.05 2.25-0.587 0.86-1.01 1.747-1.27 2.66v0h13.96c0.1-0.98 0.11-1.9 0.03-2.76-0.08-0.867-0.3-1.617-0.66-2.25-0.36-0.633-0.897-1.13-1.61-1.49-0.72-0.353-1.68-0.53-2.88-0.53zM199.41-23.83c-0.26 0.26-0.73 0.983-1.41 2.17-0.687 1.193-1.47 2.627-2.35 4.3-0.873 1.68-1.777 3.48-2.71 5.4-0.927 1.92-1.78 3.733-2.56 5.44-0.78 1.707-1.423 3.187-1.93 4.44-0.5 1.253-0.75 2.043-0.75 2.37v0l0.04 0.1h-6.25v-0.1c-0.027-0.353-0.293-1.15-0.8-2.39-0.507-1.24-1.15-2.697-1.93-4.37-0.78-1.673-1.643-3.463-2.59-5.37-0.94-1.907-1.843-3.69-2.71-5.35-0.86-1.66-1.633-3.1-2.32-4.32-0.68-1.22-1.15-1.993-1.41-2.32v0h8.25c1.007 2.64 2 5.253 2.98 7.84 0.973 2.587 2.113 5.117 3.42 7.59v0l4.98-10.25c0.387-0.847 0.793-1.693 1.22-2.54 0.42-0.847 0.743-1.727 0.97-2.64v0zM214.45 0.73v0c-1.593 0-3.283-0.21-5.07-0.63-1.793-0.427-3.447-1.087-4.96-1.98-1.513-0.893-2.767-2.023-3.76-3.39-0.993-1.367-1.49-2.997-1.49-4.89v0c0-2.307 0.457-4.373 1.37-6.2 0.907-1.82 2.127-3.357 3.66-4.61 1.527-1.253 3.3-2.213 5.32-2.88 2.02-0.667 4.137-1 6.35-1v0c1.76 0 3.323 0.283 4.69 0.85 1.367 0.573 2.503 1.37 3.41 2.39 0.913 1.027 1.607 2.24 2.08 3.64 0.473 1.4 0.71 2.947 0.71 4.64v0c0 1.627-0.243 3.19-0.73 4.69v0h-20.37c0.327 0.973 0.84 1.77 1.54 2.39 0.7 0.62 1.497 1.1 2.39 1.44 0.9 0.34 1.847 0.577 2.84 0.71 0.993 0.127 1.927 0.19 2.8 0.19v0c0.553 0 1.297-0.04 2.23-0.12 0.927-0.08 1.877-0.21 2.85-0.39 0.98-0.18 1.9-0.4 2.76-0.66 0.867-0.26 1.51-0.583 1.93-0.97v0l2.39 4.19c-2.147 0.82-4.263 1.457-6.35 1.91-2.08 0.453-4.277 0.68-6.59 0.68zM214.45-20.26v0c-0.973 0-1.94 0.193-2.9 0.58-0.96 0.393-1.83 0.907-2.61 1.54-0.787 0.633-1.473 1.383-2.06 2.25-0.58 0.86-1 1.747-1.26 2.66v0h13.96c0.1-0.98 0.107-1.9 0.02-2.76-0.08-0.867-0.297-1.617-0.65-2.25-0.36-0.633-0.9-1.13-1.62-1.49-0.713-0.353-1.673-0.53-2.88-0.53zM238.62-18.55v0c0.78-0.653 1.683-1.273 2.71-1.86 1.027-0.587 2.103-1.1 3.23-1.54 1.12-0.44 2.257-0.79 3.41-1.05 1.16-0.26 2.243-0.39 3.25-0.39v0 4.2c-1.04 0-2.197 0.227-3.47 0.68-1.267 0.46-2.51 1.047-3.73 1.76-1.22 0.72-2.32 1.533-3.3 2.44-0.973 0.913-1.69 1.843-2.15 2.79v0c0 0.227 0.01 0.65 0.03 1.27 0.013 0.613 0.03 1.327 0.05 2.14 0.013 0.82 0.037 1.677 0.07 2.57 0.033 0.893 0.083 1.73 0.15 2.51 0.06 0.78 0.123 1.447 0.19 2 0.067 0.553 0.15 0.897 0.25 1.03v0h-7.91c0.127-0.067 0.24-0.417 0.34-1.05 0.093-0.633 0.167-1.407 0.22-2.32 0.047-0.913 0.093-1.897 0.14-2.95 0.053-1.06 0.087-2.08 0.1-3.06 0.02-0.973 0.03-1.817 0.03-2.53 0-0.72 0-1.193 0-1.42v0c0-0.293 0-0.913 0-1.86 0-0.94-0.017-1.93-0.05-2.97-0.033-1.047-0.083-2.017-0.15-2.91-0.067-0.893-0.163-1.44-0.29-1.64v0h7.22c-0.06 0.2-0.107 0.487-0.14 0.86-0.033 0.373-0.067 0.773-0.1 1.2-0.033 0.42-0.057 0.827-0.07 1.22-0.02 0.387-0.03 0.68-0.03 0.88zM293.41-14.26v0c0.293 0.26 0.88 0.797 1.76 1.61 0.873 0.813 1.89 1.743 3.05 2.79 1.153 1.04 2.373 2.13 3.66 3.27 1.287 1.14 2.49 2.19 3.61 3.15 1.127 0.96 2.097 1.763 2.91 2.41 0.813 0.653 1.333 0.997 1.56 1.03v0h-10.11c-0.193-0.26-0.47-0.577-0.83-0.95-0.353-0.373-0.727-0.75-1.12-1.13-0.393-0.373-0.777-0.737-1.15-1.09-0.373-0.36-0.69-0.653-0.95-0.88v0c-1.593-1.567-3.197-3.09-4.81-4.57-1.613-1.48-3.263-2.953-4.95-4.42v0c-1.34 0.167-2.66 0.273-3.96 0.32-1.3 0.047-2.617 0.103-3.95 0.17v0c-0.033 0.88-0.05 1.75-0.05 2.61 0 0.867 0 1.74 0 2.62v0c0 0.293 0 0.797 0 1.51 0 0.713 0.017 1.477 0.05 2.29 0.027 0.82 0.097 1.563 0.21 2.23 0.12 0.667 0.277 1.097 0.47 1.29v0h-8.55c0.2-0.193 0.363-0.82 0.49-1.88 0.133-1.06 0.23-2.337 0.29-3.83 0.067-1.5 0.117-3.12 0.15-4.86 0.033-1.74 0.05-3.41 0.05-5.01 0-1.593-0.007-3.007-0.02-4.24-0.02-1.24-0.03-2.103-0.03-2.59v0c0-0.293 0.01-0.813 0.03-1.56 0.013-0.753 0.013-1.617 0-2.59-0.02-0.98-0.053-2.007-0.1-3.08-0.053-1.073-0.143-2.067-0.27-2.98-0.133-0.907-0.313-1.67-0.54-2.29-0.227-0.62-0.503-0.98-0.83-1.08v0c0.1 0 0.417 0 0.95 0 0.54 0 1.193 0 1.96 0 0.767 0 1.58 0 2.44 0 0.86 0 1.673 0 2.44 0 0.767 0 1.41 0.01 1.93 0.03 0.52 0.013 0.83 0.02 0.93 0.02v0c1.167 0 2.653 0.027 4.46 0.08 1.807 0.047 3.73 0.183 5.77 0.41 2.033 0.227 4.073 0.56 6.12 1 2.053 0.44 3.903 1.067 5.55 1.88 1.64 0.813 2.98 1.83 4.02 3.05 1.047 1.22 1.57 2.71 1.57 4.47v0c0 1.693-0.49 3.15-1.47 4.37-0.973 1.22-2.187 2.253-3.64 3.1-1.447 0.847-2.99 1.54-4.63 2.08-1.647 0.533-3.137 0.947-4.47 1.24zM298.78-25.15v0c0-0.973-0.407-1.793-1.22-2.46-0.813-0.667-1.863-1.203-3.15-1.61-1.287-0.407-2.72-0.71-4.3-0.91-1.58-0.193-3.117-0.33-4.61-0.41-1.5-0.08-2.877-0.12-4.13-0.12-1.253 0-2.203 0-2.85 0v0c-0.167 1.82-0.273 3.633-0.32 5.44-0.047 1.807-0.07 3.62-0.07 5.44v0 1.32c1.267-0.033 2.533-0.063 3.8-0.09 1.273-0.033 2.527-0.1 3.76-0.2v0c0.62-0.033 1.37-0.1 2.25-0.2 0.88-0.093 1.807-0.23 2.78-0.41 0.98-0.18 1.95-0.417 2.91-0.71 0.96-0.293 1.823-0.667 2.59-1.12 0.76-0.46 1.377-1.013 1.85-1.66 0.473-0.653 0.71-1.42 0.71-2.3zM339.94-23.78c-0.127 0.227-0.247 0.717-0.36 1.47-0.12 0.747-0.227 1.633-0.32 2.66-0.1 1.02-0.183 2.133-0.25 3.34-0.06 1.207-0.117 2.353-0.17 3.44-0.047 1.093-0.077 2.07-0.09 2.93-0.02 0.867-0.03 1.493-0.03 1.88v0c0 0.327 0 0.907 0 1.74 0 0.827 0.04 1.68 0.12 2.56 0.08 0.88 0.193 1.677 0.34 2.39 0.147 0.72 0.367 1.143 0.66 1.27v0l-8.59-0.05 0.2-2.34c-1.24 0.88-2.593 1.603-4.06 2.17-1.46 0.573-2.957 0.86-4.49 0.86v0c-1.527 0-3-0.187-4.42-0.56-1.413-0.38-2.657-0.96-3.73-1.74-1.08-0.78-1.943-1.78-2.59-3-0.653-1.22-0.98-2.693-0.98-4.42v0c0-2.18 0.107-4.343 0.32-6.49 0.213-2.153 0.32-4.32 0.32-6.5v0c0-0.36-0.01-0.717-0.03-1.07-0.013-0.36-0.053-0.72-0.12-1.08v0h8.25c-0.327 0.553-0.57 1.433-0.73 2.64-0.16 1.207-0.283 2.493-0.37 3.86-0.08 1.367-0.127 2.693-0.14 3.98-0.02 1.287-0.03 2.287-0.03 3v0c0 1.24 0.1 2.267 0.3 3.08 0.193 0.813 0.527 1.463 1 1.95 0.467 0.487 1.11 0.827 1.93 1.02 0.813 0.2 1.837 0.3 3.07 0.3v0c0.687 0 1.347-0.123 1.98-0.37 0.633-0.24 1.243-0.557 1.83-0.95 0.587-0.393 1.123-0.833 1.61-1.32 0.487-0.487 0.927-0.973 1.32-1.46v0c0.067-1.433 0.117-2.85 0.15-4.25 0.027-1.4 0.04-2.817 0.04-4.25v0c0-0.293 0-0.773 0-1.44 0-0.667-0.013-1.36-0.04-2.08-0.033-0.713-0.09-1.37-0.17-1.97-0.087-0.607-0.193-1.007-0.32-1.2v0zM361.87-24.56v0c1.753 0 3.487 0.237 5.2 0.71 1.707 0.473 3.243 1.18 4.61 2.12 1.367 0.947 2.473 2.15 3.32 3.61 0.847 1.467 1.27 3.177 1.27 5.13v0c0 1.333-0.277 2.58-0.83 3.74-0.553 1.153-1.287 2.203-2.2 3.15-0.907 0.94-1.923 1.77-3.05 2.49-1.12 0.713-2.233 1.283-3.34 1.71v0c-2.313 0.873-4.69 1.31-7.13 1.31v0c-1.367 0-2.71-0.147-4.03-0.44-1.32-0.287-2.583-0.773-3.79-1.46v0c0.033 0.36 0.067 0.773 0.1 1.24 0.033 0.473 0.13 0.89 0.29 1.25v0h-8.59c0.167-0.26 0.323-1.023 0.47-2.29 0.14-1.273 0.277-2.803 0.41-4.59 0.133-1.793 0.247-3.733 0.34-5.82 0.1-2.08 0.19-4.08 0.27-6 0.08-1.92 0.137-3.647 0.17-5.18 0.033-1.527 0.05-2.633 0.05-3.32v0c0-0.353 0-0.98 0-1.88 0-0.893-0.033-1.827-0.1-2.8-0.067-0.98-0.163-1.877-0.29-2.69-0.133-0.813-0.313-1.303-0.54-1.47v0l9.28 0.05c-0.227 0.1-0.423 0.477-0.59 1.13-0.16 0.647-0.307 1.45-0.44 2.41-0.127 0.96-0.23 2.01-0.31 3.15-0.087 1.14-0.16 2.223-0.22 3.25-0.067 1.027-0.117 1.947-0.15 2.76-0.033 0.813-0.05 1.383-0.05 1.71v0c1.433-0.98 2.997-1.72 4.69-2.22 1.693-0.507 3.42-0.76 5.18-0.76zM359.67-5.47v0c1.14 0 2.27-0.163 3.39-0.49 1.127-0.327 2.143-0.813 3.05-1.46 0.913-0.653 1.647-1.46 2.2-2.42 0.553-0.96 0.83-2.073 0.83-3.34v0c0-1.173-0.253-2.193-0.76-3.06-0.5-0.86-1.157-1.573-1.97-2.14-0.813-0.573-1.733-0.99-2.76-1.25-1.027-0.26-2.06-0.39-3.1-0.39v0c-0.947 0-1.923 0.147-2.93 0.44-1.013 0.293-1.95 0.717-2.81 1.27-0.86 0.553-1.567 1.237-2.12 2.05-0.553 0.813-0.847 1.757-0.88 2.83v0 1.91c0 1.04 0.233 1.943 0.7 2.71 0.473 0.76 1.093 1.387 1.86 1.88 0.767 0.487 1.613 0.853 2.54 1.1 0.927 0.24 1.847 0.36 2.76 0.36zM407.28-24.51c-0.133 0.193-0.233 0.65-0.3 1.37-0.067 0.713-0.113 1.483-0.14 2.31-0.033 0.833-0.05 1.633-0.05 2.4 0 0.76 0 1.287 0 1.58v0c0 2.673 0.017 5.337 0.05 7.99 0.027 2.653 0.04 5.297 0.04 7.93v0c0 2.02-0.447 3.787-1.34 5.3-0.893 1.513-2.057 2.767-3.49 3.76-1.433 0.993-3.043 1.733-4.83 2.22-1.793 0.487-3.583 0.73-5.37 0.73v0c-1.987 0-3.967-0.013-5.94-0.04-1.967-0.033-3.927-0.067-5.88-0.1v0l0.49-5.67c0.487 0.2 1.177 0.387 2.07 0.56 0.9 0.18 1.837 0.327 2.81 0.44 0.98 0.12 1.923 0.21 2.83 0.27 0.913 0.067 1.663 0.1 2.25 0.1v0c1.527 0 2.893-0.13 4.1-0.39 1.207-0.26 2.233-0.707 3.08-1.34 0.847-0.633 1.497-1.507 1.95-2.62 0.453-1.107 0.68-2.49 0.68-4.15v0c0-0.287-0.007-0.587-0.02-0.9-0.02-0.307-0.043-0.607-0.07-0.9v0c-1.307 0.94-2.74 1.64-4.3 2.1-1.567 0.453-3.147 0.68-4.74 0.68v0c-2.34 0-4.283-0.367-5.83-1.1-1.547-0.733-2.777-1.74-3.69-3.02-0.913-1.287-1.557-2.817-1.93-4.59-0.373-1.78-0.56-3.71-0.56-5.79v0c0-1.007 0.033-2.017 0.1-3.03 0.067-1.007 0.1-2.017 0.1-3.03v0c0-0.453-0.027-0.947-0.08-1.48-0.047-0.54-0.217-0.99-0.51-1.35v0l8.89 0.05c-0.26 0.427-0.497 1.047-0.71 1.86-0.213 0.813-0.383 1.673-0.51 2.58-0.133 0.913-0.233 1.803-0.3 2.67-0.06 0.86-0.09 1.55-0.09 2.07v0c0 1.3 0.087 2.503 0.26 3.61 0.18 1.107 0.53 2.077 1.05 2.91 0.52 0.827 1.23 1.477 2.13 1.95 0.893 0.473 2.057 0.71 3.49 0.71v0c0.587 0 1.253-0.05 2-0.15 0.747-0.093 1.463-0.28 2.15-0.56 0.68-0.273 1.283-0.64 1.81-1.1 0.52-0.453 0.827-1.037 0.92-1.75v0c0.1-0.587 0.15-1.183 0.15-1.79 0-0.6 0-1.177 0-1.73v0c0-0.487-0.023-1.31-0.07-2.47-0.053-1.153-0.127-2.34-0.22-3.56-0.1-1.22-0.24-2.36-0.42-3.42-0.18-1.053-0.4-1.727-0.66-2.02v0zM448.78-13.82c0.42-0.453 0.843-0.99 1.27-1.61 0.42-0.62 0.63-1.24 0.63-1.86v0c0-0.58-0.21-1.06-0.63-1.44-0.427-0.373-0.93-0.657-1.51-0.85-0.587-0.193-1.2-0.333-1.84-0.42-0.633-0.08-1.16-0.12-1.58-0.12v0c-1.333 0-2.587 0.237-3.76 0.71-1.173 0.473-2.2 1.123-3.08 1.95-0.88 0.833-1.57 1.82-2.07 2.96-0.507 1.14-0.76 2.393-0.76 3.76v0c0 1.267 0.267 2.277 0.8 3.03 0.54 0.747 1.227 1.307 2.06 1.68 0.827 0.373 1.76 0.61 2.8 0.71 1.047 0.093 2.09 0.14 3.13 0.14v0c1.593 0 3.253-0.13 4.98-0.39 1.727-0.26 3.353-0.617 4.88-1.07v0l1.32 4.35c-1.56 0.58-3.3 1.01-5.22 1.29-1.927 0.273-3.733 0.41-5.42 0.41v0c-1.013 0-2.113-0.057-3.3-0.17-1.187-0.113-2.383-0.307-3.59-0.58-1.207-0.28-2.37-0.647-3.49-1.1-1.127-0.46-2.127-1.047-3-1.76-0.88-0.713-1.58-1.567-2.1-2.56-0.52-0.993-0.78-2.143-0.78-3.45v0c0-2.373 0.577-4.463 1.73-6.27 1.153-1.807 2.633-3.32 4.44-4.54 1.807-1.22 3.81-2.14 6.01-2.76 2.193-0.62 4.35-0.93 6.47-0.93v0c1.173 0 2.343 0.09 3.51 0.27 1.173 0.18 2.233 0.513 3.18 1 0.94 0.487 1.703 1.17 2.29 2.05 0.587 0.88 0.88 2.02 0.88 3.42v0c0 0.72-0.063 1.42-0.19 2.1-0.133 0.687-0.297 1.37-0.49 2.05v0zM476.81-23.54v0c1.787 0 3.673 0.253 5.66 0.76 1.987 0.507 3.793 1.273 5.42 2.3 1.627 1.02 2.977 2.313 4.05 3.88 1.073 1.56 1.61 3.4 1.61 5.52v0c0 1.4-0.26 2.66-0.78 3.78-0.52 1.12-1.21 2.113-2.07 2.98-0.867 0.86-1.867 1.607-3 2.24-1.14 0.64-2.337 1.163-3.59 1.57-1.253 0.407-2.533 0.707-3.84 0.9-1.3 0.193-2.52 0.29-3.66 0.29v0c-1.853 0-3.757-0.21-5.71-0.63-1.953-0.427-3.737-1.11-5.35-2.05-1.613-0.947-2.93-2.177-3.95-3.69-1.027-1.513-1.54-3.377-1.54-5.59v0c0-2.18 0.53-4.043 1.59-5.59 1.053-1.547 2.393-2.817 4.02-3.81 1.633-0.993 3.433-1.717 5.4-2.17 1.967-0.46 3.88-0.69 5.74-0.69zM467.38-11.33v0c0 1.273 0.287 2.347 0.86 3.22 0.567 0.88 1.297 1.597 2.19 2.15 0.9 0.553 1.903 0.953 3.01 1.2 1.107 0.247 2.197 0.37 3.27 0.37v0c1.007 0 2.063-0.133 3.17-0.4 1.107-0.26 2.133-0.667 3.08-1.22 0.947-0.553 1.727-1.26 2.34-2.12 0.62-0.86 0.93-1.893 0.93-3.1v0c0-1.207-0.293-2.257-0.88-3.15-0.587-0.893-1.333-1.643-2.24-2.25-0.913-0.6-1.933-1.047-3.06-1.34-1.12-0.293-2.2-0.44-3.24-0.44v0c-1.073 0-2.163 0.14-3.27 0.42-1.107 0.273-2.117 0.697-3.03 1.27-0.913 0.567-1.663 1.297-2.25 2.19-0.587 0.9-0.88 1.967-0.88 3.2zM526.07-15.04v0c0 2.247-0.103 4.477-0.31 6.69-0.213 2.213-0.32 4.443-0.32 6.69v0c0 0.747 0.05 1.48 0.15 2.2v0h-8.55c0.327-0.52 0.57-1.393 0.73-2.62 0.167-1.22 0.29-2.52 0.37-3.9 0.08-1.387 0.13-2.723 0.15-4.01 0.013-1.28 0.02-2.263 0.02-2.95v0c0-1.987-0.487-3.54-1.46-4.66-0.98-1.127-2.497-1.69-4.55-1.69v0c-0.68 0-1.337 0.123-1.97 0.37-0.633 0.247-1.237 0.563-1.81 0.95-0.567 0.393-1.103 0.833-1.61 1.32-0.507 0.487-0.953 0.973-1.34 1.46v0c-0.1 2.833-0.15 5.667-0.15 8.5v0c0 0.227 0 0.673 0 1.34 0 0.667 0.017 1.377 0.05 2.13 0.033 0.747 0.083 1.437 0.15 2.07 0.06 0.633 0.173 1.017 0.34 1.15v0h-8.65c0.133-0.193 0.267-0.673 0.4-1.44 0.127-0.767 0.24-1.677 0.34-2.73 0.093-1.06 0.173-2.193 0.24-3.4 0.067-1.207 0.123-2.363 0.17-3.47 0.053-1.107 0.087-2.08 0.1-2.92 0.013-0.847 0.02-1.433 0.02-1.76v0c0-0.26-0.007-0.807-0.02-1.64-0.013-0.827-0.053-1.69-0.12-2.59-0.067-0.893-0.173-1.713-0.32-2.46-0.147-0.753-0.367-1.177-0.66-1.27v0l8.55 0.05-0.15 2.34c1.207-0.88 2.55-1.603 4.03-2.17 1.48-0.573 2.983-0.86 4.51-0.86v0c1.5 0 2.957 0.157 4.37 0.47 1.42 0.307 2.667 0.827 3.74 1.56 1.073 0.733 1.937 1.687 2.59 2.86 0.647 1.167 0.97 2.63 0.97 4.39zM551.86-41.06v0c1.56 0 3.017 0.153 4.37 0.46 1.347 0.307 2.51 0.827 3.49 1.56 0.973 0.733 1.747 1.693 2.32 2.88 0.567 1.187 0.85 2.643 0.85 4.37v0c0 0.78-0.05 1.563-0.15 2.35-0.093 0.78-0.223 1.56-0.39 2.34v0c-0.06 0.36-0.14 0.727-0.24 1.1-0.1 0.373-0.15 0.74-0.15 1.1v0 0.14l-7.71-1.46c0.193-0.293 0.357-0.65 0.49-1.07 0.127-0.427 0.23-0.877 0.31-1.35 0.087-0.473 0.153-0.937 0.2-1.39 0.047-0.453 0.07-0.86 0.07-1.22v0c0-1.76-0.413-3.167-1.24-4.22-0.833-1.06-2.177-1.59-4.03-1.59v0c-1.433 0-2.703 0.34-3.81 1.02-1.107 0.687-2.043 1.567-2.81 2.64-0.76 1.073-1.347 2.277-1.76 3.61-0.407 1.34-0.61 2.643-0.61 3.91v0c0 0.747-0.007 1.487-0.02 2.22-0.013 0.733-0.02 1.473-0.02 2.22v0c1.04-0.027 2.097-0.05 3.17-0.07 1.073-0.013 2.147-0.053 3.22-0.12v0c0.553-0.033 1.157-0.067 1.81-0.1 0.653-0.033 1.257-0.13 1.81-0.29v0l-0.15 4.93c-0.26-0.1-0.847-0.18-1.76-0.24-0.913-0.067-1.907-0.117-2.98-0.15-1.073-0.033-2.097-0.05-3.07-0.05-0.98 0-1.68 0-2.1 0v0 4.88c0 0.26 0 0.727 0 1.4 0 0.667 0.007 1.43 0.02 2.29 0.02 0.86 0.037 1.763 0.05 2.71 0.013 0.947 0.037 1.827 0.07 2.64 0.033 0.813 0.083 1.503 0.15 2.07 0.067 0.573 0.147 0.923 0.24 1.05v0h-7.86c0.133-0.127 0.233-0.51 0.3-1.15 0.06-0.633 0.107-1.333 0.14-2.1 0.033-0.76 0.05-1.49 0.05-2.19 0-0.7 0-1.18 0-1.44v0c0-3.353-0.05-6.723-0.15-10.11v0c-0.907 0-1.833-0.007-2.78-0.02-0.94-0.02-1.85 0.067-2.73 0.26v0l-0.15-4.44c0.327 0.1 0.733 0.173 1.22 0.22 0.487 0.047 1 0.08 1.54 0.1 0.533 0.013 1.053 0.02 1.56 0.02 0.507 0 0.94 0 1.3 0v0c-0.033-0.487-0.067-0.967-0.1-1.44-0.033-0.473-0.05-0.937-0.05-1.39v0c0-2.507 0.473-4.9 1.42-7.18v0c0.747-1.753 1.69-3.25 2.83-4.49 1.14-1.24 2.423-2.25 3.85-3.03 1.433-0.78 2.99-1.34 4.67-1.68 1.673-0.34 3.44-0.51 5.3-0.51zM569.43 0.73v0c-1.593 0-3.283-0.21-5.07-0.63-1.793-0.427-3.447-1.087-4.96-1.98-1.513-0.893-2.767-2.023-3.76-3.39-0.993-1.367-1.49-2.997-1.49-4.89v0c0-2.307 0.457-4.373 1.37-6.2 0.907-1.82 2.127-3.357 3.66-4.61 1.527-1.253 3.3-2.213 5.32-2.88 2.02-0.667 4.137-1 6.35-1v0c1.76 0 3.323 0.283 4.69 0.85 1.367 0.573 2.507 1.37 3.42 2.39 0.907 1.027 1.597 2.24 2.07 3.64 0.473 1.4 0.71 2.947 0.71 4.64v0c0 1.627-0.243 3.19-0.73 4.69v0h-20.37c0.327 0.973 0.84 1.77 1.54 2.39 0.7 0.62 1.5 1.1 2.4 1.44 0.893 0.34 1.837 0.577 2.83 0.71 0.993 0.127 1.927 0.19 2.8 0.19v0c0.553 0 1.297-0.04 2.23-0.12 0.927-0.08 1.877-0.21 2.85-0.39 0.98-0.18 1.9-0.4 2.76-0.66 0.867-0.26 1.51-0.583 1.93-0.97v0l2.39 4.19c-2.147 0.82-4.26 1.457-6.34 1.91-2.087 0.453-4.287 0.68-6.6 0.68zM569.43-20.26v0c-0.973 0-1.94 0.193-2.9 0.58-0.96 0.393-1.83 0.907-2.61 1.54-0.787 0.633-1.47 1.383-2.05 2.25-0.587 0.86-1.01 1.747-1.27 2.66v0h13.96c0.1-0.98 0.107-1.9 0.02-2.76-0.08-0.867-0.297-1.617-0.65-2.25-0.36-0.633-0.9-1.13-1.62-1.49-0.713-0.353-1.673-0.53-2.88-0.53zM593.6-18.55v0c0.787-0.653 1.69-1.273 2.71-1.86 1.027-0.587 2.103-1.1 3.23-1.54 1.12-0.44 2.257-0.79 3.41-1.05 1.16-0.26 2.243-0.39 3.25-0.39v0 4.2c-1.04 0-2.197 0.227-3.47 0.68-1.267 0.46-2.51 1.047-3.73 1.76-1.22 0.72-2.32 1.533-3.3 2.44-0.973 0.913-1.69 1.843-2.15 2.79v0c0 0.227 0.01 0.65 0.03 1.27 0.013 0.613 0.03 1.327 0.05 2.14 0.013 0.82 0.037 1.677 0.07 2.57 0.033 0.893 0.083 1.73 0.15 2.51 0.067 0.78 0.13 1.447 0.19 2 0.067 0.553 0.15 0.897 0.25 1.03v0h-7.91c0.127-0.067 0.24-0.417 0.34-1.05 0.1-0.633 0.173-1.407 0.22-2.32 0.047-0.913 0.093-1.897 0.14-2.95 0.053-1.06 0.087-2.08 0.1-3.06 0.02-0.973 0.03-1.817 0.03-2.53 0-0.72 0-1.193 0-1.42v0c0-0.293 0-0.913 0-1.86 0-0.94-0.017-1.93-0.05-2.97-0.033-1.047-0.083-2.017-0.15-2.91-0.067-0.893-0.163-1.44-0.29-1.64v0h7.23c-0.067 0.2-0.117 0.487-0.15 0.86-0.033 0.373-0.067 0.773-0.1 1.2-0.033 0.42-0.057 0.827-0.07 1.22-0.02 0.387-0.03 0.68-0.03 0.88zM622.02 0.73v0c-1.593 0-3.287-0.21-5.08-0.63-1.787-0.427-3.437-1.087-4.95-1.98-1.513-0.893-2.767-2.023-3.76-3.39-0.993-1.367-1.49-2.997-1.49-4.89v0c0-2.307 0.457-4.373 1.37-6.2 0.907-1.82 2.127-3.357 3.66-4.61 1.527-1.253 3.3-2.213 5.32-2.88 2.02-0.667 4.137-1 6.35-1v0c1.753 0 3.317 0.283 4.69 0.85 1.367 0.573 2.503 1.37 3.41 2.39 0.913 1.027 1.607 2.24 2.08 3.64 0.473 1.4 0.71 2.947 0.71 4.64v0c0 1.627-0.247 3.19-0.74 4.69v0h-20.36c0.327 0.973 0.84 1.77 1.54 2.39 0.7 0.62 1.497 1.1 2.39 1.44 0.9 0.34 1.847 0.577 2.84 0.71 0.987 0.127 1.92 0.19 2.8 0.19v0c0.553 0 1.293-0.04 2.22-0.12 0.933-0.08 1.887-0.21 2.86-0.39 0.98-0.18 1.9-0.4 2.76-0.66 0.86-0.26 1.503-0.583 1.93-0.97v0l2.39 4.19c-2.147 0.82-4.263 1.457-6.35 1.91-2.08 0.453-4.277 0.68-6.59 0.68zM622.02-20.26v0c-0.973 0-1.94 0.193-2.9 0.58-0.96 0.393-1.833 0.907-2.62 1.54-0.78 0.633-1.463 1.383-2.05 2.25-0.587 0.86-1.01 1.747-1.27 2.66v0h13.97c0.093-0.98 0.1-1.9 0.02-2.76-0.08-0.867-0.3-1.617-0.66-2.25-0.353-0.633-0.89-1.13-1.61-1.49-0.713-0.353-1.673-0.53-2.88-0.53zM667.97-15.04v0c0 2.247-0.107 4.477-0.32 6.69-0.213 2.213-0.32 4.443-0.32 6.69v0c0 0.747 0.05 1.48 0.15 2.2v0h-8.54c0.32-0.52 0.563-1.393 0.73-2.62 0.16-1.22 0.28-2.52 0.36-3.9 0.087-1.387 0.137-2.723 0.15-4.01 0.02-1.28 0.03-2.263 0.03-2.95v0c0-1.987-0.49-3.54-1.47-4.66-0.973-1.127-2.487-1.69-4.54-1.69v0c-0.687 0-1.347 0.123-1.98 0.37-0.633 0.247-1.233 0.563-1.8 0.95-0.573 0.393-1.113 0.833-1.62 1.32-0.5 0.487-0.947 0.973-1.34 1.46v0c-0.1 2.833-0.15 5.667-0.15 8.5v0c0 0.227 0 0.673 0 1.34 0 0.667 0.017 1.377 0.05 2.13 0.033 0.747 0.083 1.437 0.15 2.07 0.067 0.633 0.18 1.017 0.34 1.15v0h-8.64c0.127-0.193 0.257-0.673 0.39-1.44 0.127-0.767 0.24-1.677 0.34-2.73 0.1-1.06 0.183-2.193 0.25-3.4 0.06-1.207 0.117-2.363 0.17-3.47 0.047-1.107 0.077-2.08 0.09-2.92 0.02-0.847 0.03-1.433 0.03-1.76v0c0-0.26-0.01-0.807-0.03-1.64-0.013-0.827-0.053-1.69-0.12-2.59-0.067-0.893-0.173-1.713-0.32-2.46-0.147-0.753-0.363-1.177-0.65-1.27v0l8.54 0.05-0.15 2.34c1.207-0.88 2.55-1.603 4.03-2.17 1.48-0.573 2.987-0.86 4.52-0.86v0c1.493 0 2.95 0.157 4.37 0.47 1.413 0.307 2.657 0.827 3.73 1.56 1.08 0.733 1.943 1.687 2.59 2.86 0.653 1.167 0.98 2.63 0.98 4.39zM692.24-13.82c0.42-0.453 0.843-0.99 1.27-1.61 0.42-0.62 0.63-1.24 0.63-1.86v0c0-0.58-0.21-1.06-0.63-1.44-0.427-0.373-0.933-0.657-1.52-0.85-0.587-0.193-1.197-0.333-1.83-0.42-0.633-0.08-1.163-0.12-1.59-0.12v0c-1.333 0-2.587 0.237-3.76 0.71-1.167 0.473-2.19 1.123-3.07 1.95-0.88 0.833-1.573 1.82-2.08 2.96-0.5 1.14-0.75 2.393-0.75 3.76v0c0 1.267 0.267 2.277 0.8 3.03 0.54 0.747 1.223 1.307 2.05 1.68 0.833 0.373 1.77 0.61 2.81 0.71 1.04 0.093 2.083 0.14 3.13 0.14v0c1.593 0 3.253-0.13 4.98-0.39 1.72-0.26 3.347-0.617 4.88-1.07v0l1.32 4.35c-1.567 0.58-3.31 1.01-5.23 1.29-1.92 0.273-3.727 0.41-5.42 0.41v0c-1.007 0-2.103-0.057-3.29-0.17-1.193-0.113-2.39-0.307-3.59-0.58-1.207-0.28-2.37-0.647-3.49-1.1-1.127-0.46-2.13-1.047-3.01-1.76-0.873-0.713-1.573-1.567-2.1-2.56-0.52-0.993-0.78-2.143-0.78-3.45v0c0-2.373 0.58-4.463 1.74-6.27 1.153-1.807 2.633-3.32 4.44-4.54 1.807-1.22 3.81-2.14 6.01-2.76 2.193-0.62 4.35-0.93 6.47-0.93v0c1.167 0 2.337 0.09 3.51 0.27 1.173 0.18 2.23 0.513 3.17 1 0.947 0.487 1.713 1.17 2.3 2.05 0.587 0.88 0.88 2.02 0.88 3.42v0c0 0.72-0.067 1.42-0.2 2.1-0.127 0.687-0.29 1.37-0.49 2.05v0zM718.55 0.73v0c-1.593 0-3.283-0.21-5.07-0.63-1.793-0.427-3.447-1.087-4.96-1.98-1.513-0.893-2.767-2.023-3.76-3.39-0.993-1.367-1.49-2.997-1.49-4.89v0c0-2.307 0.457-4.373 1.37-6.2 0.913-1.82 2.133-3.357 3.66-4.61 1.533-1.253 3.307-2.213 5.32-2.88 2.02-0.667 4.137-1 6.35-1v0c1.76 0 3.323 0.283 4.69 0.85 1.367 0.573 2.507 1.37 3.42 2.39 0.907 1.027 1.597 2.24 2.07 3.64 0.473 1.4 0.71 2.947 0.71 4.64v0c0 1.627-0.243 3.19-0.73 4.69v0h-20.36c0.32 0.973 0.83 1.77 1.53 2.39 0.7 0.62 1.5 1.1 2.4 1.44 0.893 0.34 1.837 0.577 2.83 0.71 0.993 0.127 1.93 0.19 2.81 0.19v0c0.553 0 1.293-0.04 2.22-0.12 0.927-0.08 1.877-0.21 2.85-0.39 0.98-0.18 1.9-0.4 2.76-0.66 0.867-0.26 1.51-0.583 1.93-0.97v0l2.39 4.19c-2.147 0.82-4.26 1.457-6.34 1.91-2.087 0.453-4.287 0.68-6.6 0.68zM718.55-20.26v0c-0.973 0-1.94 0.193-2.9 0.58-0.96 0.393-1.83 0.907-2.61 1.54-0.78 0.633-1.463 1.383-2.05 2.25-0.587 0.86-1.01 1.747-1.27 2.66v0h13.96c0.1-0.98 0.11-1.9 0.03-2.76-0.087-0.867-0.307-1.617-0.66-2.25-0.36-0.633-0.897-1.13-1.61-1.49-0.72-0.353-1.683-0.53-2.89-0.53zM753.76-22.85v0l8.59 0.05c-0.16 0.033-0.28 0.17-0.36 0.41-0.08 0.247-0.153 0.433-0.22 0.56v0c-0.227 0.813-0.4 1.8-0.52 2.96-0.113 1.153-0.193 2.357-0.24 3.61-0.047 1.253-0.08 2.467-0.1 3.64-0.013 1.173-0.02 2.2-0.02 3.08v0c0 0.287 0 0.88 0 1.78 0 0.893 0.023 1.843 0.07 2.85 0.053 1.013 0.127 1.933 0.22 2.76 0.1 0.833 0.247 1.347 0.44 1.54v0h-8.64c0.16-0.227 0.323-0.763 0.49-1.61 0.16-0.847 0.297-1.857 0.41-3.03 0.113-1.173 0.22-2.433 0.32-3.78 0.1-1.353 0.19-2.64 0.27-3.86 0.08-1.22 0.137-2.31 0.17-3.27 0.033-0.96 0.05-1.62 0.05-1.98v0c0-0.193 0-0.583 0-1.17 0-0.587-0.033-1.197-0.1-1.83-0.067-0.633-0.163-1.22-0.29-1.76-0.133-0.54-0.313-0.857-0.54-0.95zM758.01-34.67v0c0.42 0 0.89 0.067 1.41 0.2 0.527 0.127 1.007 0.313 1.44 0.56 0.44 0.247 0.807 0.573 1.1 0.98 0.293 0.407 0.44 0.87 0.44 1.39v0c0 0.52-0.147 0.973-0.44 1.36-0.293 0.393-0.66 0.713-1.1 0.96-0.433 0.24-0.913 0.427-1.44 0.56-0.52 0.127-0.99 0.19-1.41 0.19v0c-0.46 0-0.94-0.063-1.44-0.19-0.507-0.133-0.98-0.32-1.42-0.56-0.44-0.247-0.807-0.567-1.1-0.96-0.293-0.387-0.44-0.84-0.44-1.36v0c0-0.52 0.147-0.983 0.44-1.39 0.293-0.407 0.66-0.733 1.1-0.98 0.44-0.247 0.913-0.433 1.42-0.56 0.5-0.133 0.98-0.2 1.44-0.2zM795.9-15.04v0c0 2.247-0.107 4.477-0.32 6.69-0.213 2.213-0.32 4.443-0.32 6.69v0c0 0.747 0.05 1.48 0.15 2.2v0h-8.54c0.32-0.52 0.563-1.393 0.73-2.62 0.16-1.22 0.28-2.52 0.36-3.9 0.087-1.387 0.137-2.723 0.15-4.01 0.013-1.28 0.02-2.263 0.02-2.95v0c0-1.987-0.487-3.54-1.46-4.66-0.973-1.127-2.487-1.69-4.54-1.69v0c-0.687 0-1.347 0.123-1.98 0.37-0.633 0.247-1.237 0.563-1.81 0.95-0.567 0.393-1.103 0.833-1.61 1.32-0.5 0.487-0.947 0.973-1.34 1.46v0c-0.1 2.833-0.15 5.667-0.15 8.5v0c0 0.227 0 0.673 0 1.34 0 0.667 0.017 1.377 0.05 2.13 0.033 0.747 0.083 1.437 0.15 2.07 0.067 0.633 0.18 1.017 0.34 1.15v0h-8.64c0.127-0.193 0.257-0.673 0.39-1.44 0.127-0.767 0.24-1.677 0.34-2.73 0.1-1.06 0.183-2.193 0.25-3.4 0.06-1.207 0.117-2.363 0.17-3.47 0.047-1.107 0.077-2.08 0.09-2.92 0.02-0.847 0.03-1.433 0.03-1.76v0c0-0.26-0.01-0.807-0.03-1.64-0.013-0.827-0.053-1.69-0.12-2.59-0.067-0.893-0.173-1.713-0.32-2.46-0.147-0.753-0.363-1.177-0.65-1.27v0l8.54 0.05-0.15 2.34c1.207-0.88 2.55-1.603 4.03-2.17 1.48-0.573 2.987-0.86 4.52-0.86v0c1.493 0 2.95 0.157 4.37 0.47 1.413 0.307 2.657 0.827 3.73 1.56 1.08 0.733 1.943 1.687 2.59 2.86 0.653 1.167 0.98 2.63 0.98 4.39zM842.04-17.29v0c1.007 0.36 2.033 0.77 3.08 1.23 1.04 0.453 1.967 0.99 2.78 1.61 0.813 0.613 1.48 1.303 2 2.07 0.52 0.767 0.78 1.637 0.78 2.61v0c0 1.467-0.437 2.73-1.31 3.79-0.88 1.06-2.02 1.953-3.42 2.68-1.4 0.733-2.98 1.33-4.74 1.79-1.76 0.453-3.527 0.81-5.3 1.07-1.773 0.26-3.467 0.43-5.08 0.51-1.607 0.087-2.963 0.143-4.07 0.17v0c-3.127 0.067-6.253 0.067-9.38 0v0c0.327-0.747 0.58-1.853 0.76-3.32 0.18-1.46 0.317-3.003 0.41-4.63v0c0.067-1.693 0.1-3.33 0.1-4.91 0-1.58 0-2.81 0-3.69v0c0-0.327 0-0.987 0-1.98 0-0.993-0.017-2.147-0.05-3.46-0.033-1.32-0.073-2.73-0.12-4.23-0.047-1.493-0.12-2.917-0.22-4.27-0.093-1.353-0.207-2.567-0.34-3.64-0.133-1.073-0.297-1.837-0.49-2.29v0c1.793 0 3.48 0 5.06 0 1.573 0 3.133 0.007 4.68 0.02 1.547 0.02 3.11 0.07 4.69 0.15 1.58 0.08 3.25 0.217 5.01 0.41v0c0.94 0.1 1.997 0.23 3.17 0.39 1.173 0.167 2.353 0.387 3.54 0.66 1.187 0.28 2.343 0.64 3.47 1.08 1.12 0.44 2.12 0.993 3 1.66 0.88 0.667 1.58 1.447 2.1 2.34 0.52 0.893 0.78 1.96 0.78 3.2v0c0 1.24-0.333 2.34-1 3.3-0.667 0.96-1.53 1.797-2.59 2.51-1.06 0.72-2.23 1.34-3.51 1.86-1.287 0.52-2.55 0.957-3.79 1.31zM836.47-31.25v0c-1.007-0.133-2.03-0.24-3.07-0.32-1.04-0.08-2.033-0.127-2.98-0.14-0.947-0.02-1.81-0.03-2.59-0.03-0.78 0-1.43 0-1.95 0v0c-0.1 2.02-0.173 3.997-0.22 5.93-0.047 1.94-0.087 3.937-0.12 5.99v0c0.68 0 1.46-0.01 2.34-0.03 0.88-0.013 1.817-0.047 2.81-0.1 0.993-0.047 2.01-0.127 3.05-0.24 1.04-0.113 2.05-0.267 3.03-0.46v0c0.973-0.2 1.917-0.447 2.83-0.74 0.913-0.293 1.72-0.667 2.42-1.12 0.7-0.453 1.26-0.99 1.68-1.61 0.427-0.62 0.64-1.353 0.64-2.2v0c0-0.747-0.22-1.397-0.66-1.95-0.44-0.553-1.027-1.027-1.76-1.42-0.733-0.387-1.573-0.703-2.52-0.95-0.94-0.247-1.917-0.45-2.93-0.61zM835.21-14.11v0c-1.827-0.293-3.633-0.463-5.42-0.51-1.793-0.053-3.21-0.097-4.25-0.13v0c0 1.793 0.017 3.537 0.05 5.23 0.027 1.693 0.09 3.433 0.19 5.22v0c0.487 0 1.08 0 1.78 0 0.7 0 1.473-0.023 2.32-0.07 0.847-0.047 1.733-0.113 2.66-0.2 0.933-0.08 1.837-0.2 2.71-0.36v0c0.88-0.167 1.737-0.37 2.57-0.61 0.827-0.247 1.557-0.557 2.19-0.93 0.64-0.373 1.153-0.82 1.54-1.34 0.393-0.52 0.59-1.14 0.59-1.86v0c0-0.647-0.197-1.217-0.59-1.71-0.387-0.487-0.907-0.91-1.56-1.27-0.653-0.353-1.393-0.647-2.22-0.88-0.833-0.227-1.687-0.42-2.56-0.58zM871.68-23.54v0c1.793 0 3.68 0.253 5.66 0.76 1.987 0.507 3.793 1.273 5.42 2.3 1.633 1.02 2.987 2.313 4.06 3.88 1.073 1.56 1.61 3.4 1.61 5.52v0c0 1.4-0.26 2.66-0.78 3.78-0.52 1.12-1.213 2.113-2.08 2.98-0.86 0.86-1.86 1.607-3 2.24-1.14 0.64-2.337 1.163-3.59 1.57-1.253 0.407-2.53 0.707-3.83 0.9-1.307 0.193-2.53 0.29-3.67 0.29v0c-1.853 0-3.757-0.21-5.71-0.63-1.953-0.427-3.737-1.11-5.35-2.05-1.607-0.947-2.923-2.177-3.95-3.69-1.027-1.513-1.54-3.377-1.54-5.59v0c0-2.18 0.53-4.043 1.59-5.59 1.06-1.547 2.403-2.817 4.03-3.81 1.627-0.993 3.423-1.717 5.39-2.17 1.973-0.46 3.887-0.69 5.74-0.69zM862.26-11.33v0c0 1.273 0.283 2.347 0.85 3.22 0.567 0.88 1.3 1.597 2.2 2.15 0.893 0.553 1.893 0.953 3 1.2 1.107 0.247 2.197 0.37 3.27 0.37v0c1.013 0 2.073-0.133 3.18-0.4 1.107-0.26 2.13-0.667 3.07-1.22 0.947-0.553 1.73-1.26 2.35-2.12 0.613-0.86 0.92-1.893 0.92-3.1v0c0-1.207-0.293-2.257-0.88-3.15-0.58-0.893-1.327-1.643-2.24-2.25-0.913-0.6-1.93-1.047-3.05-1.34-1.127-0.293-2.21-0.44-3.25-0.44v0c-1.073 0-2.163 0.14-3.27 0.42-1.107 0.273-2.117 0.697-3.03 1.27-0.913 0.567-1.663 1.297-2.25 2.19-0.58 0.9-0.87 1.967-0.87 3.2zM912.01-14.4c0.193-0.553 0.357-1.133 0.49-1.74 0.133-0.6 0.2-1.21 0.2-1.83v0c0-1.367-0.367-2.383-1.1-3.05-0.733-0.667-1.783-1-3.15-1v0c-0.78 0-1.7 0.09-2.76 0.27-1.06 0.18-2.06 0.48-3 0.9-0.947 0.427-1.753 0.98-2.42 1.66-0.667 0.687-1 1.533-1 2.54v0c0 0.747 0.367 1.373 1.1 1.88 0.727 0.507 1.58 0.913 2.56 1.22 0.973 0.307 1.957 0.543 2.95 0.71 0.993 0.16 1.75 0.29 2.27 0.39v0c0.82 0.16 1.853 0.363 3.1 0.61 1.253 0.247 2.467 0.603 3.64 1.07 1.173 0.473 2.183 1.06 3.03 1.76 0.847 0.7 1.27 1.587 1.27 2.66v0c0 1.207-0.473 2.217-1.42 3.03-0.94 0.813-2.07 1.463-3.39 1.95-1.32 0.493-2.697 0.843-4.13 1.05-1.427 0.213-2.613 0.32-3.56 0.32v0c-1.953 0-3.89-0.14-5.81-0.42-1.92-0.273-3.81-0.737-5.67-1.39v0c-0.227-0.093-0.6-0.247-1.12-0.46-0.52-0.213-1.063-0.44-1.63-0.68-0.573-0.247-1.103-0.467-1.59-0.66-0.487-0.2-0.797-0.3-0.93-0.3v0c0.067-0.033 0.297-0.227 0.69-0.58 0.387-0.36 0.8-0.76 1.24-1.2 0.44-0.44 0.84-0.853 1.2-1.24 0.353-0.393 0.547-0.64 0.58-0.74v0c1.66 1.24 3.507 2.153 5.54 2.74 2.04 0.587 4.083 0.88 6.13 0.88v0c0.227 0 0.667-0.027 1.32-0.08 0.653-0.047 1.33-0.133 2.03-0.26 0.7-0.133 1.327-0.313 1.88-0.54 0.553-0.227 0.83-0.52 0.83-0.88v0c0-0.52-0.457-0.943-1.37-1.27-0.913-0.327-2.06-0.637-3.44-0.93-1.387-0.293-2.877-0.617-4.47-0.97-1.593-0.36-3.083-0.827-4.47-1.4-1.38-0.567-2.527-1.273-3.44-2.12-0.913-0.847-1.37-1.937-1.37-3.27v0c0-1.953 0.53-3.623 1.59-5.01 1.06-1.38 2.387-2.503 3.98-3.37 1.593-0.86 3.317-1.487 5.17-1.88 1.86-0.387 3.603-0.58 5.23-0.58v0c1.333 0 2.62 0.107 3.86 0.32 1.233 0.207 2.323 0.587 3.27 1.14 0.94 0.553 1.697 1.32 2.27 2.3 0.567 0.973 0.85 2.243 0.85 3.81v0c0 0.78-0.057 1.56-0.17 2.34-0.113 0.78-0.25 1.547-0.41 2.3v0zM952.69-15.04v0c0 2.247-0.107 4.477-0.32 6.69-0.213 2.213-0.32 4.443-0.32 6.69v0c0 0.747 0.05 1.48 0.15 2.2v0h-8.55c0.327-0.52 0.57-1.393 0.73-2.62 0.167-1.22 0.29-2.52 0.37-3.9 0.08-1.387 0.13-2.723 0.15-4.01 0.013-1.28 0.02-2.263 0.02-2.95v0c0-1.987-0.487-3.54-1.46-4.66-0.98-1.127-2.493-1.69-4.54-1.69v0c-0.687 0-1.347 0.123-1.98 0.37-0.633 0.247-1.237 0.563-1.81 0.95-0.567 0.393-1.103 0.833-1.61 1.32-0.507 0.487-0.953 0.973-1.34 1.46v0c-0.1 2.833-0.15 5.667-0.15 8.5v0c0 0.227 0 0.673 0 1.34 0 0.667 0.017 1.377 0.05 2.13 0.033 0.747 0.083 1.437 0.15 2.07 0.06 0.633 0.173 1.017 0.34 1.15v0h-8.64c0.127-0.193 0.257-0.673 0.39-1.44 0.127-0.767 0.24-1.677 0.34-2.73 0.093-1.06 0.173-2.193 0.24-3.4 0.067-1.207 0.123-2.363 0.17-3.47 0.053-1.107 0.087-2.08 0.1-2.92 0.02-0.847 0.03-1.433 0.03-1.76v0c0-0.26-0.01-0.807-0.03-1.64-0.013-0.827-0.053-1.69-0.12-2.59-0.067-0.893-0.173-1.713-0.32-2.46-0.147-0.753-0.367-1.177-0.66-1.27v0l8.55 0.05-0.15 2.34c1.207-0.88 2.55-1.603 4.03-2.17 1.48-0.573 2.987-0.86 4.52-0.86v0c1.493 0 2.95 0.157 4.37 0.47 1.413 0.307 2.657 0.827 3.73 1.56 1.073 0.733 1.937 1.687 2.59 2.86 0.653 1.167 0.98 2.63 0.98 4.39zM958.45-22.85v0l8.59 0.05c-0.16 0.033-0.283 0.17-0.37 0.41-0.08 0.247-0.15 0.433-0.21 0.56v0c-0.233 0.813-0.407 1.8-0.52 2.96-0.113 1.153-0.193 2.357-0.24 3.61-0.047 1.253-0.08 2.467-0.1 3.64-0.013 1.173-0.02 2.2-0.02 3.08v0c0 0.287 0 0.88 0 1.78 0 0.893 0.023 1.843 0.07 2.85 0.047 1.013 0.12 1.933 0.22 2.76 0.1 0.833 0.247 1.347 0.44 1.54v0h-8.64c0.16-0.227 0.32-0.763 0.48-1.61 0.167-0.847 0.307-1.857 0.42-3.03 0.113-1.173 0.22-2.433 0.32-3.78 0.093-1.353 0.183-2.64 0.27-3.86 0.08-1.22 0.137-2.31 0.17-3.27 0.033-0.96 0.05-1.62 0.05-1.98v0c0-0.193 0-0.583 0-1.17 0-0.587-0.033-1.197-0.1-1.83-0.067-0.633-0.167-1.22-0.3-1.76-0.127-0.54-0.303-0.857-0.53-0.95zM962.7-34.67v0c0.42 0 0.89 0.067 1.41 0.2 0.52 0.127 1 0.313 1.44 0.56 0.44 0.247 0.807 0.573 1.1 0.98 0.293 0.407 0.44 0.87 0.44 1.39v0c0 0.52-0.147 0.973-0.44 1.36-0.293 0.393-0.66 0.713-1.1 0.96-0.44 0.24-0.92 0.427-1.44 0.56-0.52 0.127-0.99 0.19-1.41 0.19v0c-0.46 0-0.943-0.063-1.45-0.19-0.5-0.133-0.97-0.32-1.41-0.56-0.44-0.247-0.807-0.567-1.1-0.96-0.293-0.387-0.44-0.84-0.44-1.36v0c0-0.52 0.147-0.983 0.44-1.39 0.293-0.407 0.66-0.733 1.1-0.98 0.44-0.247 0.91-0.433 1.41-0.56 0.507-0.133 0.99-0.2 1.45-0.2zM998.54 0.59h-9.04c0.553-0.167 0.897-0.533 1.03-1.1 0.127-0.573 0.207-1.087 0.24-1.54v0c-1.467 0.453-2.947 0.793-4.44 1.02-1.5 0.233-2.997 0.35-4.49 0.35v0c-0.98 0-2.147-0.083-3.5-0.25-1.347-0.16-2.63-0.47-3.85-0.93-1.22-0.453-2.263-1.087-3.13-1.9-0.86-0.813-1.29-1.887-1.29-3.22v0c0-1.14 0.413-2.117 1.24-2.93 0.833-0.813 1.9-1.49 3.2-2.03 1.3-0.533 2.767-0.947 4.4-1.24 1.627-0.293 3.22-0.523 4.78-0.69 1.567-0.16 3.033-0.257 4.4-0.29 1.367-0.033 2.44-0.067 3.22-0.1v0c0-0.453 0.007-0.893 0.02-1.32 0.02-0.42 0.03-0.857 0.03-1.31v0c0-0.82-0.147-1.53-0.44-2.13-0.293-0.6-0.693-1.097-1.2-1.49-0.507-0.387-1.1-0.67-1.78-0.85-0.687-0.18-1.403-0.27-2.15-0.27v0c-0.713 0-1.487 0.097-2.32 0.29-0.827 0.2-1.617 0.493-2.37 0.88-0.747 0.393-1.397 0.89-1.95 1.49-0.553 0.6-0.893 1.293-1.02 2.08v0l-6.16-0.83c0.587-1.5 1.4-2.77 2.44-3.81 1.047-1.047 2.227-1.893 3.54-2.54 1.32-0.653 2.73-1.133 4.23-1.44 1.493-0.313 2.99-0.47 4.49-0.47v0c1.433 0 2.823 0.18 4.17 0.54 1.353 0.36 2.56 0.907 3.62 1.64 1.053 0.727 1.9 1.66 2.54 2.8 0.633 1.14 0.95 2.493 0.95 4.06v0c0 1.66-0.023 3.31-0.07 4.95-0.053 1.647-0.08 3.3-0.08 4.96v0c0 0.293 0 0.823 0 1.59 0 0.76 0.027 1.557 0.08 2.39 0.047 0.827 0.12 1.59 0.22 2.29 0.093 0.7 0.24 1.15 0.44 1.35zM976.71-6.98v0c0 0.487 0.26 0.86 0.78 1.12 0.52 0.26 1.13 0.463 1.83 0.61 0.7 0.147 1.393 0.237 2.08 0.27 0.68 0.033 1.167 0.05 1.46 0.05v0c1.367 0 2.75-0.097 4.15-0.29 1.4-0.2 2.75-0.51 4.05-0.93v0c0.033-0.587 0.06-1.173 0.08-1.76 0.013-0.587 0.02-1.157 0.02-1.71v0l-1.27-0.05c-0.293 0-0.82 0.01-1.58 0.03-0.767 0.013-1.64 0.043-2.62 0.09-0.973 0.053-1.99 0.137-3.05 0.25-1.06 0.113-2.027 0.267-2.9 0.46-0.88 0.2-1.607 0.453-2.18 0.76-0.567 0.307-0.85 0.673-0.85 1.1zM1047.41-10.25v0c-0.193 0-0.477 0.063-0.85 0.19-0.373 0.133-0.773 0.28-1.2 0.44-0.42 0.16-0.827 0.313-1.22 0.46-0.393 0.147-0.687 0.253-0.88 0.32v0c-1.753 0.62-3.623 1.11-5.61 1.47v0c0 0.16 0.007 0.443 0.02 0.85 0.02 0.407 0.053 0.83 0.1 1.27 0.047 0.44 0.11 0.847 0.19 1.22 0.087 0.373 0.193 0.61 0.32 0.71v0h-8.69c0.1-0.1 0.19-0.313 0.27-0.64 0.08-0.32 0.153-0.667 0.22-1.04 0.067-0.38 0.123-0.74 0.17-1.08 0.047-0.34 0.087-0.593 0.12-0.76v0c-0.587 0-1.293-0.04-2.12-0.12-0.833-0.08-1.72-0.2-2.66-0.36-0.947-0.167-1.883-0.387-2.81-0.66-0.927-0.28-1.757-0.63-2.49-1.05-0.733-0.427-1.337-0.917-1.81-1.47-0.473-0.553-0.71-1.187-0.71-1.9v0c0-0.62 0.22-1.173 0.66-1.66 0.44-0.487 0.963-0.91 1.57-1.27 0.6-0.36 1.233-0.653 1.9-0.88 0.667-0.227 1.243-0.407 1.73-0.54v0c-0.327-0.193-0.66-0.42-1-0.68-0.34-0.26-0.657-0.56-0.95-0.9-0.293-0.347-0.53-0.713-0.71-1.1-0.18-0.393-0.27-0.8-0.27-1.22v0c0-1.373 0.343-2.563 1.03-3.57 0.68-1.007 1.543-1.877 2.59-2.61 1.04-0.733 2.177-1.327 3.41-1.78 1.24-0.46 2.43-0.803 3.57-1.03v0c0-0.193-0.017-0.503-0.05-0.93-0.033-0.42-0.073-0.857-0.12-1.31-0.053-0.46-0.143-0.877-0.27-1.25-0.133-0.373-0.297-0.593-0.49-0.66v0l8.64 0.1c-0.16 0-0.297 0.163-0.41 0.49-0.113 0.327-0.22 0.693-0.32 1.1-0.1 0.407-0.173 0.797-0.22 1.17-0.047 0.373-0.07 0.623-0.07 0.75v0c1.107 0.033 2.213 0.15 3.32 0.35 1.107 0.193 2.1 0.533 2.98 1.02 0.88 0.487 1.587 1.153 2.12 2 0.54 0.847 0.81 1.937 0.81 3.27v0c0 0.687-0.057 1.373-0.17 2.06-0.113 0.68-0.253 1.347-0.42 2v0h-6.49c0.42-1.04 0.63-2.083 0.63-3.13v0c0-1.333-0.397-2.26-1.19-2.78-0.8-0.52-1.82-0.78-3.06-0.78v0c-0.68 0-1.55 0.073-2.61 0.22-1.06 0.147-2.077 0.39-3.05 0.73-0.98 0.34-1.827 0.82-2.54 1.44-0.713 0.62-1.07 1.387-1.07 2.3v0c0 0.873 0.423 1.573 1.27 2.1 0.847 0.52 1.83 0.91 2.95 1.17 1.12 0.26 2.243 0.43 3.37 0.51 1.12 0.08 1.973 0.12 2.56 0.12v0l-0.14 3.22c-0.26 0-0.717 0.01-1.37 0.03-0.653 0.013-1.41 0.047-2.27 0.1-0.867 0.047-1.763 0.127-2.69 0.24-0.927 0.113-1.773 0.26-2.54 0.44-0.76 0.18-1.393 0.4-1.9 0.66-0.507 0.26-0.76 0.57-0.76 0.93v0c0 0.353 0.287 0.63 0.86 0.83 0.567 0.193 1.2 0.357 1.9 0.49 0.7 0.127 1.383 0.207 2.05 0.24 0.667 0.033 1.1 0.05 1.3 0.05v0c2.047 0 4.097-0.253 6.15-0.76 2.047-0.507 3.933-1.313 5.66-2.42v0c0 0.067 0.187 0.27 0.56 0.61 0.38 0.347 0.797 0.707 1.25 1.08 0.453 0.373 0.877 0.723 1.27 1.05 0.387 0.327 0.613 0.507 0.68 0.54zM1107.18-35.99c-0.427 0-0.77 0.377-1.03 1.13-0.26 0.747-0.47 1.69-0.63 2.83-0.167 1.14-0.29 2.4-0.37 3.78-0.08 1.387-0.137 2.713-0.17 3.98-0.033 1.273-0.05 2.397-0.05 3.37 0 0.98 0 1.647 0 2v0c0 1.953-0.007 3.883-0.02 5.79-0.02 1.907-0.03 3.837-0.03 5.79v0c0 0.26 0 0.763 0 1.51 0 0.747 0.017 1.52 0.05 2.32 0.033 0.8 0.107 1.54 0.22 2.22 0.113 0.687 0.27 1.11 0.47 1.27v0h-8.55c0.193-0.16 0.347-0.64 0.46-1.44 0.12-0.8 0.21-1.743 0.27-2.83 0.067-1.093 0.117-2.273 0.15-3.54 0.033-1.273 0.05-2.48 0.05-3.62 0-1.133 0-2.133 0-3 0-0.86 0-1.437 0-1.73v0c-3.287-0.133-6.56-0.217-9.82-0.25-3.253-0.033-6.523-0.05-9.81-0.05v0h-1.81c0 1.533-0.007 3.05-0.02 4.55-0.02 1.493-0.03 3.007-0.03 4.54v0c0 0.26 0 0.763 0 1.51 0 0.747 0.017 1.527 0.05 2.34 0.033 0.82 0.107 1.57 0.22 2.25 0.113 0.687 0.27 1.11 0.47 1.27v0h-8.55c0.193-0.193 0.357-0.82 0.49-1.88 0.127-1.06 0.233-2.337 0.32-3.83 0.08-1.5 0.127-3.13 0.14-4.89 0.02-1.753 0.03-3.43 0.03-5.03 0-1.593-0.01-3-0.03-4.22-0.013-1.22-0.02-2.073-0.02-2.56v0c0-0.26 0.007-0.773 0.02-1.54 0.02-0.767 0.02-1.637 0-2.61-0.013-0.98-0.043-2.007-0.09-3.08-0.053-1.073-0.143-2.067-0.27-2.98-0.133-0.907-0.313-1.67-0.54-2.29-0.227-0.62-0.503-0.98-0.83-1.08v0h10.94c-0.393 0-0.72 0.327-0.98 0.98-0.26 0.653-0.47 1.483-0.63 2.49-0.167 1.007-0.297 2.123-0.39 3.35-0.1 1.22-0.167 2.383-0.2 3.49-0.033 1.107-0.05 2.09-0.05 2.95 0 0.86 0 1.437 0 1.73v0c3.547 0.067 7.103 0.117 10.67 0.15 3.567 0.033 7.14 0 10.72-0.1v0-1.46c0-0.293 0.007-0.813 0.02-1.56 0.02-0.753 0.02-1.617 0-2.59-0.013-0.98-0.047-2.007-0.1-3.08-0.047-1.073-0.133-2.067-0.26-2.98-0.133-0.907-0.313-1.67-0.54-2.29-0.227-0.62-0.503-0.98-0.83-1.08v0zM1125.24 0.73v0c-1.593 0-3.283-0.21-5.07-0.63-1.793-0.427-3.447-1.087-4.96-1.98-1.513-0.893-2.767-2.023-3.76-3.39-0.993-1.367-1.49-2.997-1.49-4.89v0c0-2.307 0.457-4.373 1.37-6.2 0.913-1.82 2.133-3.357 3.66-4.61 1.533-1.253 3.307-2.213 5.32-2.88 2.02-0.667 4.137-1 6.35-1v0c1.76 0 3.323 0.283 4.69 0.85 1.367 0.573 2.507 1.37 3.42 2.39 0.907 1.027 1.597 2.24 2.07 3.64 0.473 1.4 0.71 2.947 0.71 4.64v0c0 1.627-0.243 3.19-0.73 4.69v0h-20.36c0.32 0.973 0.83 1.77 1.53 2.39 0.7 0.62 1.5 1.1 2.4 1.44 0.893 0.34 1.837 0.577 2.83 0.71 0.993 0.127 1.93 0.19 2.81 0.19v0c0.553 0 1.293-0.04 2.22-0.12 0.927-0.08 1.877-0.21 2.85-0.39 0.98-0.18 1.9-0.4 2.76-0.66 0.867-0.26 1.51-0.583 1.93-0.97v0l2.39 4.19c-2.147 0.82-4.26 1.457-6.34 1.91-2.087 0.453-4.287 0.68-6.6 0.68zM1125.24-20.26v0c-0.973 0-1.94 0.193-2.9 0.58-0.96 0.393-1.83 0.907-2.61 1.54-0.787 0.633-1.47 1.383-2.05 2.25-0.587 0.86-1.01 1.747-1.27 2.66v0h13.96c0.1-0.98 0.11-1.9 0.03-2.76-0.087-0.867-0.307-1.617-0.66-2.25-0.36-0.633-0.897-1.13-1.61-1.49-0.72-0.353-1.683-0.53-2.89-0.53zM1149.41-18.55v0c0.787-0.653 1.69-1.273 2.71-1.86 1.027-0.587 2.103-1.1 3.23-1.54 1.12-0.44 2.257-0.79 3.41-1.05 1.16-0.26 2.243-0.39 3.25-0.39v0 4.2c-1.04 0-2.197 0.227-3.47 0.68-1.267 0.46-2.51 1.047-3.73 1.76-1.22 0.72-2.32 1.533-3.3 2.44-0.973 0.913-1.687 1.843-2.14 2.79v0c0 0.227 0.007 0.65 0.02 1.27 0.013 0.613 0.03 1.327 0.05 2.14 0.013 0.82 0.037 1.677 0.07 2.57 0.033 0.893 0.083 1.73 0.15 2.51 0.067 0.78 0.13 1.447 0.19 2 0.067 0.553 0.15 0.897 0.25 1.03v0h-7.91c0.127-0.067 0.24-0.417 0.34-1.05 0.1-0.633 0.173-1.407 0.22-2.32 0.047-0.913 0.097-1.897 0.15-2.95 0.047-1.06 0.077-2.08 0.09-3.06 0.02-0.973 0.03-1.817 0.03-2.53 0-0.72 0-1.193 0-1.42v0c0-0.293 0-0.913 0-1.86 0-0.94-0.017-1.93-0.05-2.97-0.033-1.047-0.083-2.017-0.15-2.91-0.067-0.893-0.163-1.44-0.29-1.64v0h7.23c-0.067 0.2-0.117 0.487-0.15 0.86-0.033 0.373-0.067 0.773-0.1 1.2-0.033 0.42-0.057 0.827-0.07 1.22-0.02 0.387-0.03 0.68-0.03 0.88zM1191.06-23.54l-0.14 4.69c-0.653 0.26-1.477 0.733-2.47 1.42-0.993 0.68-2.067 1.487-3.22 2.42-1.153 0.927-2.35 1.927-3.59 3-1.233 1.073-2.413 2.123-3.54 3.15-1.12 1.027-2.147 1.987-3.08 2.88-0.927 0.893-1.65 1.617-2.17 2.17v0c4.007 0.1 7.993 0.15 11.96 0.15v0c0.393 0 0.873 0 1.44 0 0.573 0 1.16-0.01 1.76-0.03 0.607-0.013 1.177-0.043 1.71-0.09 0.54-0.053 0.987-0.127 1.34-0.22v0l-0.19 4.44c-0.72-0.16-1.443-0.233-2.17-0.22-0.733 0.013-1.477 0.007-2.23-0.02v0c-1.427-0.033-2.84-0.05-4.24-0.05-1.4 0-2.8 0-4.2 0v0c-0.36 0-0.947 0-1.76 0-0.813 0-1.723 0-2.73 0-1.013 0-2.073 0.007-3.18 0.02-1.107 0.02-2.14 0.043-3.1 0.07-0.96 0.033-1.79 0.083-2.49 0.15-0.7 0.067-1.147 0.133-1.34 0.2v0l-0.15-4.94 0.29 0.05-0.09-0.05c0.353-0.127 0.97-0.517 1.85-1.17 0.88-0.647 1.88-1.443 3-2.39 1.127-0.947 2.333-1.98 3.62-3.1 1.287-1.127 2.507-2.21 3.66-3.25 1.153-1.04 2.187-1.99 3.1-2.85 0.913-0.867 1.58-1.527 2-1.98v0h-4.39c-1.433 0-2.85 0.007-4.25 0.02-1.4 0.02-2.8 0.047-4.2 0.08v0c-0.747 0-1.493 0-2.24 0-0.753 0-1.487 0.08-2.2 0.24v0l-0.15-4.44c0.327 0.093 0.767 0.157 1.32 0.19 0.553 0.033 1.13 0.06 1.73 0.08 0.607 0.013 1.193 0.02 1.76 0.02 0.573 0 1.037 0 1.39 0v0c2.9 0 5.783-0.023 8.65-0.07 2.86-0.053 5.723-0.143 8.59-0.27v0c0.713-0.033 1.447-0.05 2.2-0.05 0.747 0 1.46-0.083 2.14-0.25zM1207.37 0.73v0c-1.593 0-3.287-0.21-5.08-0.63-1.787-0.427-3.437-1.087-4.95-1.98-1.513-0.893-2.767-2.023-3.76-3.39-0.993-1.367-1.49-2.997-1.49-4.89v0c0-2.307 0.457-4.373 1.37-6.2 0.907-1.82 2.127-3.357 3.66-4.61 1.527-1.253 3.3-2.213 5.32-2.88 2.02-0.667 4.137-1 6.35-1v0c1.76 0 3.323 0.283 4.69 0.85 1.367 0.573 2.503 1.37 3.41 2.39 0.913 1.027 1.607 2.24 2.08 3.64 0.473 1.4 0.71 2.947 0.71 4.64v0c0 1.627-0.243 3.19-0.73 4.69v0h-20.37c0.327 0.973 0.84 1.77 1.54 2.39 0.7 0.62 1.497 1.1 2.39 1.44 0.9 0.34 1.847 0.577 2.84 0.71 0.993 0.127 1.927 0.19 2.8 0.19v0c0.553 0 1.297-0.04 2.23-0.12 0.927-0.08 1.877-0.21 2.85-0.39 0.98-0.18 1.9-0.4 2.76-0.66 0.867-0.26 1.51-0.583 1.93-0.97v0l2.39 4.19c-2.147 0.82-4.263 1.457-6.35 1.91-2.08 0.453-4.277 0.68-6.59 0.68zM1207.37-20.26v0c-0.973 0-1.94 0.193-2.9 0.58-0.96 0.393-1.83 0.907-2.61 1.54-0.787 0.633-1.473 1.383-2.06 2.25-0.58 0.86-1 1.747-1.26 2.66v0h13.96c0.1-0.98 0.107-1.9 0.02-2.76-0.08-0.867-0.297-1.617-0.65-2.25-0.36-0.633-0.9-1.13-1.62-1.49-0.713-0.353-1.673-0.53-2.88-0.53zM1245.36-24.02h8.35c-0.16 0.193-0.297 0.867-0.41 2.02-0.113 1.16-0.213 2.577-0.3 4.25-0.08 1.68-0.143 3.487-0.19 5.42-0.053 1.94-0.093 3.797-0.12 5.57-0.033 1.773-0.06 3.333-0.08 4.68-0.013 1.353-0.02 2.257-0.02 2.71v0c0 2.933-1.303 5.247-3.91 6.94-2.6 1.693-6.293 2.62-11.08 2.78v0c-1.367 0.067-2.733 0.09-4.1 0.07-1.367-0.013-2.737-0.003-4.11 0.03v0-5.47c0.493 0.227 1.097 0.407 1.81 0.54 0.72 0.127 1.47 0.23 2.25 0.31 0.78 0.087 1.537 0.137 2.27 0.15 0.733 0.02 1.36 0.03 1.88 0.03v0c1.787 0 3.21-0.18 4.27-0.54 1.06-0.36 1.867-0.923 2.42-1.69 0.553-0.76 0.927-1.75 1.12-2.97 0.193-1.227 0.323-2.7 0.39-4.42v0c-1.333 1.04-2.83 1.837-4.49 2.39-1.66 0.553-3.32 0.83-4.98 0.83v0c-1.66 0-3.297-0.243-4.91-0.73-1.613-0.493-3.053-1.22-4.32-2.18-1.267-0.96-2.3-2.147-3.1-3.56-0.8-1.413-1.2-3.033-1.2-4.86v0c0-1.787 0.497-3.43 1.49-4.93 0.993-1.5 2.247-2.77 3.76-3.81 1.513-1.04 3.183-1.853 5.01-2.44 1.82-0.587 3.543-0.88 5.17-0.88v0c1.333 0 2.637 0.163 3.91 0.49 1.267 0.327 2.453 0.863 3.56 1.61v0c-0.033-0.26-0.057-0.65-0.07-1.17-0.013-0.52-0.103-0.91-0.27-1.17zM1237.5-4.79v0c0.813 0 1.677-0.137 2.59-0.41 0.913-0.28 1.76-0.67 2.54-1.17 0.78-0.507 1.437-1.127 1.97-1.86 0.54-0.733 0.86-1.553 0.96-2.46v0c0.06-0.393 0.09-0.81 0.09-1.25 0-0.44 0-0.87 0-1.29v0c0-0.947-0.227-1.777-0.68-2.49-0.453-0.72-1.04-1.323-1.76-1.81-0.713-0.487-1.51-0.853-2.39-1.1-0.88-0.24-1.727-0.36-2.54-0.36v0c-1.107 0-2.203 0.153-3.29 0.46-1.093 0.307-2.08 0.77-2.96 1.39-0.88 0.62-1.597 1.403-2.15 2.35-0.553 0.94-0.83 2.03-0.83 3.27v0c0 1.167 0.247 2.173 0.74 3.02 0.487 0.847 1.137 1.547 1.95 2.1 0.813 0.553 1.717 0.96 2.71 1.22 0.993 0.26 2.01 0.39 3.05 0.39zM1273.73-23.54v0c1.793 0 3.68 0.253 5.66 0.76 1.987 0.507 3.793 1.273 5.42 2.3 1.633 1.02 2.987 2.313 4.06 3.88 1.073 1.56 1.61 3.4 1.61 5.52v0c0 1.4-0.26 2.66-0.78 3.78-0.52 1.12-1.213 2.113-2.08 2.98-0.86 0.86-1.86 1.607-3 2.24-1.14 0.64-2.337 1.163-3.59 1.57-1.253 0.407-2.53 0.707-3.83 0.9-1.307 0.193-2.527 0.29-3.66 0.29v0c-1.86 0-3.767-0.21-5.72-0.63-1.953-0.427-3.733-1.11-5.34-2.05-1.613-0.947-2.933-2.177-3.96-3.69-1.027-1.513-1.54-3.377-1.54-5.59v0c0-2.18 0.53-4.043 1.59-5.59 1.06-1.547 2.403-2.817 4.03-3.81 1.627-0.993 3.423-1.717 5.39-2.17 1.973-0.46 3.887-0.69 5.74-0.69zM1264.31-11.33v0c0 1.273 0.283 2.347 0.85 3.22 0.573 0.88 1.307 1.597 2.2 2.15 0.893 0.553 1.893 0.953 3 1.2 1.107 0.247 2.197 0.37 3.27 0.37v0c1.013 0 2.073-0.133 3.18-0.4 1.107-0.26 2.13-0.667 3.07-1.22 0.947-0.553 1.73-1.26 2.35-2.12 0.613-0.86 0.92-1.893 0.92-3.1v0c0-1.207-0.29-2.257-0.87-3.15-0.587-0.893-1.337-1.643-2.25-2.25-0.913-0.6-1.93-1.047-3.05-1.34-1.127-0.293-2.21-0.44-3.25-0.44v0c-1.073 0-2.163 0.14-3.27 0.42-1.107 0.273-2.117 0.697-3.03 1.27-0.913 0.567-1.66 1.297-2.24 2.19-0.587 0.9-0.88 1.967-0.88 3.2zM1319.92-23.83c-0.26 0.26-0.73 0.983-1.41 2.17-0.687 1.193-1.47 2.627-2.35 4.3-0.88 1.68-1.783 3.48-2.71 5.4-0.927 1.92-1.78 3.733-2.56 5.44-0.78 1.707-1.423 3.187-1.93 4.44-0.507 1.253-0.76 2.043-0.76 2.37v0l0.05 0.1h-6.25v-0.1c-0.033-0.353-0.3-1.15-0.8-2.39-0.507-1.24-1.15-2.697-1.93-4.37-0.78-1.673-1.643-3.463-2.59-5.37-0.947-1.907-1.85-3.69-2.71-5.35-0.86-1.66-1.633-3.1-2.32-4.32-0.68-1.22-1.153-1.993-1.42-2.32v0h8.26c1.007 2.64 1.997 5.253 2.97 7.84 0.98 2.587 2.12 5.117 3.42 7.59v0l4.98-10.25c0.393-0.847 0.8-1.693 1.22-2.54 0.427-0.847 0.753-1.727 0.98-2.64v0zM1321.68-22.85v0l8.59 0.05c-0.16 0.033-0.28 0.17-0.36 0.41-0.08 0.247-0.153 0.433-0.22 0.56v0c-0.227 0.813-0.4 1.8-0.52 2.96-0.113 1.153-0.193 2.357-0.24 3.61-0.047 1.253-0.08 2.467-0.1 3.64-0.013 1.173-0.02 2.2-0.02 3.08v0c0 0.287 0 0.88 0 1.78 0 0.893 0.023 1.843 0.07 2.85 0.053 1.013 0.127 1.933 0.22 2.76 0.1 0.833 0.247 1.347 0.44 1.54v0h-8.64c0.16-0.227 0.323-0.763 0.49-1.61 0.16-0.847 0.297-1.857 0.41-3.03 0.113-1.173 0.22-2.433 0.32-3.78 0.1-1.353 0.19-2.64 0.27-3.86 0.08-1.22 0.137-2.31 0.17-3.27 0.033-0.96 0.05-1.62 0.05-1.98v0c0-0.193 0-0.583 0-1.17 0-0.587-0.033-1.197-0.1-1.83-0.067-0.633-0.163-1.22-0.29-1.76-0.133-0.54-0.313-0.857-0.54-0.95zM1325.93-34.67v0c0.42 0 0.89 0.067 1.41 0.2 0.527 0.127 1.007 0.313 1.44 0.56 0.44 0.247 0.807 0.573 1.1 0.98 0.293 0.407 0.44 0.87 0.44 1.39v0c0 0.52-0.147 0.973-0.44 1.36-0.293 0.393-0.66 0.713-1.1 0.96-0.433 0.24-0.913 0.427-1.44 0.56-0.52 0.127-0.99 0.19-1.41 0.19v0c-0.46 0-0.94-0.063-1.44-0.19-0.507-0.133-0.98-0.32-1.42-0.56-0.44-0.247-0.807-0.567-1.1-0.96-0.293-0.387-0.44-0.84-0.44-1.36v0c0-0.52 0.147-0.983 0.44-1.39 0.293-0.407 0.66-0.733 1.1-0.98 0.44-0.247 0.913-0.433 1.42-0.56 0.5-0.133 0.98-0.2 1.44-0.2zM1363.82-15.04v0c0 2.247-0.107 4.477-0.32 6.69-0.213 2.213-0.32 4.443-0.32 6.69v0c0 0.747 0.05 1.48 0.15 2.2v0h-8.54c0.32-0.52 0.563-1.393 0.73-2.62 0.16-1.22 0.28-2.52 0.36-3.9 0.087-1.387 0.137-2.723 0.15-4.01 0.013-1.28 0.02-2.263 0.02-2.95v0c0-1.987-0.487-3.54-1.46-4.66-0.973-1.127-2.487-1.69-4.54-1.69v0c-0.687 0-1.347 0.123-1.98 0.37-0.633 0.247-1.237 0.563-1.81 0.95-0.567 0.393-1.103 0.833-1.61 1.32-0.5 0.487-0.947 0.973-1.34 1.46v0c-0.1 2.833-0.15 5.667-0.15 8.5v0c0 0.227 0 0.673 0 1.34 0 0.667 0.017 1.377 0.05 2.13 0.033 0.747 0.083 1.437 0.15 2.07 0.067 0.633 0.18 1.017 0.34 1.15v0h-8.64c0.127-0.193 0.257-0.673 0.39-1.44 0.127-0.767 0.24-1.677 0.34-2.73 0.1-1.06 0.183-2.193 0.25-3.4 0.06-1.207 0.117-2.363 0.17-3.47 0.047-1.107 0.077-2.08 0.09-2.92 0.02-0.847 0.03-1.433 0.03-1.76v0c0-0.26-0.01-0.807-0.03-1.64-0.013-0.827-0.053-1.69-0.12-2.59-0.067-0.893-0.173-1.713-0.32-2.46-0.147-0.753-0.363-1.177-0.65-1.27v0l8.54 0.05-0.15 2.34c1.207-0.88 2.55-1.603 4.03-2.17 1.48-0.573 2.987-0.86 4.52-0.86v0c1.493 0 2.95 0.157 4.37 0.47 1.413 0.307 2.657 0.827 3.73 1.56 1.08 0.733 1.943 1.687 2.59 2.86 0.653 1.167 0.98 2.63 0.98 4.39zM1395.75 0.59h-9.03c0.553-0.167 0.893-0.533 1.02-1.1 0.133-0.573 0.217-1.087 0.25-1.54v0c-1.467 0.453-2.95 0.793-4.45 1.02-1.493 0.233-2.99 0.35-4.49 0.35v0c-0.973 0-2.137-0.083-3.49-0.25-1.347-0.16-2.633-0.47-3.86-0.93-1.22-0.453-2.26-1.087-3.12-1.9-0.86-0.813-1.29-1.887-1.29-3.22v0c0-1.14 0.413-2.117 1.24-2.93 0.833-0.813 1.9-1.49 3.2-2.03 1.3-0.533 2.763-0.947 4.39-1.24 1.627-0.293 3.223-0.523 4.79-0.69 1.56-0.16 3.023-0.257 4.39-0.29 1.367-0.033 2.443-0.067 3.23-0.1v0c0-0.453 0.007-0.893 0.02-1.32 0.013-0.42 0.02-0.857 0.02-1.31v0c0-0.82-0.147-1.53-0.44-2.13-0.287-0.6-0.683-1.097-1.19-1.49-0.507-0.387-1.1-0.67-1.78-0.85-0.687-0.18-1.403-0.27-2.15-0.27v0c-0.72 0-1.493 0.097-2.32 0.29-0.833 0.2-1.623 0.493-2.37 0.88-0.747 0.393-1.397 0.89-1.95 1.49-0.553 0.6-0.897 1.293-1.03 2.08v0l-6.15-0.83c0.587-1.5 1.4-2.77 2.44-3.81 1.04-1.047 2.22-1.893 3.54-2.54 1.32-0.653 2.727-1.133 4.22-1.44 1.5-0.313 3-0.47 4.5-0.47v0c1.433 0 2.823 0.18 4.17 0.54 1.353 0.36 2.557 0.907 3.61 1.64 1.06 0.727 1.907 1.66 2.54 2.8 0.64 1.14 0.96 2.493 0.96 4.06v0c0 1.66-0.027 3.31-0.08 4.95-0.047 1.647-0.07 3.3-0.07 4.96v0c0 0.293 0 0.823 0 1.59 0 0.76 0.023 1.557 0.07 2.39 0.053 0.827 0.127 1.59 0.22 2.29 0.1 0.7 0.247 1.15 0.44 1.35zM1373.93-6.98v0c0 0.487 0.26 0.86 0.78 1.12 0.52 0.26 1.13 0.463 1.83 0.61 0.7 0.147 1.39 0.237 2.07 0.27 0.687 0.033 1.177 0.05 1.47 0.05v0c1.367 0 2.75-0.097 4.15-0.29 1.4-0.2 2.75-0.51 4.05-0.93v0c0.033-0.587 0.057-1.173 0.07-1.76 0.02-0.587 0.03-1.157 0.03-1.71v0l-1.27-0.05c-0.293 0-0.823 0.01-1.59 0.03-0.76 0.013-1.63 0.043-2.61 0.09-0.973 0.053-1.99 0.137-3.05 0.25-1.06 0.113-2.03 0.267-2.91 0.46-0.88 0.2-1.603 0.453-2.17 0.76-0.567 0.307-0.85 0.673-0.85 1.1z" fill="#ff585f" fill-rule="nonzero" stroke="none" stroke-width="1" stroke-linecap="butt" stroke-linejoin="miter" stroke-miterlimit="10" stroke-dasharray="" stroke-dashoffset="0" font-family="none" font-weight="none" font-size="none" text-anchor="none" style="mix-blend-mode: normal" data-fill-palette-color="secondary" id="text-1"></path></g></g><g transform="matrix(1,0,0,1,29.33176499999999,40.924202511700486)"><svg viewBox="0 0 316.416 42.632847776599014" height="42.632847776599014" width="316.416"><g><svg viewBox="0 0 421.86562839239014 56.840782758874575" height="42.632847776599014" width="316.416"><g><rect width="3.709088602665062" height="41.33501206415987" x="326.12565602791904" y="7.752885347357353" fill="#ff585f" opacity="1" stroke-width="0" stroke="transparent" fill-opacity="1" class="rect-qz-0" data-fill-palette-color="secondary" rx="1%" id="qz-0" data-palette-color="#ff585f"></rect></g><g transform="matrix(1,0,0,1,0,7.855708760452277)"><svg viewBox="0 0 316.416 41.12936523797002" height="41.12936523797002" width="316.416"><g id="textblocktransform"><svg viewBox="0 0 316.416 41.12936523797002" height="41.12936523797002" width="316.416" id="textblock"><g><svg viewBox="0 0 316.416 41.12936523797002" height="41.12936523797002" width="316.416"><g transform="matrix(1,0,0,1,0,0)"><svg width="316.416" viewBox="3.25 -35.45 278.51 36.21" height="41.12936523797002" data-palette-color="#1e55b3"><path d="M27.25-7.01L27.25 0 3.25 0 3.25-35.01 27.25-35.01 27.25-28 10.25-28 10.25-21 21.75-21 21.75-13.99 10.25-13.99 10.25-7.01 27.25-7.01ZM59.76-35.01L59.76-13.99Q59.76-11.08 58.66-8.53 57.57-5.98 55.66-4.09 53.76-2.2 51.21-1.1 48.65 0 45.75 0L45.75 0Q42.84 0 40.29-1.1 37.74-2.2 35.85-4.09 33.96-5.98 32.86-8.53 31.76-11.08 31.76-13.99L31.76-13.99 31.76-35.01 38.74-35.01 38.74-13.99Q38.74-12.55 39.29-11.28 39.84-10.01 40.79-9.06 41.75-8.11 43.03-7.56 44.31-7.01 45.75-7.01L45.75-7.01Q47.19-7.01 48.47-7.56 49.75-8.11 50.71-9.06 51.66-10.01 52.21-11.28 52.76-12.55 52.76-13.99L52.76-13.99 52.76-35.01 59.76-35.01ZM79.85-28L72.85-28 72.85-13.99 79.85-13.99Q81.29-13.99 82.56-14.54 83.83-15.09 84.79-16.04 85.74-16.99 86.29-18.27 86.84-19.56 86.84-21L86.84-21Q86.84-22.44 86.29-23.72 85.74-25 84.79-25.95 83.83-26.9 82.56-27.45 81.29-28 79.85-28L79.85-28ZM72.85-7.01L72.85 0 65.84 0 65.84-35.01 79.85-35.01Q81.78-35.01 83.56-34.51 85.35-34.01 86.9-33.09 88.45-32.18 89.73-30.9 91.01-29.61 91.93-28.05 92.84-26.49 93.34-24.71 93.84-22.92 93.84-21L93.84-21Q93.84-19.19 93.39-17.48 92.94-15.77 92.1-14.23 91.25-12.7 90.03-11.4 88.81-10.11 87.3-9.16L87.3-9.16 91.18 0 83.74 0 80.68-7.06 72.85-7.01ZM126.04-35.01L126.04-13.99Q126.04-11.08 124.94-8.53 123.85-5.98 121.94-4.09 120.04-2.2 117.49-1.1 114.93 0 112.03 0L112.03 0Q109.12 0 106.57-1.1 104.02-2.2 102.13-4.09 100.24-5.98 99.14-8.53 98.04-11.08 98.04-13.99L98.04-13.99 98.04-35.01 105.02-35.01 105.02-13.99Q105.02-12.55 105.57-11.28 106.12-10.01 107.07-9.06 108.02-8.11 109.31-7.56 110.59-7.01 112.03-7.01L112.03-7.01Q113.47-7.01 114.75-7.56 116.03-8.11 116.98-9.06 117.94-10.01 118.49-11.28 119.04-12.55 119.04-13.99L119.04-13.99 119.04-35.01 126.04-35.01ZM139.13-7.01L139.13 0 132.12 0 132.12-35.01 139.13-35.01 139.13-17.5 152.16-35.01 160.12-35.01 149.06-20.24 160.12 0 152.16 0 144.47-14.16 139.13-7.01ZM196.52-17.36L196.52-17.36Q196.52-14.87 195.87-12.56 195.23-10.25 194.05-8.24 192.88-6.23 191.22-4.57 189.56-2.91 187.56-1.72 185.56-0.54 183.24 0.11 180.92 0.76 178.43 0.76L178.43 0.76Q175.94 0.76 173.63 0.11 171.33-0.54 169.31-1.72 167.3-2.91 165.64-4.57 163.98-6.23 162.79-8.24 161.61-10.25 160.96-12.56 160.31-14.87 160.31-17.36L160.31-17.36Q160.31-19.85 160.96-22.17 161.61-24.49 162.79-26.49 163.98-28.49 165.64-30.15 167.3-31.81 169.31-32.98 171.33-34.16 173.63-34.8 175.94-35.45 178.43-35.45L178.43-35.45Q180.92-35.45 183.24-34.8 185.56-34.16 187.56-32.98 189.56-31.81 191.22-30.15 192.88-28.49 194.05-26.49 195.23-24.49 195.87-22.17 196.52-19.85 196.52-17.36ZM189.56-17.36L189.56-17.36Q189.56-19.65 188.68-21.69 187.8-23.73 186.3-25.23 184.8-26.73 182.76-27.61 180.72-28.49 178.43-28.49L178.43-28.49Q176.11-28.49 174.08-27.61 172.06-26.73 170.54-25.23 169.03-23.73 168.15-21.69 167.27-19.65 167.27-17.36L167.27-17.36Q167.27-15.06 168.15-13.05 169.03-11.04 170.54-9.52 172.06-8.01 174.08-7.13 176.11-6.25 178.43-6.25L178.43-6.25Q180.72-6.25 182.76-7.13 184.8-8.01 186.3-9.52 187.8-11.04 188.68-13.05 189.56-15.06 189.56-17.36ZM221.34-35.01L220.34-24 215.29-24 214.29-35.01 221.34-35.01ZM250.44-24.51L250.44-24.51Q250.44-22.34 249.61-20.42 248.78-18.51 247.36-17.08 245.93-15.65 244.02-14.82 242.12-13.99 239.95-13.99L239.95-13.99 236.43-13.99Q235.7-13.99 235.06-13.72 234.43-13.45 233.95-12.98 233.48-12.5 233.21-11.87 232.94-11.23 232.94-10.5L232.94-10.5 232.94-7.01 249.49-7.01 249.49 0 225.93 0 225.93-10.5Q225.93-12.67 226.76-14.59 227.59-16.5 229.02-17.93 230.45-19.36 232.35-20.18 234.26-21 236.43-21L236.43-21 239.95-21Q240.68-21 241.31-21.26 241.95-21.53 242.42-22.01 242.9-22.49 243.17-23.13 243.44-23.78 243.44-24.51L243.44-24.51Q243.44-25.24 243.17-25.88 242.9-26.51 242.42-26.99 241.95-27.47 241.31-27.73 240.68-28 239.95-28L239.95-28 227.45-28 227.45-35.01 239.95-35.01Q242.12-35.01 244.02-34.18 245.93-33.35 247.36-31.92 248.78-30.49 249.61-28.59 250.44-26.68 250.44-24.51ZM281.76-13.99L281.76-7.01 278.27-7.01 278.27 0 271.27 0 271.27-7.01 253.76-7.01 257.67-35.01 264.67-35.01 261.62-13.99 271.27-13.99 271.27-31.49 278.27-31.49 278.27-13.99 281.76-13.99Z" opacity="1" transform="matrix(1,0,0,1,0,0)" fill="#1e55b3" class="wordmark-text-0" data-fill-palette-color="primary" id="text-0"></path></svg></g></svg></g></svg></g></svg></g><g transform="matrix(1,0,0,1,339.54440065850315,0)"><svg viewBox="0 0 82.32122773388707 56.840782758874575" height="56.840782758874575" width="82.32122773388707"><g><svg xmlns="http://www.w3.org/2000/svg" data-name="Layer 1" viewBox="2.5 9.29 95 81.41999999999999" x="8" y="0" height="56.840782758874575" width="66.32122773388707" class="icon-icon-0" data-fill-palette-color="accent" id="icon-0"><path d="M2.5 43.21L50 90.71l47.5-47.5ZM16.07 50H36.43L50 83.93Z" fill="#ff585f" data-fill-palette-color="accent"></path><path d="M70.36 9.29H29.64L7.93 36.43H92.07ZM29.64 29.64h-9.5l9.5-11.87Z" fill="#ff585f" data-fill-palette-color="accent"></path></svg></g></svg></g></svg></g></svg></g></svg></g><defs></defs></svg><rect width="375.07953" height="124.48125279999998" fill="none" stroke="none" visibility="hidden"></rect></g></svg></g></svg>