<svg width="114" height="108" viewBox="0 0 114 108" fill="none" xmlns="http://www.w3.org/2000/svg">
<path d="M37.0883 88.2363L76.8325 88.2363L85.8507 102.713L28.2828 103.069L37.0883 88.2363Z" fill="url(#paint0_linear_499_1268)" fill-opacity="0.7"/>
<path d="M17.2691 54.0186L37.0877 88.2365L28.2833 103.069L0.0526078 53.9474L17.2691 54.0186Z" fill="url(#paint1_linear_499_1268)"/>
<path d="M37.0509 19.7657L17.2683 54.0195L0.0519967 53.9484L28.2472 5.21704L37.0509 19.7657Z" fill="url(#paint2_linear_499_1268)"/>
<path d="M76.8319 19.7649L37.0878 19.7649L28.2835 5.22255L85.6006 5.14578L76.8319 19.7649Z" fill="url(#paint3_linear_499_1268)"/>
<path d="M96.5076 54.0185L76.689 19.7649L85.6001 5.14584L113.867 54.3386L96.5076 54.0185Z" fill="url(#paint4_linear_499_1268)"/>
<path d="M76.7241 88.2012L96.5072 54.0184L113.858 54.3224L85.8495 102.713L76.7241 88.2012Z" fill="url(#paint5_linear_499_1268)"/>
<path d="M76.7056 19.7654L96.5128 54L76.7056 88.2346L37.0911 88.2346L17.2839 54L37.0911 19.7654L76.7056 19.7654Z" fill="url(#paint6_linear_499_1268)"/>
<path d="M85.6095 49.2977L62.0882 33.1232C61.7326 32.8476 61.3828 32.563 61.0455 32.2891C60.1421 31.5543 56.5849 27.4898 55.6509 26.9743C52.2735 25.1133 48.2596 25.3227 45.4475 27.8216C44.424 28.731 43.7228 30.0417 43.1725 31.2035L40.4863 29.9341C41.1651 28.5026 42.0511 26.8684 43.4717 25.6057C45.3025 23.978 47.7582 22.9371 50.3872 22.6731C52.9813 22.4125 55.5937 22.9214 57.7419 24.1055C58.9097 24.7492 59.9076 25.561 60.8723 26.3454C61.2113 26.6218 61.532 26.8824 61.8602 27.1365L87.4328 46.9543L85.6103 49.2985L85.6095 49.2977Z" fill="white"/>
<path d="M87.7907 47.2091C87.8181 47.8729 87.7849 49.2203 87.0771 50.7092C86.3494 52.2394 85.2851 53.1291 84.7464 53.5231C82.6759 52.3727 80.2565 52.107 78.5665 53.1523C75.9912 54.7463 75.0621 59.4182 77.886 63.3221C77.0472 63.0929 74.0111 62.1535 71.8867 59.0897C69.9365 56.2766 69.9539 53.4014 69.997 52.4852C68.258 52.6061 65.8212 53.1192 63.9422 54.911C60.398 58.2918 60.0574 65.0626 63.8253 71.1787C58.277 70.3089 44.8505 67.4023 39.0062 56.7301C38.5379 55.8752 38.1086 54.9532 37.7348 53.9567C39.8674 50.2598 42 46.5628 44.1327 42.8658C43.0684 42.7011 40.8628 42.2111 38.6979 40.522C36.8346 39.0678 35.8549 37.3919 35.3916 36.4484C39.3875 36.6412 44.8347 36.4964 51.095 35.0969C57.1191 33.7495 61.953 31.6747 65.4225 29.8696C69.1507 32.7597 72.8789 35.6497 76.6062 38.5398C80.3344 41.4299 84.0626 44.3199 87.7899 47.21L87.7907 47.2091Z" fill="white"/>
<path d="M81.8382 77.7393C80.8756 77.6685 82.0474 77.7901 81.1558 77.7393C80.5608 77.7057 80.4935 77.7665 79.9276 77.7393C74.98 77.505 76.8101 77.6657 73.32 77.4379C73.1208 77.4251 72.9233 77.4106 72.7259 77.3961C71.0491 77.2708 69.4533 77.0838 67.862 76.7751C63.5695 75.9444 59.8738 74.9384 56.6968 73.849C56.2428 73.6937 55.7997 73.5357 55.3666 73.3769C54.8244 73.178 54.3003 72.9765 53.7899 72.774C53.486 72.6533 53.1858 72.5316 52.8928 72.4099C52.6972 72.3282 52.5034 72.2465 52.3124 72.1639C51.7392 71.9179 51.1878 71.67 50.6583 71.4213C44.4115 68.4897 41.1371 65.4555 39.6086 63.8177C39.5058 63.7078 39.4112 63.6043 39.3247 63.5081C39.302 63.4835 39.2811 63.459 39.2592 63.4354C39.201 63.3701 39.1455 63.3074 39.0945 63.2493C39.0536 63.203 39.0145 63.1576 38.9745 63.1113C38.8362 62.9515 38.7033 62.7954 38.5778 62.6419C38.4695 62.5103 38.3658 62.3814 38.2657 62.2543C36.9137 60.5383 36.2705 59.1692 35.498 57.2881C33.763 59.8574 29.0943 66.4596 30.2971 76.7751C32.7081 80.8933 33.9819 82.4367 36.0745 86.4768C36.1918 86.633 36.9988 88.0466 37.1207 88.2018C39.4408 88.2018 37.4392 88.2018 41.5333 88.2018C43.9737 88.2018 45.0361 88.2018 47.6746 88.2018C49.2668 88.2018 50.3131 88.2621 57.5006 88.2018C58.4104 88.1942 53.3149 88.2018 61.1854 88.2018C62.4136 88.2018 63.2771 88.2018 64.5062 88.2018C65.325 88.2018 65.7799 88.2018 66.9627 88.2018C68.4184 88.2018 68.1 88.2018 69.6467 88.2018C73.3769 88.2018 66.0984 88.2926 73.6953 88.2018H76.7432C76.7432 88.2018 81.7472 79.2422 82.7025 77.7393H81.8382Z" fill="white"/>
<defs>
<linearGradient id="paint0_linear_499_1268" x1="29.1569" y1="103.576" x2="79.8516" y2="87.0691" gradientUnits="userSpaceOnUse">
<stop stop-color="#F44336"/>
<stop offset="1" stop-color="#820C02"/>
</linearGradient>
<linearGradient id="paint1_linear_499_1268" x1="-0.0186835" y1="54.979" x2="38.652" y2="90.7013" gradientUnits="userSpaceOnUse">
<stop stop-color="#E71421"/>
<stop offset="1" stop-color="#820C02"/>
</linearGradient>
<linearGradient id="paint2_linear_499_1268" x1="27.1957" y1="5.59962" x2="15.8873" y2="56.6656" gradientUnits="userSpaceOnUse">
<stop stop-color="#F44336" stop-opacity="0.7"/>
<stop offset="1" stop-color="#820C02"/>
</linearGradient>
<linearGradient id="paint3_linear_499_1268" x1="84.7313" y1="4.64375" x2="34.3123" y2="21.099" gradientUnits="userSpaceOnUse">
<stop stop-color="#F44336" stop-opacity="0.5"/>
<stop offset="1" stop-color="#820C02"/>
</linearGradient>
<linearGradient id="paint4_linear_499_1268" x1="114.017" y1="53.2614" x2="75.2933" y2="17.429" gradientUnits="userSpaceOnUse">
<stop stop-color="#F44336" stop-opacity="0.3"/>
<stop offset="1" stop-color="#820C02"/>
</linearGradient>
<linearGradient id="paint5_linear_499_1268" x1="86.8368" y1="102.3" x2="98.2925" y2="51.5912" gradientUnits="userSpaceOnUse">
<stop stop-color="#F44336" stop-opacity="0.5"/>
<stop offset="1" stop-color="#820C02"/>
</linearGradient>
<linearGradient id="paint6_linear_499_1268" x1="76.7056" y1="19.7654" x2="37.2167" y2="88.307" gradientUnits="userSpaceOnUse">
<stop stop-color="#F44336" stop-opacity="0.7"/>
<stop offset="1" stop-color="#CF020E"/>
</linearGradient>
</defs>
</svg>
