<svg width="186" height="192" viewBox="0 0 186 192" fill="none" xmlns="http://www.w3.org/2000/svg">
<path d="M29.1318 129.234L93.601 162.747L94.8171 191.761L0.894761 143.533L29.1318 129.234Z" fill="#941518"/>
<path d="M29.0276 62.2623L29.1368 129.234L0.894761 143.533L1.10541 47.5787L29.0276 62.2623Z" fill="#941518"/>
<path d="M93.3974 28.8043L29.0276 62.2623L1.10541 47.5787L92.7336 0.0189519L93.3974 28.8043Z" fill="#941518"/>
<path d="M157.778 62.3397L93.3974 28.8043L92.7336 0.0189519L185.986 48.4435L157.778 62.3397Z" fill="#941518"/>
<path d="M157.847 129.363L157.778 62.3397L185.986 48.4435L185.769 144.502L157.847 129.363Z" fill="#941518"/>
<path d="M93.601 162.747L157.847 129.363L185.769 144.502L94.8153 191.76L93.601 162.747Z" fill="#941518"/>
<path d="M157.804 62.3539L157.847 129.363L93.601 162.747L29.1368 129.234L29.0687 62.2475L93.4022 28.8077L157.804 62.3539Z" fill="#C62828"/>
<path d="M144.561 113.211L121.504 69.5687C121.184 68.8635 121.423 68.8432 121.132 68.1558C120.353 66.313 117.844 56.6458 116.81 55.0987C113.066 49.5092 106.344 46.4172 99.4269 47.7012C96.9093 48.1682 94.5392 49.4969 92.5541 50.7349L89.3786 46.5984C91.8257 45.0736 94.8 43.4269 98.2946 42.7778C102.799 41.9408 107.768 42.4936 112.29 44.3327C116.752 46.1471 120.521 49.1058 122.902 52.6617C124.196 54.5948 125.057 56.6304 125.889 58.5979C126.18 59.2904 126.457 59.9443 126.752 60.5948L149.725 111.318L144.562 113.212L144.561 113.211Z" fill="white"/>
<path d="M150.067 111.994C149.488 112.991 148.17 114.939 145.622 116.523C143.002 118.152 140.437 118.555 139.191 118.677C136.905 115.236 133.221 112.798 129.493 112.9C123.81 113.057 117.914 119.123 118.841 127.24C117.693 126.193 113.638 122.245 113.061 115.952C112.53 110.174 115.257 105.972 116.187 104.665C113.247 103.369 108.804 102.058 104.067 103.095C95.1323 105.053 88.2234 114.695 88.6084 126.857C80.4048 120.883 61.3054 105.249 61.8213 84.6473C61.8624 82.9967 62.0298 81.2809 62.3574 79.5028C69.2944 75.8863 76.2314 72.2697 83.1685 68.6532C81.5929 67.5104 78.4671 64.924 76.533 60.6132C74.8688 56.9025 74.8491 53.6147 74.9814 51.8385C81.2966 55.5052 90.2881 59.9055 101.779 63.1541C112.837 66.2792 122.643 67.3294 129.978 67.62C133.326 75.016 136.674 82.412 140.021 89.8073C143.37 97.2033 146.718 104.599 150.065 111.995L150.067 111.994Z" fill="#FDFDFD"/>
<path d="M111.734 151.732C110.235 150.813 112.026 151.984 110.624 151.154C109.688 150.601 109.522 150.634 108.627 150.114C100.804 145.581 103.628 147.367 98.1684 144.077C97.8564 143.89 97.5491 143.701 97.2417 143.513C94.6334 141.909 92.2146 140.283 89.9174 138.483C83.7187 133.629 78.6548 129.024 74.5124 124.736C73.9201 124.124 73.348 123.517 72.7931 122.917C72.0982 122.166 71.4354 121.427 70.7957 120.698C70.415 120.263 70.0411 119.831 69.679 119.404C69.4377 119.119 69.1993 118.835 68.9662 118.552C68.2653 117.706 67.6017 116.875 66.9743 116.062C59.5705 106.472 57.0951 99.2489 56.1475 95.5523C56.0835 95.3041 56.0268 95.0722 55.9766 94.8578C55.9626 94.8026 55.9516 94.749 55.9383 94.6958C55.905 94.5506 55.8735 94.4118 55.8452 94.2834C55.8221 94.1808 55.8011 94.0811 55.7795 93.9793C55.7047 93.6278 55.6353 93.2863 55.5752 92.9549C55.5228 92.6702 55.4751 92.3932 55.4317 92.1221C54.8444 88.4604 55.0837 85.9076 55.5936 82.4943C50.3614 84.7936 36.5746 90.5237 28.8479 106.672C28.9021 114.754 29.5242 118.097 29.1341 125.794C29.1783 126.123 29.0843 128.903 29.1368 129.234C32.9085 131.198 29.7336 129.48 36.3895 132.947C40.3568 135.014 42.084 135.913 46.3734 138.148C48.9618 139.496 50.6062 140.47 62.3476 146.469C63.8338 147.228 55.5429 142.924 68.3379 149.589C70.3347 150.629 71.7385 151.36 73.7366 152.401C75.0678 153.094 75.8074 153.48 77.7302 154.481C80.0967 155.714 79.5791 155.444 82.0935 156.754C88.1578 159.913 76.2398 153.882 88.6755 160.183L93.6304 162.764C93.6304 162.764 110.175 153.86 113.139 152.464L111.734 151.732Z" fill="white"/>
</svg>
