<svg width="60" height="60" viewBox="0 0 60 60" fill="none" xmlns="http://www.w3.org/2000/svg">
<path d="M37.5707 59.8721C32.906 60.1299 28.2414 59.9019 23.5768 59.9961C22.6181 60.0159 22.4591 59.5498 22.479 58.7516C22.5137 57.1304 22.5038 55.5091 22.4839 53.8928C22.469 52.3311 22.4541 52.3013 20.934 52.2964C17.3474 52.2765 13.7607 52.2914 10.1741 52.2914C9.76677 52.2914 9.36439 52.3013 8.95704 52.2914C7.50152 52.2567 7.48662 52.2567 7.46675 50.8635C7.44688 49.3811 7.46675 47.8937 7.46675 46.4063C7.46675 43.9075 7.47668 41.4087 7.46675 38.9149C7.45681 37.5316 7.43694 37.5168 5.99136 37.5019C4.43649 37.487 2.87665 37.4573 1.32177 37.5118C0.407727 37.5465 -0.0145222 37.3432 0.000380771 36.3021C0.0500572 32.0481 0.0450896 27.7942 0.000380771 23.5453C-0.00955451 22.5487 0.367986 22.2512 1.31184 22.286C2.86671 22.3405 4.42158 22.3207 5.98142 22.2959C7.42204 22.2711 7.45184 22.2512 7.46178 20.8333C7.48165 17.3231 7.46675 13.8128 7.46675 10.3026C7.46675 9.89605 7.46675 9.49446 7.46675 9.08791C7.48662 7.55095 7.49159 7.53111 8.97691 7.52616C12.494 7.51624 16.0111 7.52616 19.5332 7.52616C20.0051 7.52616 20.482 7.52616 20.9539 7.52616C22.4392 7.54103 22.5187 7.62532 22.4988 5.9644C22.479 4.34316 22.5187 2.72191 22.4839 1.10562C22.469 0.327224 22.7224 0 23.5271 0C27.9235 0.0247897 32.3248 0.0148738 36.7212 0.00495794C37.4167 0.00495794 37.67 0.307392 37.6601 0.981673C37.6352 2.66737 37.6402 4.35803 37.6601 6.04373C37.675 7.46666 37.6899 7.49641 39.0908 7.50137C42.6774 7.51624 46.264 7.50632 49.8507 7.50632C50.258 7.50632 50.6604 7.50137 51.0677 7.50632C52.5084 7.53607 52.5332 7.53607 52.5431 8.9243C52.558 11.6908 52.5431 14.4623 52.5431 17.2288C52.5431 18.513 52.6077 19.7971 52.5233 21.0762C52.4537 22.1124 52.9107 22.3306 53.8298 22.3008C55.4542 22.2463 57.0786 22.3306 58.698 22.2711C59.6469 22.2364 60.0145 22.5239 59.9996 23.5205C59.935 28.176 59.93 32.8315 59.9052 37.487C57.9529 37.487 55.9956 37.482 54.0434 37.4969C52.4388 37.5118 52.414 37.5217 52.409 39.2024C52.3941 42.9011 52.414 46.5997 52.3991 50.2934C52.3941 52.1675 52.3693 52.1873 50.4816 52.1923C46.7757 52.2071 43.0698 52.1873 39.364 52.2022C37.6303 52.2071 37.6253 52.2319 37.6104 54.0168C37.5905 55.9653 37.5856 57.9137 37.5707 59.8622V59.8721ZM37.6501 29.7923C37.6501 27.705 37.6352 25.6177 37.6601 23.5304C37.67 22.752 37.5657 22.281 36.5771 22.2909C32.2553 22.3355 27.9384 22.3306 23.6166 22.2909C22.7174 22.2859 22.474 22.633 22.479 23.4709C22.5088 27.7794 22.4988 32.0928 22.4839 36.4012C22.4839 37.1003 22.5833 37.5118 23.4626 37.5019C27.849 37.4622 32.2404 37.4672 36.6268 37.5019C37.4365 37.5068 37.675 37.2292 37.6601 36.4508C37.6253 34.2296 37.6452 32.0035 37.6452 29.7824L37.6501 29.7923Z" fill="#DB2026"/>
<rect x="17.8789" y="17.8486" width="23.8447" height="25.2855" fill="#DB2026"/>
<path fill-rule="evenodd" clip-rule="evenodd" d="M37.482 16.1349C40.8537 16.6271 43.6981 19.1671 44.1371 22.3903C44.3284 24.3074 44.2337 27.1879 44.1877 28.588C44.1762 28.9364 44.1678 29.1932 44.1675 29.3206C44.1675 29.5088 44.1399 31.2267 44.1289 31.408C43.8334 36.0137 40.9256 37.8325 37.87 38.4119C37.837 38.4217 37.7997 38.4289 37.7614 38.4362C37.7516 38.4381 37.7418 38.44 37.7319 38.4419C35.7947 38.8155 33.7195 38.915 31.7506 38.9696C31.2797 38.9818 30.8102 38.9818 30.3395 38.9818C28.3818 38.9824 26.431 38.7535 24.5279 38.3002C24.5178 38.2976 24.5073 38.2973 24.4971 38.2996C24.4869 38.3017 24.4774 38.3063 24.4693 38.3128C24.4613 38.3193 24.4549 38.3276 24.4506 38.337C24.4464 38.3464 24.4445 38.3567 24.4451 38.3669C24.4989 38.9788 24.6335 39.5811 24.8455 40.1585C25.1092 40.8266 26.0302 42.4313 29.4544 42.4313C31.4441 42.4349 33.4273 42.2061 35.3626 41.7496C35.3724 41.7474 35.3826 41.7473 35.3924 41.7495C35.4023 41.7517 35.4115 41.756 35.4195 41.7621C35.4274 41.7682 35.4339 41.7761 35.4384 41.785C35.4429 41.7939 35.4452 41.8037 35.4454 41.8137V44.0743C35.4451 44.0849 35.4422 44.0953 35.4372 44.1048C35.4322 44.1142 35.4251 44.1224 35.4164 44.1288C34.8113 44.5619 33.9977 44.8165 33.2851 45.0395C33.253 45.0496 33.221 45.0596 33.1893 45.0695C32.8653 45.1705 32.5371 45.2591 32.2048 45.3354C29.1842 46.0148 26.0317 45.8505 23.1002 44.8609C20.3622 43.912 17.5676 41.586 16.8772 38.791C16.5086 37.2776 16.2488 35.7404 16.0999 34.1908C15.9434 32.4962 15.8912 30.7988 15.8388 29.099C15.8191 28.4587 15.7994 27.8182 15.774 27.1773C15.7091 25.5439 15.7464 23.7633 16.0958 22.1571C16.822 18.8958 19.8155 16.6134 23.0933 16.1349C23.1607 16.125 23.2351 16.1121 23.3223 16.097C23.971 15.9843 25.3251 15.749 29.7278 15.749H29.7651C34.7578 15.749 36.9131 16.0517 37.482 16.1349ZM39.2964 34.0191V26.0116C39.2974 24.3746 38.8753 23.0748 38.0303 22.1122C37.1549 21.151 36.0103 20.6575 34.5909 20.6575C32.9492 20.6575 31.7065 21.2819 30.8781 22.5294L30.0772 23.8547L29.2778 22.5294C28.4493 21.2819 27.2067 20.6575 25.5622 20.6575C24.1415 20.6575 22.9968 21.151 22.1242 22.1122C21.2783 23.0757 20.8553 24.3755 20.8553 26.0116V34.0191H24.0669V26.2475C24.0669 24.6114 24.7642 23.777 26.1601 23.777C27.7037 23.777 28.4784 24.7641 28.4784 26.7138V30.9677H31.672V26.7138C31.672 24.7641 32.4452 23.777 33.9889 23.777C35.3931 23.777 36.0835 24.6114 36.0835 26.2475V34.0191H39.2964Z" fill="white"/>
</svg>
