<svg width="64" height="63" viewBox="0 0 64 63" fill="none" xmlns="http://www.w3.org/2000/svg">
<g id="mastodon-icon-V2">
<path id="Subtract" fill-rule="evenodd" clip-rule="evenodd" d="M8.13867 0C3.72039 0 0.138672 3.58172 0.138672 8V55C0.138672 59.4183 3.72039 63 8.13867 63H55.1387C59.5569 63 63.1387 59.4183 63.1387 55V8C63.1387 3.58172 59.5569 0 55.1387 0H8.13867ZM15.2488 9.82813C17.2473 8.50126 21.1952 7.58392 26.9941 7.09249C29.14 6.91229 36.6753 7.01058 38.8704 7.2563C42.6872 7.66582 46.16 8.43574 47.9127 9.25479C49.5345 10.0083 51.5166 11.9413 52.696 13.8906C53.4004 15.0373 54.2358 17.2651 54.5962 18.8869C55.1532 21.4423 55.0713 28.4862 54.416 33.6299C53.9737 37.2173 53.7116 37.8889 52.0735 39.5762C49.4689 42.2791 46.0453 43.7861 41.0163 44.4905C38.8048 44.7854 37.6418 44.8509 33.7103 44.8345C28.9598 44.8345 26.9613 44.6543 23.2919 43.8844L22.2435 43.6551V44.294C22.2435 45.1622 22.5548 46.5218 22.9316 47.3245C23.6851 48.9462 25.2577 50.0929 27.4036 50.5843C30.7453 51.3706 36.5279 51.1413 40.1972 50.0765C40.5249 49.9946 40.5412 50.0601 40.6395 51.3542C40.8197 53.582 40.787 54.0571 40.4757 54.1881C39.1488 54.7287 37.0848 55.3184 35.5122 55.6133C33.0059 56.0883 27.9933 56.1375 25.2249 55.6952C18.4104 54.6304 15.1342 52.7466 12.6115 48.4875C10.1052 44.2448 9.13867 38.1838 9.13867 26.7498C9.13867 20.1318 9.41715 18.1825 10.7768 15.1847C11.7105 13.1043 13.4797 10.9912 15.2488 9.82813ZM31.2859 19.1162C30.0082 16.9703 28.8943 16.0529 26.8794 15.5288C26.3716 15.3977 25.4215 15.283 24.7826 15.2994C21.2443 15.3322 18.7708 17.2979 17.706 20.9673C17.4767 21.7863 17.4275 22.9821 17.362 29.3216L17.3128 36.7423H19.9338H22.5712V29.895C22.5712 25.6359 22.6367 22.8347 22.7514 22.4416C22.9643 21.6225 23.7506 20.7543 24.4714 20.525C24.799 20.4103 25.5525 20.3612 26.175 20.3939C27.5838 20.4758 28.4192 20.9837 28.9762 22.114C29.3529 22.8675 29.3693 23.0477 29.4185 27.3559L29.4676 31.8279H31.9739H34.4966L34.5621 27.6016C34.6277 24.2435 34.6932 23.2442 34.9061 22.6873C35.3157 21.6225 35.8071 21.0164 36.5606 20.6724C37.3633 20.312 39.0506 20.2629 39.8205 20.5905C40.5085 20.869 41.1801 21.6717 41.4094 22.458C41.5077 22.8347 41.5732 25.7014 41.5732 29.895V36.7423H44.2106H46.848L46.7661 29.3216C46.6841 21.1638 46.6678 20.9509 45.6194 18.9852C44.6857 17.2324 42.9493 15.8891 41.0654 15.4632C39.4437 15.0865 37.1995 15.3322 35.8399 16.0202C34.513 16.6918 33.956 17.3307 32.3343 19.9353L32.0394 20.4103L31.2859 19.1162Z" fill="#B71B1C"/>
</g>
</svg>
