<svg width="275" height="568" viewBox="0 0 275 568" fill="none" xmlns="http://www.w3.org/2000/svg">
<g opacity="0.6">
<g opacity="0.2">
<path d="M117.47 258.052L105.155 258.025C104.473 257.274 104.755 256.41 104.749 255.622C104.744 249.73 104.773 243.846 104.793 237.954C104.805 234.34 104.752 235.012 101.389 234.966C98.9713 234.937 96.5541 234.924 94.1367 234.949C91.5925 234.974 91.5586 234.997 91.5332 237.445C91.488 243.229 91.4935 249.013 91.4736 254.797C91.4714 255.43 91.4185 256.063 91.467 256.689C91.5647 257.793 91.0394 258.147 89.8562 258.129C86.6361 258.068 83.4073 258.099 80.187 258.092C76.1554 258.082 72.1236 258.112 68.1006 258.041C66.7653 258.015 66.2821 258.415 66.3117 259.651C66.378 262.485 66.402 265.335 66.2655 268.168C66.1926 269.705 66.749 270.131 68.4057 270.111C75.193 270.05 81.9883 270.111 88.7838 270.119C91.5814 270.125 91.4299 269.94 91.4127 272.48C91.396 274.897 91.3116 277.322 91.4132 279.731C91.4759 281.152 90.8745 281.529 89.4124 281.479C86.6489 281.388 83.8846 281.506 81.1295 281.414C79.583 281.365 78.8804 281.656 78.9002 283.294C78.9788 289.919 78.956 296.545 78.8318 303.162C78.8004 304.923 79.5936 305.288 81.2673 305.245C84.0314 305.174 86.7949 305.288 89.5589 305.225C90.9198 305.197 91.3663 305.646 91.3198 306.874C91.2266 309.399 91.1841 311.924 91.3022 314.442C91.3814 315.994 90.7799 316.394 89.1403 316.367C82.4634 316.275 75.7861 316.298 69.1089 316.291C66.1676 316.284 66.159 316.308 66.1327 319.041C66.1057 321.975 66.1125 324.91 66.1015 328.122L74.8663 328.142C79.4727 328.152 84.0791 328.171 88.677 328.173C91.3902 328.179 91.23 328.055 91.2212 330.619C91.1921 336.611 91.163 342.604 91.1593 348.596C91.1501 351.276 91.1754 351.291 94.2096 351.313C96.8551 351.335 99.5095 351.225 102.155 351.37C104.064 351.475 104.464 350.742 104.453 349.174C104.397 343.29 104.451 337.398 104.496 331.506C104.5 330.479 104.284 329.429 104.795 328.318L117.236 328.346C117.226 331.373 117.199 334.361 117.205 337.358C117.213 339.968 117.23 339.991 119.952 340.005C126.629 340.035 133.306 340.05 139.983 340.05C142.84 340.049 142.857 340.018 142.891 337.516C142.925 334.991 143.001 332.466 142.892 329.948C142.821 328.45 143.59 328.243 144.951 328.277C147.825 328.346 150.707 328.375 153.581 328.289C155.111 328.239 155.523 328.741 155.502 330.085C155.413 336.077 155.435 342.07 155.414 348.062C155.412 348.795 155.409 349.537 155.415 350.27C155.413 351.05 155.893 351.422 156.696 351.432C160.153 351.455 163.601 351.47 167.058 351.455C168.673 351.451 168.406 350.323 168.418 349.412C168.444 344.261 168.428 339.111 168.496 333.952C168.519 332.192 167.69 329.958 168.877 328.787C170.09 327.585 172.572 328.394 174.483 328.383C180.239 328.334 185.995 328.339 191.75 328.43C193.5 328.457 194.211 328.057 194.107 326.342C193.955 323.825 194.116 321.3 194.082 318.775C194.056 316.628 194.022 316.581 191.521 316.568C185.3 316.531 179.088 316.532 172.867 316.518C172.292 316.517 171.717 316.515 171.143 316.514C168.379 316.531 168.522 316.601 168.539 314.107C168.564 311.69 168.598 309.273 168.556 306.848C168.534 305.759 169.009 305.382 170.175 305.4C173.167 305.453 176.159 305.398 179.151 305.436C180.41 305.454 181.029 305.092 181.033 303.818C181.015 296.876 181.038 289.942 181.105 283C181.109 281.818 180.459 281.624 179.394 281.637C176.401 281.653 173.41 281.585 170.417 281.647C169.073 281.675 168.601 281.257 168.639 280.029C168.725 277.404 168.784 274.771 168.65 272.145C168.562 270.531 169.265 270.247 170.845 270.266C177.404 270.35 183.971 270.327 190.53 270.341C191.333 270.343 192.144 270.345 192.947 270.347C193.742 270.349 194.25 270.095 194.253 269.276C194.264 266.018 194.258 262.759 194.295 259.5C194.307 258.427 193.597 258.34 192.718 258.346C190.757 258.35 188.805 258.337 186.844 258.333C181.545 258.321 176.254 258.232 170.954 258.336C169.052 258.378 168.665 257.751 168.696 256.176C168.802 250.076 168.78 243.983 168.784 237.883C168.794 235.149 168.769 235.141 165.793 235.111C163.376 235.09 160.959 235.077 158.542 235.095C155.82 235.112 155.803 235.135 155.785 237.761C155.749 243.544 155.746 249.328 155.726 255.112C155.724 255.745 155.688 256.378 155.719 257.004C155.767 257.961 155.267 258.269 154.27 258.259C151.05 258.221 147.821 258.198 144.6 258.237C143.265 258.258 143.149 257.585 143.161 256.643C143.195 253.91 143.129 251.176 143.223 248.443C143.27 247.014 142.883 246.357 141.134 246.368C133.881 246.421 126.63 246.397 119.378 246.319C117.764 246.3 117.474 246.971 117.487 248.215C117.526 251.45 117.481 254.686 117.47 258.037L117.47 258.052ZM143.117 281.64C146.684 281.632 150.242 281.656 153.809 281.602C155.043 281.582 155.676 281.807 155.663 283.135C155.581 289.961 155.574 296.788 155.576 303.614C155.572 304.61 155.317 305.181 154.049 305.132C150.381 304.992 146.704 305.316 143.037 304.914C142.967 308.149 142.845 311.384 142.868 314.628C142.872 315.956 142.422 316.488 140.909 316.477C133.582 316.414 126.254 316.405 118.925 316.427C117.691 316.424 117.372 315.945 117.392 314.925C117.463 311.582 117.475 308.231 117.511 304.887C113.842 305.242 110.158 304.917 106.489 305.04C104.968 305.09 104.53 304.51 104.543 303.182C104.617 296.564 104.648 289.946 104.611 283.329C104.608 281.985 105.04 281.469 106.57 281.503C110.247 281.588 113.932 281.558 117.609 281.574C117.594 278.323 117.614 275.08 117.541 271.836C117.519 270.678 117.808 270.161 119.254 270.172C126.598 270.251 133.943 270.252 141.28 270.23C142.666 270.233 143.019 270.751 143.015 271.925C142.995 275.168 143.077 278.412 143.125 281.655L143.117 281.64Z" fill="white"/>
<path d="M310.579 141.886L298.264 141.859C297.582 141.108 297.864 140.244 297.859 139.456C297.854 133.564 297.882 127.68 297.902 121.788C297.915 118.174 297.862 118.846 294.498 118.8C292.081 118.771 289.664 118.758 287.246 118.783C284.702 118.808 284.668 118.831 284.643 121.279C284.598 127.063 284.603 132.847 284.583 138.631C284.581 139.264 284.528 139.897 284.577 140.523C284.674 141.627 284.149 141.981 282.966 141.963C279.746 141.902 276.517 141.933 273.297 141.926C269.265 141.916 265.233 141.946 261.21 141.875C259.875 141.849 259.392 142.249 259.421 143.485C259.488 146.319 259.512 149.169 259.375 152.002C259.302 153.539 259.859 153.965 261.515 153.945C268.302 153.884 275.098 153.945 281.893 153.953C284.691 153.959 284.539 153.774 284.522 156.314C284.505 158.731 284.421 161.156 284.523 163.565C284.585 164.986 283.984 165.363 282.522 165.313C279.758 165.222 276.994 165.34 274.239 165.248C272.693 165.199 271.99 165.49 272.01 167.128C272.088 173.753 272.066 180.379 271.941 186.996C271.91 188.757 272.703 189.122 274.377 189.079C277.141 189.008 279.904 189.122 282.668 189.059C284.029 189.031 284.476 189.48 284.429 190.708C284.336 193.233 284.294 195.758 284.412 198.276C284.491 199.828 283.889 200.228 282.25 200.201C275.573 200.109 268.896 200.132 262.218 200.125C259.277 200.118 259.269 200.142 259.242 202.875C259.215 205.809 259.222 208.744 259.211 211.956L267.976 211.976C272.582 211.986 277.189 212.005 281.787 212.007C284.5 212.013 284.34 211.889 284.331 214.453C284.302 220.445 284.273 226.438 284.269 232.43C284.26 235.11 284.285 235.125 287.319 235.147C289.965 235.169 292.619 235.059 295.264 235.204C297.174 235.309 297.574 234.576 297.562 233.008C297.506 227.124 297.56 221.232 297.606 215.34C297.61 214.313 297.393 213.263 297.904 212.152L310.346 212.18C310.335 215.207 310.308 218.195 310.315 221.192C310.323 223.802 310.34 223.825 313.061 223.839C319.738 223.869 326.415 223.884 333.093 223.884C335.949 223.883 335.966 223.852 336 221.35C336.034 218.825 336.111 216.3 336.001 213.782C335.93 212.284 336.7 212.077 338.061 212.111C340.934 212.18 343.816 212.209 346.69 212.123C348.22 212.073 348.633 212.575 348.611 213.919C348.523 219.911 348.545 225.904 348.524 231.896C348.521 232.629 348.519 233.371 348.525 234.104C348.522 234.884 349.003 235.256 349.806 235.266C353.262 235.289 356.711 235.304 360.168 235.289C361.782 235.285 361.516 234.157 361.527 233.246C361.553 228.095 361.537 222.945 361.606 217.786C361.629 216.026 360.8 213.792 361.987 212.621C363.2 211.419 365.682 212.228 367.592 212.217C373.348 212.168 379.104 212.173 384.86 212.264C386.609 212.291 387.321 211.891 387.217 210.176C387.065 207.659 387.226 205.134 387.192 202.609C387.166 200.462 387.132 200.415 384.63 200.402C378.409 200.365 372.197 200.366 365.976 200.352C365.402 200.351 364.827 200.349 364.252 200.348C361.488 200.365 361.632 200.435 361.649 197.941C361.674 195.524 361.708 193.107 361.665 190.682C361.644 189.593 362.118 189.216 363.285 189.234C366.276 189.287 369.269 189.232 372.261 189.27C373.52 189.288 374.138 188.926 374.143 187.652C374.124 180.71 374.148 173.776 374.214 166.834C374.218 165.652 373.568 165.458 372.503 165.471C369.511 165.487 366.519 165.419 363.527 165.481C362.183 165.509 361.711 165.091 361.749 163.863C361.834 161.238 361.894 158.605 361.759 155.979C361.672 154.365 362.374 154.081 363.955 154.1C370.513 154.184 377.081 154.161 383.64 154.175C384.443 154.177 385.254 154.179 386.057 154.181C386.851 154.183 387.359 153.929 387.362 153.11C387.373 149.852 387.368 146.593 387.404 143.334C387.416 142.261 386.707 142.174 385.828 142.18C383.867 142.183 381.914 142.171 379.954 142.167C374.654 142.155 369.363 142.066 364.063 142.17C362.162 142.212 361.775 141.585 361.806 140.01C361.911 133.91 361.89 127.817 361.894 121.717C361.903 118.983 361.878 118.975 358.903 118.945C356.486 118.924 354.069 118.911 351.651 118.929C348.929 118.946 348.912 118.969 348.895 121.595C348.858 127.378 348.855 133.162 348.835 138.946C348.833 139.579 348.797 140.212 348.829 140.838C348.876 141.795 348.377 142.103 347.379 142.093C344.159 142.055 340.93 142.032 337.71 142.071C336.374 142.091 336.258 141.419 336.27 140.477C336.305 137.744 336.238 135.01 336.332 132.277C336.379 130.848 335.993 130.191 334.243 130.202C326.991 130.255 319.739 130.231 312.487 130.153C310.873 130.134 310.583 130.805 310.596 132.049C310.636 135.284 310.591 138.52 310.579 141.871L310.579 141.886ZM336.226 165.474C339.793 165.466 343.352 165.49 346.919 165.436C348.153 165.416 348.786 165.641 348.773 166.969C348.69 173.795 348.683 180.622 348.685 187.448C348.682 188.444 348.426 189.015 347.159 188.966C343.491 188.826 339.813 189.15 336.146 188.748C336.076 191.983 335.955 195.218 335.978 198.462C335.982 199.79 335.532 200.322 334.019 200.311C326.691 200.248 319.363 200.239 312.035 200.261C310.801 200.258 310.481 199.779 310.502 198.759C310.573 195.416 310.584 192.064 310.621 188.721C306.951 189.076 303.267 188.751 299.599 188.874C298.077 188.924 297.64 188.344 297.653 187.016C297.726 180.398 297.757 173.78 297.721 167.163C297.717 165.819 298.15 165.303 299.68 165.337C303.356 165.422 307.041 165.392 310.718 165.408C310.704 162.157 310.723 158.914 310.65 155.67C310.629 154.512 310.918 153.995 312.363 154.006C319.708 154.085 327.053 154.086 334.389 154.064C335.775 154.067 336.129 154.585 336.125 155.759C336.105 159.002 336.187 162.246 336.235 165.489L336.226 165.474Z" fill="white"/>
<path d="M245.941 258.343L233.627 258.315C232.945 257.565 233.227 256.7 233.221 255.913C233.216 250.021 233.244 244.137 233.265 238.245C233.277 234.631 233.224 235.302 229.86 235.256C227.443 235.228 225.026 235.214 222.608 235.24C220.064 235.265 220.03 235.288 220.005 237.736C219.96 243.52 219.965 249.304 219.945 255.087C219.943 255.721 219.89 256.354 219.939 256.979C220.036 258.084 219.511 258.438 218.328 258.42C215.108 258.358 211.879 258.39 208.659 258.382C204.627 258.373 200.595 258.403 196.572 258.332C195.237 258.306 194.754 258.706 194.783 259.942C194.85 262.776 194.874 265.625 194.737 268.459C194.664 269.995 195.221 270.421 196.877 270.402C203.665 270.34 210.46 270.402 217.255 270.41C220.053 270.416 219.902 270.23 219.884 272.771C219.868 275.188 219.783 277.612 219.885 280.022C219.948 281.443 219.346 281.82 217.884 281.77C215.121 281.679 212.356 281.796 209.601 281.705C208.055 281.655 207.352 281.947 207.372 283.584C207.45 290.21 207.428 296.835 207.304 303.453C207.272 305.214 208.065 305.578 209.739 305.536C212.503 305.465 215.267 305.579 218.031 305.516C219.392 305.488 219.838 305.937 219.791 307.165C219.698 309.69 219.656 312.215 219.774 314.732C219.853 316.285 219.252 316.685 217.612 316.658C210.935 316.566 204.258 316.589 197.581 316.582C194.639 316.575 194.631 316.598 194.604 319.332C194.577 322.266 194.584 325.2 194.573 328.413L203.338 328.433C207.944 328.443 212.551 328.461 217.149 328.464C219.862 328.47 219.702 328.346 219.693 330.91C219.664 336.902 219.635 342.894 219.631 348.887C219.622 351.566 219.647 351.582 222.681 351.604C225.327 351.625 227.981 351.516 230.626 351.661C232.536 351.765 232.936 351.033 232.924 349.465C232.868 343.581 232.923 337.689 232.968 331.797C232.972 330.77 232.756 329.719 233.267 328.608L245.708 328.637C245.698 331.664 245.67 334.652 245.677 337.648C245.685 340.258 245.702 340.282 248.423 340.295C255.1 340.326 261.778 340.341 268.455 340.341C271.312 340.339 271.329 340.309 271.363 337.807C271.397 335.282 271.473 332.757 271.363 330.239C271.292 328.741 272.062 328.534 273.423 328.568C276.296 328.636 279.178 328.666 282.052 328.58C283.582 328.529 283.995 329.032 283.973 330.376C283.885 336.368 283.907 342.36 283.886 348.353C283.884 349.086 283.881 349.827 283.887 350.561C283.884 351.341 284.365 351.713 285.168 351.722C288.625 351.746 292.073 351.761 295.53 351.746C297.144 351.742 296.878 350.614 296.889 349.702C296.916 344.552 296.899 339.401 296.968 334.243C296.991 332.482 296.162 330.249 297.349 329.078C298.562 327.876 301.044 328.685 302.954 328.673C308.71 328.625 314.466 328.63 320.222 328.72C321.971 328.747 322.683 328.347 322.579 326.633C322.427 324.115 322.588 321.59 322.554 319.065C322.528 316.918 322.494 316.872 319.992 316.859C313.772 316.821 307.559 316.823 301.339 316.809C300.764 316.807 300.189 316.806 299.614 316.805C296.85 316.822 296.994 316.892 297.011 314.397C297.036 311.98 297.07 309.563 297.027 307.139C297.006 306.05 297.48 305.672 298.647 305.691C301.639 305.744 304.631 305.689 307.623 305.726C308.882 305.745 309.5 305.383 309.505 304.109C309.486 297.167 309.51 290.232 309.576 283.29C309.58 282.109 308.93 281.914 307.865 281.927C304.873 281.944 301.881 281.875 298.889 281.938C297.545 281.966 297.073 281.548 297.111 280.32C297.196 277.695 297.256 275.062 297.121 272.436C297.034 270.822 297.736 270.538 299.317 270.557C305.876 270.641 312.443 270.617 319.002 270.632C319.805 270.634 320.616 270.636 321.419 270.638C322.214 270.639 322.722 270.386 322.724 269.567C322.736 266.308 322.73 263.05 322.766 259.791C322.779 258.718 322.069 258.631 321.19 258.637C319.229 258.64 317.277 258.628 315.316 258.624C310.016 258.612 304.725 258.522 299.426 258.626C297.524 258.668 297.137 258.042 297.168 256.467C297.273 250.366 297.252 244.274 297.256 238.173C297.266 235.44 297.24 235.432 294.265 235.402C291.848 235.381 289.431 235.368 287.013 235.386C284.292 235.403 284.275 235.426 284.257 238.051C284.22 243.835 284.217 249.619 284.197 255.403C284.195 256.036 284.159 256.669 284.191 257.294C284.238 258.252 283.739 258.56 282.741 258.55C279.521 258.512 276.293 258.489 273.072 258.528C271.737 258.548 271.621 257.876 271.632 256.934C271.667 254.2 271.6 251.467 271.694 248.733C271.742 247.305 271.355 246.648 269.605 246.659C262.353 246.712 255.101 246.688 247.85 246.61C246.235 246.591 245.946 247.262 245.958 248.505C245.998 251.741 245.953 254.976 245.941 258.328L245.941 258.343ZM271.589 281.93C275.155 281.923 278.714 281.946 282.281 281.893C283.515 281.872 284.148 282.098 284.135 283.426C284.052 290.252 284.046 297.078 284.048 303.905C284.044 304.901 283.789 305.472 282.521 305.422C278.853 305.283 275.175 305.607 271.509 305.204C271.438 308.44 271.317 311.675 271.34 314.918C271.344 316.247 270.894 316.778 269.381 316.767C262.053 316.704 254.725 316.696 247.397 316.718C246.163 316.715 245.844 316.235 245.864 315.216C245.935 311.873 245.946 308.521 245.983 305.178C242.314 305.532 238.63 305.207 234.961 305.33C233.439 305.381 233.002 304.801 233.015 303.473C233.088 296.855 233.12 290.237 233.083 283.619C233.079 282.276 233.512 281.759 235.042 281.794C238.718 281.879 242.404 281.849 246.08 281.865C246.066 278.614 246.086 275.371 246.012 272.127C245.991 270.969 246.28 270.452 247.725 270.463C255.07 270.541 262.415 270.543 269.751 270.521C271.138 270.524 271.491 271.042 271.487 272.216C271.467 275.459 271.549 278.702 271.597 281.946L271.589 281.93Z" fill="white"/>
<path d="M182.107 141.596L169.792 141.568C169.11 140.817 169.392 139.953 169.386 139.165C169.381 133.274 169.41 127.389 169.43 121.497C169.442 117.884 169.389 118.555 166.026 118.509C163.608 118.48 161.191 118.467 158.774 118.493C156.23 118.518 156.196 118.541 156.17 120.989C156.125 126.772 156.131 132.556 156.111 138.34C156.108 138.973 156.056 139.606 156.104 140.232C156.202 141.336 155.677 141.69 154.493 141.672C151.273 141.611 148.044 141.642 144.824 141.635C140.793 141.626 136.761 141.655 132.738 141.585C131.402 141.558 130.919 141.959 130.949 143.194C131.015 146.029 131.039 148.878 130.903 151.712C130.83 153.248 131.386 153.674 133.043 153.655C139.83 153.593 146.625 153.655 153.421 153.662C156.219 153.669 156.067 153.483 156.05 156.023C156.033 158.44 155.949 160.865 156.05 163.275C156.113 164.696 155.512 165.073 154.05 165.023C151.286 164.932 148.522 165.049 145.767 164.958C144.22 164.908 143.518 165.2 143.537 166.837C143.616 173.463 143.593 180.088 143.469 186.706C143.438 188.466 144.231 188.831 145.904 188.788C148.669 188.718 151.432 188.832 154.196 188.769C155.557 188.741 156.003 189.19 155.957 190.417C155.864 192.942 155.821 195.467 155.939 197.985C156.018 199.537 155.417 199.938 153.777 199.911C147.1 199.818 140.423 199.842 133.746 199.834C130.805 199.828 130.796 199.851 130.77 202.584C130.743 205.519 130.75 208.453 130.739 211.666L139.503 211.685C144.11 211.696 148.716 211.714 153.314 211.717C156.027 211.723 155.867 211.599 155.858 214.163C155.829 220.155 155.8 226.147 155.796 232.139C155.787 234.819 155.813 234.834 158.847 234.857C161.492 234.878 164.147 234.768 166.792 234.913C168.701 235.018 169.101 234.285 169.09 232.718C169.034 226.833 169.088 220.942 169.134 215.05C169.137 214.023 168.921 212.972 169.432 211.861L181.873 211.889C181.863 214.916 181.836 217.905 181.842 220.901C181.85 223.511 181.867 223.534 184.589 223.548C191.266 223.579 197.943 223.594 204.62 223.593C207.477 223.592 207.494 223.561 207.528 221.059C207.562 218.534 207.638 216.009 207.529 213.492C207.458 211.994 208.228 211.787 209.588 211.821C212.462 211.889 215.344 211.919 218.218 211.833C219.748 211.782 220.16 212.285 220.139 213.628C220.051 219.621 220.072 225.613 220.052 231.605C220.049 232.339 220.046 233.08 220.052 233.814C220.05 234.594 220.53 234.965 221.333 234.975C224.79 234.998 228.238 235.014 231.695 234.998C233.31 234.994 233.043 233.866 233.055 232.955C233.081 227.805 233.065 222.654 233.133 217.496C233.156 215.735 232.327 213.502 233.515 212.331C234.727 211.129 237.209 211.937 239.12 211.926C244.876 211.877 250.632 211.883 256.387 211.973C258.137 212 258.848 211.6 258.744 209.886C258.592 207.368 258.753 204.843 258.72 202.318C258.693 200.171 258.659 200.125 256.158 200.111C249.937 200.074 243.725 200.076 237.504 200.061C236.929 200.06 236.354 200.059 235.78 200.058C233.016 200.074 233.159 200.144 233.176 197.65C233.201 195.233 233.235 192.816 233.193 190.391C233.171 189.303 233.646 188.925 234.812 188.943C237.804 188.996 240.796 188.941 243.788 188.979C245.047 188.997 245.666 188.636 245.67 187.362C245.652 180.419 245.676 173.485 245.742 166.543C245.746 165.362 245.096 165.167 244.031 165.18C241.039 165.197 238.047 165.128 235.054 165.191C233.71 165.219 233.239 164.801 233.277 163.573C233.362 160.947 233.421 158.314 233.287 155.689C233.199 154.074 233.902 153.79 235.482 153.809C242.041 153.894 248.608 153.87 255.167 153.885C255.97 153.887 256.782 153.888 257.584 153.89C258.379 153.892 258.887 153.638 258.89 152.82C258.901 149.561 258.895 146.302 258.932 143.044C258.944 141.97 258.234 141.884 257.355 141.89C255.394 141.893 253.442 141.881 251.481 141.876C246.182 141.864 240.891 141.775 235.591 141.879C233.689 141.921 233.303 141.295 233.333 139.719C233.439 133.619 233.418 127.526 233.422 121.426C233.431 118.692 233.406 118.685 230.431 118.655C228.013 118.634 225.596 118.621 223.179 118.638C220.457 118.655 220.44 118.678 220.423 121.304C220.386 127.088 220.383 132.872 220.363 138.655C220.361 139.289 220.325 139.922 220.356 140.547C220.404 141.505 219.904 141.813 218.907 141.803C215.687 141.764 212.458 141.742 209.238 141.781C207.902 141.801 207.786 141.129 207.798 140.187C207.832 137.453 207.766 134.719 207.86 131.986C207.907 130.558 207.52 129.9 205.771 129.912C198.519 129.965 191.267 129.941 184.015 129.863C182.401 129.843 182.111 130.515 182.124 131.758C182.163 134.994 182.118 138.229 182.107 141.58L182.107 141.596ZM207.754 165.183C211.321 165.176 214.879 165.199 218.446 165.145C219.68 165.125 220.313 165.35 220.3 166.679C220.218 173.505 220.211 180.331 220.213 187.157C220.21 188.153 219.954 188.724 218.686 188.675C215.019 188.536 211.341 188.859 207.674 188.457C207.604 191.693 207.483 194.928 207.505 198.171C207.509 199.499 207.059 200.031 205.546 200.02C198.219 199.957 190.891 199.948 183.563 199.97C182.329 199.968 182.009 199.488 182.029 198.469C182.1 195.125 182.112 191.774 182.148 188.43C178.479 188.785 174.795 188.46 171.126 188.583C169.605 188.634 169.167 188.053 169.18 186.725C169.254 180.108 169.285 173.49 169.249 166.872C169.245 165.528 169.678 165.012 171.207 165.046C174.884 165.132 178.569 165.102 182.246 165.118C182.231 161.867 182.251 158.623 182.178 155.38C182.156 154.222 182.445 153.705 183.891 153.716C191.235 153.794 198.58 153.795 205.917 153.773C207.303 153.776 207.656 154.295 207.652 155.468C207.633 158.712 207.714 161.955 207.762 165.198L207.754 165.183Z" fill="white"/>
<path d="M143.177 281.578C134.632 281.559 126.095 281.54 117.55 281.513C117.523 289.312 117.496 297.119 117.47 304.918C118.905 305.446 120.41 305.179 121.872 305.191C127.822 305.235 133.764 305.241 139.715 305.231C140.847 305.233 142.004 305.445 143.096 304.961C142.886 297.169 142.913 289.369 143.177 281.578Z" fill="#DB2026"/>
<path d="M271.649 281.869C263.103 281.85 254.567 281.83 246.022 281.803C245.995 289.602 245.968 297.409 245.941 305.209C247.376 305.737 248.882 305.47 250.344 305.481C256.294 305.525 262.236 305.531 268.186 305.522C269.319 305.524 270.476 305.735 271.568 305.251C271.358 297.459 271.385 289.66 271.649 281.869Z" fill="#DB2026"/>
<path d="M207.814 165.121C199.269 165.102 190.732 165.082 182.187 165.055C182.16 172.855 182.133 180.662 182.106 188.461C183.541 188.989 185.047 188.722 186.509 188.733C192.459 188.778 198.401 188.783 204.351 188.774C205.484 188.776 206.641 188.987 207.733 188.503C207.523 180.711 207.55 172.912 207.814 165.121Z" fill="#DB2026"/>
</g>
<g opacity="0.2">
<path d="M207.423 562.565L219.738 562.519C220.425 563.266 220.149 564.132 220.161 564.919C220.208 570.811 220.221 576.695 220.243 582.587C220.256 586.201 220.304 585.529 223.668 585.555C226.086 585.57 228.503 585.568 230.92 585.529C233.464 585.488 233.498 585.465 233.506 583.017C233.51 577.233 233.463 571.45 233.442 565.666C233.44 565.033 233.488 564.399 233.435 563.774C233.329 562.67 233.852 562.313 235.035 562.324C238.256 562.366 241.484 562.316 244.705 562.304C248.736 562.289 252.768 562.236 256.791 562.283C258.127 562.301 258.607 561.897 258.569 560.662C258.482 557.828 258.438 554.979 258.554 552.145C258.616 550.608 258.057 550.185 256.4 550.214C249.614 550.317 242.818 550.295 236.022 550.328C233.225 550.338 233.378 550.523 233.377 547.983C233.376 545.566 233.443 543.141 233.325 540.732C233.252 539.311 233.851 538.931 235.313 538.971C238.077 539.046 240.84 538.913 243.596 538.987C245.143 539.028 245.843 538.732 245.812 537.095C245.686 530.47 245.662 523.844 245.739 517.226C245.758 515.466 244.962 515.106 243.289 515.158C240.525 515.245 237.761 515.148 234.997 515.227C233.637 515.263 233.187 514.817 233.225 513.589C233.3 511.064 233.324 508.538 233.188 506.021C233.098 504.47 233.697 504.066 235.336 504.083C242.014 504.136 248.691 504.072 255.368 504.04C258.309 504.029 258.318 504.006 258.325 501.272C258.331 498.338 258.303 495.404 258.291 492.191L249.526 492.224C244.92 492.241 240.314 492.25 235.716 492.275C233.002 492.285 233.164 492.408 233.154 489.844C233.14 483.852 233.127 477.859 233.088 471.867C233.078 469.188 233.053 469.172 230.018 469.168C227.373 469.162 224.719 469.288 222.073 469.159C220.163 469.065 219.768 469.8 219.791 471.368C219.888 477.252 219.876 483.144 219.873 489.036C219.877 490.063 220.1 491.112 219.597 492.226L207.156 492.272C207.144 489.245 207.15 486.256 207.122 483.26C207.096 480.65 207.079 480.627 204.357 480.629C197.68 480.639 191.003 480.663 184.326 480.703C181.469 480.721 181.452 480.752 181.436 483.254C181.42 485.78 181.362 488.305 181.489 490.822C181.571 492.32 180.803 492.531 179.442 492.505C176.568 492.454 173.686 492.441 170.812 492.545C169.283 492.604 168.867 492.104 168.878 490.76C168.924 484.768 168.86 478.776 168.838 472.783C168.835 472.05 168.832 471.308 168.821 470.575C168.818 469.795 168.335 469.426 167.532 469.421C164.075 469.419 160.627 469.424 157.17 469.459C155.555 469.473 155.83 470.6 155.825 471.511C155.836 476.661 155.888 481.812 155.857 486.97C155.846 488.731 156.691 490.96 155.512 492.138C154.308 493.347 151.82 492.553 149.91 492.575C144.154 492.658 138.399 492.687 132.642 492.631C130.893 492.614 130.184 493.019 130.3 494.732C130.47 497.249 130.327 499.775 130.379 502.3C130.421 504.446 130.455 504.493 132.957 504.491C139.177 504.491 145.39 504.453 151.61 504.43C152.185 504.428 152.76 504.426 153.335 504.424C156.098 504.39 155.954 504.321 155.955 506.816C155.947 509.233 155.931 511.65 155.99 514.074C156.02 515.163 155.548 515.543 154.381 515.532C151.389 515.497 148.397 515.569 145.405 515.55C144.146 515.539 143.53 515.904 143.535 517.178C143.603 524.12 143.628 531.054 143.611 537.997C143.616 539.178 144.267 539.369 145.332 539.349C148.324 539.315 151.316 539.366 154.308 539.285C155.652 539.25 156.127 539.665 156.098 540.893C156.031 543.518 155.99 546.152 156.143 548.777C156.242 550.39 155.542 550.679 153.961 550.669C147.402 550.624 140.835 550.686 134.276 550.711C133.473 550.714 132.662 550.717 131.859 550.72C131.065 550.722 130.558 550.979 130.561 551.798C130.573 555.056 130.602 558.315 130.589 561.574C130.584 562.647 131.295 562.729 132.174 562.718C134.135 562.704 136.087 562.704 138.048 562.697C143.347 562.677 148.639 562.735 153.938 562.6C155.839 562.546 156.23 563.17 156.211 564.746C156.149 570.846 156.213 576.939 156.253 583.039C156.263 585.773 156.288 585.78 159.263 585.793C161.681 585.799 164.098 585.798 166.515 585.766C169.237 585.733 169.254 585.71 169.252 583.084C169.248 577.3 169.21 571.516 169.189 565.733C169.186 565.1 169.218 564.466 169.182 563.841C169.127 562.884 169.625 562.573 170.622 562.577C173.843 562.596 177.071 562.599 180.291 562.541C181.627 562.513 181.748 563.185 181.743 564.127C181.727 566.86 181.813 569.594 181.739 572.327C181.702 573.756 182.093 574.411 183.843 574.389C191.094 574.293 198.346 574.274 205.598 574.309C207.213 574.319 207.498 573.646 207.476 572.403C207.414 569.167 207.435 565.932 207.423 562.58L207.423 562.565ZM181.608 539.131C178.041 539.159 174.483 539.157 170.917 539.232C169.683 539.26 169.048 539.038 169.051 537.71C169.085 530.883 169.043 524.057 168.993 517.231C168.989 516.235 169.241 515.663 170.509 515.704C174.177 515.822 177.853 515.476 181.522 515.857C181.57 512.621 181.668 509.385 181.622 506.142C181.609 504.814 182.055 504.279 183.568 504.281C190.896 504.301 198.224 504.266 205.551 504.2C206.785 504.196 207.108 504.673 207.095 505.693C207.048 509.037 207.061 512.388 207.048 515.732C210.715 515.355 214.401 515.658 218.069 515.514C219.59 515.454 220.031 516.031 220.028 517.36C220.001 523.978 220.017 530.595 220.101 537.213C220.114 538.556 219.685 539.075 218.155 539.05C214.478 538.986 210.793 539.039 207.117 539.044C207.154 542.295 207.157 545.539 207.254 548.782C207.284 549.94 206.998 550.458 205.553 550.456C198.208 550.421 190.863 550.464 183.527 550.529C182.14 550.534 181.784 550.018 181.779 548.844C181.776 545.601 181.671 542.358 181.6 539.115L181.608 539.131Z" fill="white"/>
<path d="M271.228 445.727L283.543 445.681C284.23 446.428 283.955 447.294 283.966 448.081C284.013 453.973 284.026 459.857 284.048 465.749C284.061 469.363 284.11 468.691 287.474 468.717C289.891 468.731 292.308 468.73 294.726 468.69C297.27 468.65 297.303 468.627 297.311 466.179C297.315 460.395 297.269 454.611 297.247 448.828C297.245 448.194 297.293 447.561 297.24 446.936C297.135 445.832 297.658 445.475 298.841 445.486C302.061 445.528 305.29 445.478 308.51 445.466C312.542 445.451 316.573 445.397 320.597 445.444C321.932 445.463 322.412 445.059 322.374 443.824C322.288 440.99 322.243 438.141 322.36 435.306C322.422 433.77 321.862 433.347 320.206 433.376C313.419 433.478 306.623 433.457 299.828 433.49C297.03 433.5 297.183 433.685 297.182 431.144C297.182 428.727 297.249 426.302 297.13 423.893C297.057 422.473 297.656 422.092 299.118 422.133C301.882 422.208 304.646 422.074 307.401 422.149C308.948 422.19 309.649 421.894 309.617 420.257C309.492 413.632 309.467 407.006 309.544 400.388C309.563 398.627 308.767 398.267 307.094 398.32C304.33 398.407 301.566 398.309 298.803 398.389C297.442 398.425 296.992 397.979 297.03 396.751C297.105 394.225 297.13 391.7 296.994 389.183C296.903 387.631 297.502 387.228 299.142 387.245C305.819 387.297 312.496 387.234 319.173 387.202C322.115 387.191 322.123 387.168 322.13 384.434C322.136 381.5 322.108 378.565 322.097 375.353L313.332 375.385C308.725 375.402 304.119 375.412 299.521 375.436C296.808 375.446 296.969 375.569 296.959 373.006C296.946 367.013 296.932 361.021 296.893 355.029C296.883 352.349 296.858 352.334 293.824 352.33C291.178 352.324 288.525 352.45 285.878 352.32C283.968 352.227 283.573 352.962 283.596 354.53C283.694 360.413 283.682 366.305 283.678 372.197C283.682 373.224 283.905 374.274 283.402 375.388L270.961 375.433C270.95 372.406 270.956 369.418 270.928 366.422C270.901 363.812 270.884 363.789 268.163 363.791C261.485 363.8 254.808 363.825 248.131 363.865C245.274 363.883 245.258 363.914 245.242 366.416C245.226 368.941 245.167 371.467 245.295 373.984C245.376 375.481 244.608 375.693 243.247 375.667C240.373 375.616 237.491 375.603 234.618 375.706C233.088 375.766 232.672 375.266 232.684 373.922C232.729 367.929 232.665 361.937 232.643 355.945C232.64 355.211 232.638 354.47 232.626 353.737C232.624 352.957 232.14 352.588 231.337 352.583C227.88 352.58 224.432 352.585 220.975 352.621C219.361 352.635 219.635 353.761 219.63 354.673C219.641 359.823 219.694 364.974 219.662 370.132C219.652 371.893 220.497 374.121 219.318 375.299C218.113 376.508 215.626 375.715 213.715 375.737C207.96 375.82 202.204 375.849 196.448 375.793C194.698 375.776 193.99 376.18 194.106 377.894C194.276 380.411 194.133 382.937 194.184 385.462C194.226 387.608 194.26 387.654 196.762 387.653C202.983 387.653 209.195 387.615 215.416 387.592C215.99 387.59 216.565 387.588 217.14 387.586C219.904 387.552 219.76 387.483 219.76 389.977C219.752 392.394 219.736 394.812 219.796 397.236C219.825 398.325 219.353 398.705 218.187 398.694C215.194 398.658 212.203 398.731 209.211 398.711C207.951 398.701 207.335 399.066 207.34 400.34C207.408 407.282 207.433 414.216 207.417 421.158C207.421 422.34 208.073 422.53 209.138 422.511C212.13 422.477 215.122 422.528 218.114 422.447C219.457 422.411 219.932 422.827 219.903 424.054C219.837 426.68 219.796 429.314 219.949 431.939C220.048 433.552 219.347 433.84 217.767 433.831C211.208 433.785 204.641 433.848 198.082 433.872C197.279 433.875 196.467 433.878 195.664 433.881C194.87 433.884 194.364 434.141 194.367 434.959C194.379 438.218 194.408 441.477 194.394 444.736C194.39 445.809 195.1 445.891 195.979 445.88C197.94 445.865 199.892 445.866 201.853 445.859C207.153 445.839 212.444 445.897 217.743 445.761C219.645 445.708 220.036 446.332 220.016 447.908C219.954 454.008 220.019 460.101 220.058 466.201C220.068 468.935 220.094 468.942 223.069 468.954C225.486 468.961 227.904 468.96 230.321 468.928C233.042 468.895 233.059 468.871 233.058 466.246C233.053 460.462 233.015 454.678 232.994 448.895C232.992 448.261 233.023 447.628 232.987 447.003C232.933 446.045 233.43 445.735 234.428 445.739C237.648 445.758 240.877 445.761 244.097 445.703C245.432 445.675 245.553 446.346 245.548 447.288C245.533 450.022 245.619 452.755 245.544 455.489C245.507 456.918 245.899 457.573 247.648 457.551C254.9 457.455 262.152 457.436 269.404 457.471C271.018 457.48 271.303 456.807 271.282 455.564C271.219 452.329 271.241 449.093 271.228 445.742L271.228 445.727ZM245.414 422.292C241.847 422.321 238.288 422.319 234.722 422.394C233.488 422.421 232.853 422.2 232.857 420.872C232.891 414.045 232.849 407.219 232.798 400.393C232.795 399.397 233.046 398.824 234.314 398.866C237.983 398.984 241.658 398.638 245.328 399.018C245.375 395.783 245.473 392.547 245.427 389.304C245.414 387.976 245.86 387.441 247.373 387.443C254.701 387.463 262.029 387.428 269.357 387.362C270.591 387.358 270.914 387.835 270.901 388.855C270.854 392.198 270.866 395.55 270.853 398.894C274.52 398.517 278.206 398.82 281.874 398.675C283.395 398.616 283.837 399.193 283.833 400.521C283.807 407.139 283.823 413.757 283.906 420.375C283.92 421.718 283.491 422.237 281.961 422.212C278.284 422.148 274.599 422.2 270.922 422.206C270.959 425.457 270.963 428.7 271.059 431.943C271.089 433.101 270.803 433.62 269.358 433.618C262.013 433.583 254.668 433.625 247.332 433.691C245.946 433.696 245.589 433.18 245.585 432.006C245.581 428.763 245.476 425.52 245.405 422.277L245.414 422.292Z" fill="white"/>
<path d="M78.9504 563.038L91.2651 562.993C91.9525 563.739 91.6767 564.605 91.6881 565.393C91.7352 571.284 91.7484 577.169 91.7701 583.06C91.7834 586.674 91.8316 586.002 95.1957 586.029C97.6131 586.043 100.03 586.042 102.448 586.002C104.992 585.962 105.025 585.938 105.033 583.49C105.037 577.706 104.991 571.923 104.969 566.139C104.967 565.506 105.015 564.872 104.962 564.247C104.857 563.143 105.38 562.786 106.563 562.797C109.783 562.839 113.012 562.789 116.232 562.777C120.264 562.762 124.295 562.709 128.319 562.756C129.654 562.774 130.134 562.371 130.096 561.135C130.01 558.302 129.965 555.452 130.082 552.618C130.144 551.081 129.584 550.658 127.928 550.688C121.141 550.79 114.345 550.768 107.55 550.801C104.752 550.812 104.905 550.996 104.904 548.456C104.904 546.039 104.971 543.614 104.852 541.205C104.779 539.784 105.378 539.404 106.84 539.445C109.604 539.519 112.368 539.386 115.123 539.46C116.67 539.501 117.371 539.205 117.339 537.568C117.214 530.943 117.189 524.318 117.266 517.699C117.285 515.939 116.489 515.579 114.816 515.631C112.052 515.719 109.288 515.621 106.525 515.7C105.164 515.736 104.714 515.29 104.752 514.062C104.827 511.537 104.852 509.012 104.716 506.495C104.625 504.943 105.224 504.539 106.864 504.556C113.541 504.609 120.218 504.546 126.895 504.513C129.837 504.502 129.845 504.479 129.852 501.746C129.858 498.811 129.83 495.877 129.818 492.665L121.054 492.697C116.447 492.714 111.841 492.723 107.243 492.748C104.53 492.758 104.691 492.881 104.681 490.317C104.668 484.325 104.654 478.332 104.615 472.34C104.605 469.661 104.58 469.645 101.546 469.641C98.9 469.635 96.2465 469.761 93.6005 469.632C91.6899 469.538 91.2954 470.273 91.3181 471.841C91.4158 477.725 91.4037 483.617 91.4001 489.509C91.4039 490.536 91.6275 491.585 91.1244 492.699L78.683 492.745C78.6718 489.718 78.6777 486.729 78.6498 483.733C78.6233 481.123 78.6063 481.1 75.8847 481.103C69.2075 481.112 62.5303 481.136 55.8532 481.176C52.9965 481.195 52.9797 481.226 52.9635 483.728C52.9475 486.253 52.8892 488.778 53.0168 491.295C53.0984 492.793 52.33 493.004 50.9691 492.978C48.0952 492.927 45.2129 492.914 42.3395 493.018C40.8099 493.077 40.3939 492.577 40.4059 491.233C40.4514 485.241 40.3871 479.249 40.365 473.256C40.3623 472.523 40.3596 471.782 40.3484 471.048C40.3455 470.268 39.8624 469.899 39.0594 469.894C35.6024 469.892 32.154 469.897 28.6972 469.933C27.0829 469.946 27.3575 471.073 27.3524 471.984C27.3629 477.135 27.4157 482.285 27.384 487.443C27.3736 489.204 28.2185 491.433 27.0396 492.611C25.8354 493.82 23.3475 493.026 21.4374 493.048C15.6817 493.131 9.9259 493.16 4.16975 493.104C2.42008 493.088 1.71158 493.492 1.82777 495.206C1.99765 497.722 1.8548 500.248 1.90637 502.773C1.94809 504.92 1.98205 504.966 4.48389 504.964C10.7047 504.965 16.9169 504.926 23.1377 504.903C23.7124 504.901 24.2872 504.899 24.8619 504.897C27.6257 504.864 27.4817 504.795 27.4824 507.289C27.4744 509.706 27.458 512.123 27.5176 514.547C27.547 515.636 27.0751 516.016 25.9086 516.005C22.9164 515.97 19.9246 516.043 16.9325 516.023C15.6731 516.012 15.0574 516.377 15.0621 517.651C15.1299 524.593 15.1555 531.528 15.1388 538.47C15.1431 539.651 15.7947 539.842 16.8596 539.822C19.8515 539.788 22.8438 539.839 25.8356 539.759C27.1793 539.723 27.6542 540.138 27.6249 541.366C27.5585 543.992 27.5175 546.625 27.6708 549.25C27.7698 550.863 27.0693 551.152 25.4887 551.142C18.9296 551.097 12.3625 551.16 5.80369 551.184C5.00074 551.187 4.18932 551.19 3.38637 551.193C2.59188 551.196 2.08572 551.452 2.08873 552.271C2.10074 555.53 2.12963 558.788 2.11628 562.047C2.11178 563.12 2.82207 563.203 3.70106 563.192C5.66192 563.177 7.61439 563.177 9.57527 563.17C14.8747 563.15 20.166 563.208 25.465 563.073C27.3666 563.02 27.7577 563.644 27.7381 565.219C27.6761 571.32 27.7408 577.412 27.7802 583.512C27.7902 586.246 27.8156 586.254 30.7908 586.266C33.2082 586.272 35.6255 586.271 38.0427 586.239C40.7642 586.206 40.781 586.183 40.7798 583.557C40.7754 577.773 40.7372 571.99 40.7159 566.206C40.7135 565.573 40.745 564.939 40.7089 564.314C40.6547 563.357 41.1522 563.046 42.1496 563.05C45.3699 563.069 48.5987 563.073 51.8188 563.014C53.1541 562.986 53.2749 563.658 53.2699 564.6C53.2547 567.333 53.3408 570.067 53.2663 572.801C53.2293 574.229 53.6206 574.884 55.3701 574.862C62.6217 574.766 69.8736 574.747 77.1257 574.782C78.7402 574.792 79.0251 574.119 79.0036 572.876C78.9409 569.64 78.9628 566.405 78.9505 563.053L78.9504 563.038ZM53.1356 539.604C49.5689 539.632 46.0105 539.63 42.4439 539.705C41.21 539.733 40.5753 539.511 40.5788 538.183C40.6128 531.357 40.5708 524.53 40.5203 517.704C40.5166 516.708 40.7681 516.136 42.0361 516.177C45.7047 516.295 49.3802 515.95 53.0498 516.33C53.0971 513.094 53.195 509.858 53.1493 506.615C53.1359 505.287 53.5819 504.752 55.0949 504.755C62.423 504.774 69.7509 504.739 77.0788 504.674C78.3128 504.669 78.6357 505.147 78.6226 506.166C78.5757 509.51 78.5881 512.861 78.575 516.205C82.2419 515.828 85.9282 516.132 89.5959 515.987C91.1171 515.927 91.5587 516.505 91.5552 517.833C91.5288 524.451 91.5447 531.068 91.6283 537.686C91.6417 539.03 91.2125 539.549 89.6826 539.523C86.0057 539.46 82.3207 539.512 78.644 539.518C78.6813 542.769 78.6848 546.012 78.7813 549.255C78.8109 550.413 78.5255 550.931 77.0801 550.929C69.735 550.894 62.3902 550.937 55.054 551.002C53.6678 551.007 53.3109 550.491 53.3066 549.318C53.3031 546.074 53.1982 542.831 53.1271 539.588L53.1356 539.604Z" fill="white"/>
<path d="M335.894 562.091L348.209 562.046C348.896 562.792 348.621 563.658 348.632 564.446C348.679 570.338 348.692 576.222 348.714 582.114C348.727 585.728 348.776 585.056 352.14 585.082C354.557 585.096 356.974 585.095 359.392 585.055C361.936 585.015 361.969 584.992 361.977 582.544C361.981 576.76 361.935 570.976 361.913 565.192C361.911 564.559 361.959 563.926 361.906 563.301C361.801 562.197 362.324 561.84 363.507 561.851C366.727 561.893 369.956 561.842 373.176 561.83C377.208 561.816 381.239 561.762 385.263 561.809C386.598 561.827 387.078 561.424 387.04 560.189C386.954 557.355 386.909 554.506 387.026 551.671C387.088 550.134 386.528 549.712 384.872 549.741C378.085 549.843 371.289 549.822 364.494 549.855C361.696 549.865 361.849 550.05 361.848 547.509C361.848 545.092 361.915 542.667 361.796 540.258C361.723 538.838 362.322 538.457 363.784 538.498C366.548 538.573 369.312 538.439 372.067 538.514C373.614 538.554 374.315 538.258 374.283 536.621C374.158 529.996 374.133 523.371 374.21 516.753C374.229 514.992 373.433 514.632 371.76 514.685C368.996 514.772 366.232 514.674 363.469 514.754C362.108 514.79 361.658 514.343 361.696 513.115C361.771 510.59 361.796 508.065 361.66 505.548C361.569 503.996 362.168 503.592 363.808 503.61C370.485 503.662 377.162 503.599 383.839 503.567C386.781 503.556 386.789 503.533 386.796 500.799C386.802 497.865 386.774 494.93 386.763 491.718L377.998 491.75C373.391 491.767 368.785 491.776 364.187 491.801C361.474 491.811 361.635 491.934 361.625 489.37C361.612 483.378 361.598 477.386 361.559 471.394C361.549 468.714 361.524 468.699 358.49 468.694C355.844 468.689 353.19 468.814 350.544 468.685C348.634 468.592 348.239 469.327 348.262 470.894C348.36 476.778 348.348 482.67 348.344 488.562C348.348 489.589 348.571 490.639 348.068 491.752L335.627 491.798C335.616 488.771 335.622 485.783 335.594 482.787C335.567 480.177 335.55 480.154 332.829 480.156C326.151 480.165 319.474 480.19 312.797 480.23C309.94 480.248 309.924 480.279 309.908 482.781C309.891 485.306 309.833 487.831 309.961 490.348C310.042 491.846 309.274 492.057 307.913 492.032C305.039 491.98 302.157 491.968 299.284 492.071C297.754 492.131 297.338 491.63 297.35 490.287C297.395 484.294 297.331 478.302 297.309 472.31C297.306 471.576 297.304 470.835 297.292 470.101C297.29 469.321 296.806 468.953 296.003 468.948C292.546 468.945 289.098 468.95 285.641 468.986C284.027 469 284.301 470.126 284.296 471.037C284.307 476.188 284.36 481.338 284.328 486.497C284.318 488.257 285.163 490.486 283.984 491.664C282.779 492.873 280.291 492.079 278.381 492.102C272.626 492.185 266.87 492.214 261.114 492.158C259.364 492.141 258.656 492.545 258.772 494.259C258.942 496.776 258.799 499.301 258.85 501.826C258.892 503.973 258.926 504.019 261.428 504.018C267.649 504.018 273.861 503.98 280.082 503.957C280.656 503.954 281.231 503.952 281.806 503.95C284.57 503.917 284.426 503.848 284.426 506.342C284.418 508.759 284.402 511.176 284.462 513.601C284.491 514.689 284.019 515.07 282.853 515.058C279.86 515.023 276.869 515.096 273.876 515.076C272.617 515.065 272.001 515.431 272.006 516.705C272.074 523.647 272.099 530.581 272.083 537.523C272.087 538.705 272.739 538.895 273.804 538.876C276.796 538.842 279.788 538.892 282.78 538.812C284.123 538.776 284.598 539.191 284.569 540.419C284.502 543.045 284.461 545.678 284.615 548.303C284.714 549.917 284.013 550.205 282.433 550.196C275.874 550.15 269.307 550.213 262.748 550.237C261.945 550.24 261.133 550.243 260.33 550.246C259.536 550.249 259.03 550.506 259.033 551.324C259.045 554.583 259.074 557.841 259.06 561.1C259.056 562.174 259.766 562.256 260.645 562.245C262.606 562.23 264.558 562.231 266.519 562.223C271.819 562.204 277.11 562.262 282.409 562.126C284.311 562.073 284.702 562.697 284.682 564.272C284.62 570.373 284.685 576.465 284.724 582.566C284.734 585.299 284.76 585.307 287.735 585.319C290.152 585.326 292.57 585.325 294.987 585.292C297.708 585.259 297.725 585.236 297.724 582.611C297.719 576.827 297.681 571.043 297.66 565.259C297.658 564.626 297.689 563.993 297.653 563.367C297.599 562.41 298.096 562.099 299.094 562.103C302.314 562.122 305.543 562.126 308.763 562.068C310.098 562.04 310.219 562.711 310.214 563.653C310.199 566.387 310.285 569.12 310.21 571.854C310.173 573.283 310.565 573.938 312.314 573.916C319.566 573.82 326.818 573.801 334.07 573.836C335.684 573.845 335.969 573.172 335.948 571.929C335.885 568.694 335.907 565.458 335.894 562.107L335.894 562.091ZM310.08 538.657C306.513 538.686 302.954 538.683 299.388 538.758C298.154 538.786 297.519 538.565 297.523 537.236C297.557 530.41 297.515 523.584 297.464 516.758C297.461 515.761 297.712 515.189 298.98 515.231C302.649 515.348 306.324 515.003 309.994 515.383C310.041 512.147 310.139 508.912 310.093 505.668C310.08 504.34 310.526 503.806 312.039 503.808C319.367 503.827 326.695 503.793 334.023 503.727C335.257 503.722 335.58 504.2 335.567 505.219C335.52 508.563 335.532 511.915 335.519 515.258C339.186 514.882 342.872 515.185 346.54 515.04C348.061 514.98 348.503 515.558 348.499 516.886C348.473 523.504 348.489 530.122 348.572 536.739C348.586 538.083 348.157 538.602 346.627 538.577C342.95 538.513 339.265 538.565 335.588 538.571C335.625 541.822 335.629 545.065 335.725 548.308C335.755 549.466 335.469 549.985 334.024 549.982C326.679 549.948 319.334 549.99 311.998 550.056C310.612 550.061 310.255 549.545 310.251 548.371C310.247 545.128 310.142 541.885 310.071 538.642L310.08 538.657Z" fill="white"/>
<path d="M142.757 446.2L155.072 446.155C155.759 446.901 155.484 447.767 155.495 448.555C155.542 454.447 155.555 460.331 155.577 466.223C155.59 469.837 155.638 469.165 159.003 469.191C161.42 469.205 163.837 469.204 166.254 469.164C168.798 469.124 168.832 469.101 168.84 466.653C168.844 460.869 168.797 455.085 168.776 449.301C168.774 448.668 168.822 448.035 168.769 447.409C168.664 446.306 169.186 445.948 170.37 445.96C173.59 446.002 176.819 445.951 180.039 445.939C184.071 445.924 188.102 445.871 192.125 445.918C193.461 445.936 193.941 445.533 193.903 444.298C193.816 441.464 193.772 438.615 193.888 435.78C193.95 434.243 193.391 433.821 191.734 433.85C184.948 433.952 178.152 433.931 171.357 433.963C168.559 433.974 168.712 434.159 168.711 431.618C168.71 429.201 168.778 426.776 168.659 424.367C168.586 422.947 169.185 422.566 170.647 422.607C173.411 422.682 176.175 422.548 178.93 422.623C180.477 422.663 181.178 422.367 181.146 420.73C181.02 414.105 180.996 407.48 181.073 400.862C181.092 399.101 180.296 398.741 178.623 398.794C175.859 398.881 173.095 398.783 170.331 398.863C168.971 398.899 168.521 398.452 168.559 397.224C168.634 394.699 168.659 392.174 168.523 389.657C168.432 388.105 169.031 387.701 170.671 387.718C177.348 387.771 184.025 387.708 190.702 387.676C193.644 387.665 193.652 387.642 193.659 384.908C193.665 381.973 193.637 379.039 193.625 375.827L184.861 375.859C180.254 375.876 175.648 375.885 171.05 375.91C168.337 375.92 168.498 376.043 168.488 373.479C168.475 367.487 168.461 361.495 168.422 355.502C168.412 352.823 168.387 352.808 165.352 352.803C162.707 352.798 160.053 352.923 157.407 352.794C155.497 352.701 155.102 353.436 155.125 355.003C155.223 360.887 155.211 366.779 155.207 372.671C155.211 373.698 155.434 374.747 154.931 375.861L142.49 375.907C142.479 372.88 142.485 369.892 142.457 366.896C142.43 364.286 142.413 364.262 139.692 364.265C133.014 364.274 126.337 364.299 119.66 364.339C116.803 364.357 116.787 364.388 116.77 366.89C116.754 369.415 116.696 371.94 116.824 374.457C116.905 375.955 116.137 376.166 114.776 376.14C111.902 376.089 109.02 376.077 106.146 376.18C104.617 376.24 104.201 375.739 104.213 374.396C104.258 368.403 104.194 362.411 104.172 356.419C104.169 355.685 104.166 354.944 104.155 354.21C104.152 353.43 103.669 353.061 102.866 353.057C99.4093 353.054 95.9608 353.059 92.504 353.095C90.8897 353.109 91.1643 354.235 91.1592 355.146C91.1697 360.297 91.2225 365.447 91.1908 370.606C91.1804 372.366 92.0254 374.595 90.8464 375.773C89.6422 376.982 87.1543 376.188 85.2442 376.211C79.4886 376.294 73.7327 376.323 67.9766 376.267C66.2269 376.25 65.5184 376.654 65.6346 378.368C65.8045 380.885 65.6616 383.41 65.7132 385.935C65.7549 388.082 65.7889 388.128 68.2907 388.127C74.5115 388.127 80.7238 388.088 86.9445 388.066C87.5192 388.063 88.094 388.061 88.6687 388.059C91.4325 388.026 91.2885 387.957 91.2893 390.451C91.2813 392.868 91.2648 395.285 91.3245 397.71C91.3538 398.798 90.8819 399.179 89.7155 399.167C86.7233 399.132 83.7315 399.205 80.7393 399.185C79.4799 399.174 78.8642 399.539 78.8689 400.814C78.9368 407.755 78.9623 414.69 78.9456 421.632C78.95 422.813 79.6015 423.004 80.6664 422.985C83.6584 422.951 86.6506 423.001 89.6424 422.921C90.9862 422.885 91.461 423.3 91.4317 424.528C91.3653 427.154 91.3243 429.787 91.4777 432.412C91.5766 434.026 90.8761 434.314 89.2955 434.304C82.7365 434.259 76.1693 434.322 69.6105 434.346C68.8076 434.349 67.9962 434.352 67.1932 434.355C66.3987 434.358 65.8926 434.615 65.8956 435.433C65.9076 438.692 65.9365 441.95 65.9231 445.209C65.9186 446.283 66.6289 446.365 67.5079 446.354C69.4688 446.339 71.4212 446.34 73.3821 446.332C78.6816 446.313 83.9728 446.37 89.2719 446.235C91.1734 446.182 91.5645 446.806 91.545 448.381C91.4829 454.482 91.5476 460.574 91.587 466.675C91.5971 469.408 91.6225 469.416 94.5977 469.428C97.015 469.435 99.4323 469.433 101.85 469.401C104.571 469.368 104.588 469.345 104.587 466.719C104.582 460.936 104.544 455.152 104.523 449.368C104.52 448.735 104.552 448.102 104.516 447.476C104.462 446.519 104.959 446.208 105.956 446.212C109.177 446.231 112.406 446.235 115.626 446.177C116.961 446.149 117.082 446.82 117.077 447.762C117.061 450.496 117.148 453.229 117.073 455.963C117.036 457.392 117.427 458.047 119.177 458.025C126.429 457.928 133.68 457.909 140.933 457.945C142.547 457.954 142.832 457.281 142.81 456.038C142.748 452.803 142.77 449.567 142.757 446.216L142.757 446.2ZM116.942 422.766C113.376 422.795 109.817 422.792 106.251 422.867C105.017 422.895 104.382 422.673 104.386 421.345C104.42 414.519 104.378 407.693 104.327 400.866C104.323 399.87 104.575 399.298 105.843 399.34C109.512 399.457 113.187 399.112 116.857 399.492C116.904 396.256 117.002 393.02 116.956 389.777C116.943 388.449 117.389 387.915 118.902 387.917C126.23 387.936 133.558 387.902 140.886 387.836C142.12 387.831 142.443 388.309 142.429 389.328C142.383 392.672 142.395 396.023 142.382 399.367C146.049 398.991 149.735 399.294 153.403 399.149C154.924 399.089 155.366 399.667 155.362 400.995C155.336 407.613 155.352 414.231 155.435 420.848C155.449 422.192 155.019 422.711 153.489 422.686C149.813 422.622 146.128 422.674 142.451 422.68C142.488 425.931 142.492 429.174 142.588 432.417C142.618 433.575 142.332 434.094 140.887 434.091C133.542 434.056 126.197 434.099 118.861 434.165C117.475 434.17 117.118 433.654 117.113 432.48C117.11 429.237 117.005 425.994 116.934 422.751L116.942 422.766Z" fill="white"/>
<path d="M181.549 539.193C190.094 539.162 198.631 539.13 207.176 539.106C207.147 531.307 207.118 523.5 207.089 515.701C205.651 515.181 204.147 515.457 202.685 515.455C196.735 515.446 190.793 515.475 184.843 515.52C183.71 515.525 182.551 515.32 181.463 515.811C181.728 523.601 181.757 531.401 181.549 539.193Z" fill="#DB2026"/>
<path d="M245.355 422.355C253.9 422.323 262.436 422.292 270.981 422.268C270.953 414.469 270.924 406.662 270.895 398.862C269.456 398.343 267.953 398.619 266.491 398.616C260.54 398.607 254.598 398.637 248.648 398.682C247.516 398.686 246.357 398.482 245.268 398.972C245.534 406.763 245.563 414.562 245.355 422.355Z" fill="#DB2026"/>
<path d="M53.0769 539.666C61.6219 539.635 70.1585 539.604 78.7036 539.58C78.6749 531.781 78.6461 523.974 78.6174 516.174C77.1786 515.655 75.6751 515.93 74.2129 515.928C68.2625 515.919 62.3207 515.949 56.3705 515.994C55.2379 515.998 54.0792 515.794 52.9907 516.284C53.2561 524.075 53.2848 531.874 53.0769 539.666Z" fill="#DB2026"/>
<path d="M116.884 422.827C125.429 422.796 133.965 422.764 142.511 422.741C142.482 414.941 142.453 407.134 142.424 399.335C140.986 398.815 139.482 399.091 138.02 399.089C132.069 399.08 126.128 399.11 120.177 399.155C119.045 399.159 117.886 398.955 116.798 399.445C117.063 407.236 117.092 415.035 116.884 422.827Z" fill="#DB2026"/>
</g>
</g>
</svg>
