<svg width="24" height="29" viewBox="0 0 24 29" fill="none" xmlns="http://www.w3.org/2000/svg">
<path fill-rule="evenodd" clip-rule="evenodd" d="M11.5205 28.5142L11.6187 28.5694L11.6579 28.5914C11.8135 28.6743 11.9877 28.7177 12.1647 28.7177C12.3416 28.7177 12.5158 28.6743 12.6714 28.5914L12.7106 28.5707L12.8102 28.5142C13.3584 28.1941 13.8934 27.8524 14.4138 27.49C15.761 26.5535 17.0198 25.4993 18.1748 24.3402C20.8999 21.5935 23.7301 17.4665 23.7301 12.1567C23.7301 9.13662 22.5117 6.24026 20.3429 4.10475C18.1741 1.96925 15.2325 0.769531 12.1654 0.769531C9.09819 0.769531 6.15664 1.96925 3.98783 4.10475C1.81901 6.24026 0.600586 9.13662 0.600586 12.1567C0.600586 17.4652 3.4322 21.5935 6.15588 24.3402C7.31045 25.4992 8.56874 26.5534 9.91548 27.49C10.4363 27.8524 10.9718 28.1941 11.5205 28.5142ZM12.1654 16.2975C13.2807 16.2975 14.3503 15.8612 15.139 15.0847C15.9277 14.3081 16.3707 13.2549 16.3707 12.1567C16.3707 11.0585 15.9277 10.0053 15.139 9.22871C14.3503 8.45216 13.2807 8.0159 12.1654 8.0159C11.05 8.0159 9.98037 8.45216 9.19171 9.22871C8.40305 10.0053 7.95998 11.0585 7.95998 12.1567C7.95998 13.2549 8.40305 14.3081 9.19171 15.0847C9.98037 15.8612 11.05 16.2975 12.1654 16.2975Z" fill="white"/>
</svg>
