<svg width="29" height="29" viewBox="0 0 29 29" fill="none" xmlns="http://www.w3.org/2000/svg">
<path d="M14.7145 6.07019V23.4173M10.3777 19.3436L11.6484 20.2963C13.3411 21.567 16.0863 21.567 17.7806 20.2963C19.4748 19.0256 19.4748 16.9671 17.7806 15.6964C16.9349 15.0603 15.8247 14.7438 14.7145 14.7438C13.6664 14.7438 12.6183 14.4257 11.8189 13.7911C10.2201 12.5204 10.2201 10.4619 11.8189 9.19123C13.4178 7.92055 16.0112 7.92055 17.61 9.19123L18.2099 9.66827M27.7248 14.7438C27.7248 16.4523 27.3883 18.1441 26.7345 19.7226C26.0806 21.3011 25.1223 22.7354 23.9142 23.9435C22.7061 25.1516 21.2718 26.1099 19.6933 26.7638C18.1148 27.4176 16.423 27.7541 14.7145 27.7541C13.0059 27.7541 11.3141 27.4176 9.73561 26.7638C8.15712 26.1099 6.72287 25.1516 5.51475 23.9435C4.30662 22.7354 3.34829 21.3011 2.69446 19.7226C2.04062 18.1441 1.7041 16.4523 1.7041 14.7438C1.7041 11.2932 3.07483 7.98396 5.51475 5.54405C7.95466 3.10413 11.2639 1.7334 14.7145 1.7334C18.165 1.7334 21.4743 3.10413 23.9142 5.54405C26.3541 7.98396 27.7248 11.2932 27.7248 14.7438Z" stroke="white" stroke-width="2.16839" stroke-linecap="round" stroke-linejoin="round"/>
</svg>
