<svg width="121" height="121" viewBox="0 0 121 121" fill="none" xmlns="http://www.w3.org/2000/svg">
<g id="Layer_1" clip-path="url(#clip0_499_1670)">
<g id="Group 237877">
<path id="Vector" d="M75.6405 120.76C66.2505 121.28 56.8605 120.82 47.4705 121.01C45.5405 121.05 45.2205 120.11 45.2605 118.5C45.3305 115.23 45.3105 111.96 45.2705 108.7C45.2405 105.55 45.2105 105.49 42.1505 105.48C34.9305 105.44 27.7105 105.47 20.4905 105.47C19.6705 105.47 18.8605 105.49 18.0405 105.47C15.1105 105.4 15.0805 105.4 15.0405 102.59C15.0005 99.6 15.0405 96.6 15.0405 93.6C15.0405 88.56 15.0605 83.52 15.0405 78.49C15.0205 75.7 14.9805 75.67 12.0705 75.64C8.94053 75.61 5.80053 75.55 2.67053 75.66C0.830532 75.73 -0.0194679 75.32 0.0105321 73.22C0.110532 64.64 0.100532 56.06 0.0105321 47.49C-0.00946787 45.48 0.750532 44.88 2.65053 44.95C5.78053 45.06 8.91053 45.02 12.0505 44.97C14.9505 44.92 15.0105 44.88 15.0305 42.02C15.0705 34.94 15.0405 27.86 15.0405 20.78C15.0405 19.96 15.0405 19.15 15.0405 18.33C15.0805 15.23 15.0905 15.19 18.0805 15.18C25.1605 15.16 32.2405 15.18 39.3305 15.18C40.2805 15.18 41.2405 15.18 42.1905 15.18C45.1805 15.21 45.3405 15.38 45.3005 12.03C45.2605 8.76 45.3405 5.49 45.2705 2.23C45.2405 0.66 45.7505 0 47.3705 0C56.2205 0.05 65.0805 0.03 73.9305 0.01C75.3305 0.01 75.8405 0.62 75.8205 1.98C75.7705 5.38 75.7805 8.79 75.8205 12.19C75.8505 15.06 75.8805 15.12 78.7005 15.13C85.9205 15.16 93.1405 15.14 100.361 15.14C101.181 15.14 101.991 15.13 102.811 15.14C105.711 15.2 105.761 15.2 105.781 18C105.811 23.58 105.781 29.17 105.781 34.75C105.781 37.34 105.911 39.93 105.741 42.51C105.601 44.6 106.521 45.04 108.371 44.98C111.641 44.87 114.911 45.04 118.171 44.92C120.081 44.85 120.821 45.43 120.791 47.44C120.661 56.83 120.651 66.22 120.601 75.61C116.671 75.61 112.731 75.6 108.801 75.63C105.571 75.66 105.521 75.68 105.511 79.07C105.481 86.53 105.521 93.99 105.491 101.44C105.481 105.22 105.431 105.26 101.631 105.27C94.1705 105.3 86.7105 105.26 79.2505 105.29C75.7605 105.3 75.7505 105.35 75.7205 108.95C75.6805 112.88 75.6705 116.81 75.6405 120.74V120.76ZM75.8005 60.09C75.8005 55.88 75.7705 51.67 75.8205 47.46C75.8405 45.89 75.6305 44.94 73.6405 44.96C64.9405 45.05 56.2505 45.04 47.5505 44.96C45.7405 44.95 45.2505 45.65 45.2605 47.34C45.3205 56.03 45.3005 64.73 45.2705 73.42C45.2705 74.83 45.4705 75.66 47.2405 75.64C56.0705 75.56 64.9105 75.57 73.7405 75.64C75.3705 75.65 75.8505 75.09 75.8205 73.52C75.7505 69.04 75.7905 64.55 75.7905 60.07L75.8005 60.09Z" fill="#DB2026"/>
<rect id="Rectangle 6427" x="36" y="36" width="48" height="51" fill="#DB2026"/>
</g>
</g>
<defs>
<clipPath id="clip0_499_1670">
<rect width="120.8" height="121.01" fill="white"/>
</clipPath>
</defs>
</svg>
