<svg width="60" height="60" viewBox="0 0 60 60" fill="none" xmlns="http://www.w3.org/2000/svg">
<path d="M37.5707 59.8721C32.906 60.1299 28.2414 59.9019 23.5768 59.9961C22.6181 60.0159 22.4591 59.5498 22.479 58.7516C22.5137 57.1304 22.5038 55.5091 22.4839 53.8928C22.469 52.3311 22.4541 52.3013 20.934 52.2964C17.3474 52.2765 13.7607 52.2914 10.1741 52.2914C9.76677 52.2914 9.36439 52.3013 8.95704 52.2914C7.50152 52.2567 7.48662 52.2567 7.46675 50.8635C7.44688 49.3811 7.46675 47.8937 7.46675 46.4063C7.46675 43.9075 7.47668 41.4087 7.46675 38.9149C7.45681 37.5316 7.43694 37.5168 5.99136 37.5019C4.43649 37.487 2.87665 37.4573 1.32177 37.5118C0.407727 37.5465 -0.0145222 37.3432 0.000380771 36.3021C0.0500572 32.0481 0.0450896 27.7942 0.000380771 23.5453C-0.00955451 22.5487 0.367986 22.2512 1.31184 22.286C2.86671 22.3405 4.42158 22.3207 5.98142 22.2959C7.42204 22.2711 7.45184 22.2512 7.46178 20.8333C7.48165 17.3231 7.46675 13.8128 7.46675 10.3026C7.46675 9.89605 7.46675 9.49446 7.46675 9.08791C7.48662 7.55095 7.49159 7.53111 8.97691 7.52616C12.494 7.51624 16.0111 7.52616 19.5332 7.52616C20.0051 7.52616 20.482 7.52616 20.9539 7.52616C22.4392 7.54103 22.5187 7.62532 22.4988 5.9644C22.479 4.34316 22.5187 2.72191 22.4839 1.10562C22.469 0.327224 22.7224 0 23.5271 0C27.9235 0.0247897 32.3248 0.0148738 36.7212 0.00495794C37.4167 0.00495794 37.67 0.307392 37.6601 0.981673C37.6352 2.66737 37.6402 4.35803 37.6601 6.04373C37.675 7.46666 37.6899 7.49641 39.0908 7.50137C42.6774 7.51624 46.264 7.50632 49.8507 7.50632C50.258 7.50632 50.6604 7.50137 51.0677 7.50632C52.5084 7.53607 52.5332 7.53607 52.5431 8.9243C52.558 11.6908 52.5431 14.4623 52.5431 17.2288C52.5431 18.513 52.6077 19.7971 52.5233 21.0762C52.4537 22.1124 52.9107 22.3306 53.8298 22.3008C55.4542 22.2463 57.0786 22.3306 58.698 22.2711C59.6469 22.2364 60.0145 22.5239 59.9996 23.5205C59.935 28.176 59.93 32.8315 59.9052 37.487C57.9529 37.487 55.9956 37.482 54.0434 37.4969C52.4388 37.5118 52.414 37.5217 52.409 39.2024C52.3941 42.9011 52.414 46.5997 52.3991 50.2934C52.3941 52.1675 52.3693 52.1873 50.4816 52.1923C46.7757 52.2071 43.0698 52.1873 39.364 52.2022C37.6303 52.2071 37.6253 52.2319 37.6104 54.0168C37.5905 55.9653 37.5856 57.9137 37.5707 59.8622V59.8721ZM37.6501 29.7923C37.6501 27.705 37.6352 25.6177 37.6601 23.5304C37.67 22.752 37.5657 22.281 36.5771 22.2909C32.2553 22.3355 27.9384 22.3306 23.6166 22.2909C22.7174 22.2859 22.474 22.633 22.479 23.4709C22.5088 27.7794 22.4988 32.0928 22.4839 36.4012C22.4839 37.1003 22.5833 37.5118 23.4626 37.5019C27.849 37.4622 32.2404 37.4672 36.6268 37.5019C37.4365 37.5068 37.675 37.2292 37.6601 36.4508C37.6253 34.2296 37.6452 32.0035 37.6452 29.7824L37.6501 29.7923Z" fill="#DB2026"/>
<rect x="17.8789" y="17.8486" width="23.8447" height="25.2855" fill="#DB2026"/>
<path d="M32.7114 28.4529L43.3211 15.75H40.807L31.5945 26.7798L24.2365 15.75H15.75L26.8767 32.429L15.75 45.75H18.2643L27.9929 34.1022L35.7635 45.75H44.25L32.7107 28.4529H32.7114ZM19.1702 17.6995H23.0321L40.8081 43.8891H36.9463L19.1702 17.6995Z" fill="white"/>
</svg>
