<svg width="64" height="64" viewBox="0 0 64 64" fill="none" xmlns="http://www.w3.org/2000/svg">
<g id="fi_5968830" clip-path="url(#clip0_499_298)">
<path id="Vector" d="M33.9717 30.7546L48.303 51.2534H42.4214L30.7268 34.5263V34.5253L29.0099 32.0698L15.3486 12.5286H21.2302L32.2548 28.2991L33.9717 30.7546Z" fill="#B71B1C"/>
<path id="Vector_2" d="M56.803 0H6.88122C3.08092 0 0 3.08092 0 6.88122V56.803C0 60.6033 3.08092 63.6842 6.88122 63.6842H56.803C60.6033 63.6842 63.6842 60.6033 63.6842 56.803V6.88122C63.6842 3.08092 60.6033 0 56.803 0ZM40.6198 54.0055L28.7856 36.7822L13.969 54.0055H10.1396L27.0852 34.3085L10.1396 9.64606H23.0644L34.2706 25.9553L48.3009 9.64606H52.1302L35.9715 28.4295H35.9704L53.5446 54.0055H40.6198Z" fill="#B71B1C"/>
</g>
<defs>
<clipPath id="clip0_499_298">
<rect width="63.6842" height="63.6842" fill="white"/>
</clipPath>
</defs>
</svg>
